<svg width="651" height="620" viewBox="0 0 651 620" xmlns="http://www.w3.org/2000/svg"><title>Network 1</title><g transform="translate(-1)" fill="none" fill-rule="evenodd"><ellipse fill="#F3BC4C" cx="310.169" cy="11.218" rx="5" ry="5"/><ellipse fill="#F3BC4C" cx="508.961" cy="548.811" rx="16.763" ry="16.765"/><ellipse fill="#F3BC4C" cx="405.397" cy="602.464" rx="7.352" ry="7.353"/><ellipse fill="#F3BC4C" cx="549.884" cy="119.426" rx="6.176" ry="6.177"/><ellipse fill="#F3BC4C" cx="75.363" cy="143.322" rx="6.176" ry="6.177"/><ellipse fill="#F3BC4C" cx="43.584" cy="202.238" rx="5" ry="5"/><ellipse fill="#F3BC4C" cx="572.989" cy="150.277" rx="7.352" ry="7.353"/><ellipse fill="#F3BC4C" cx="376.034" cy="19.258" rx="19.116" ry="19.118"/><ellipse fill="#F3BC4C" cx="213.33" cy="31.715" rx="6.176" ry="6.177"/><ellipse fill="#F3BC4C" cx="603.11" cy="418.6" rx="6.176" ry="6.177"/><ellipse fill="#F3BC4C" cx="557.334" cy="500.162" rx="7.352" ry="7.353"/><ellipse fill="#F3BC4C" cx="137.342" cy="77.771" rx="15.587" ry="15.589"/><ellipse fill="#F3BC4C" cx="607.997" cy="224.338" rx="21.469" ry="21.471"/><ellipse fill="#F3BC4C" cx="614.891" cy="378.399" rx="8.529" ry="8.53"/><ellipse fill="#F3BC4C" cx="621.548" cy="301.756" rx="6.176" ry="6.177"/><ellipse fill="#F3BC4C" cx="339.432" cy="613.822" rx="6.176" ry="6.177"/><ellipse fill="#F3BC4C" cx="67.076" cy="472.725" rx="9.705" ry="9.706"/><ellipse fill="#F3BC4C" cx="620.958" cy="336.949" rx="6.176" ry="6.177"/><ellipse fill="#F3BC4C" cx="24.023" cy="278.36" rx="22.645" ry="22.648"/><ellipse fill="#F3BC4C" cx="235.058" cy="601.511" rx="6.176" ry="6.177"/><ellipse fill="#F3BC4C" cx="444.714" cy="40.646" rx="6.176" ry="6.177"/><ellipse fill="#F3BC4C" cx="57.033" cy="173.369" rx="6.176" ry="6.177"/><ellipse fill="#F3BC4C" cx="584.236" cy="459.712" rx="9.705" ry="9.706"/><ellipse fill="#F3BC4C" cx="174.369" cy="46.975" rx="8.529" ry="8.53"/><ellipse fill="#F3BC4C" cx="447.766" cy="586.622" rx="8.529" ry="8.53"/><ellipse fill="#F3BC4C" cx="26.498" cy="366.884" rx="8.529" ry="8.53"/><ellipse fill="#F3BC4C" cx="272.591" cy="610.269" rx="7.352" ry="7.353"/><ellipse fill="#F3BC4C" cx="91.621" cy="506.672" rx="5" ry="5"/><ellipse fill="#F3BC4C" cx="259.54" cy="18.539" rx="7.352" ry="7.353"/><ellipse fill="#F3BC4C" cx="371.079" cy="610.269" rx="5" ry="5"/><ellipse fill="#F3BC4C" cx="512.866" cy="83.019" rx="12.058" ry="12.059"/><ellipse fill="#F3BC4C" cx="307.587" cy="614" rx="5" ry="5"/><ellipse fill="#F3BC4C" cx="473.032" cy="55.216" rx="5" ry="5"/><ellipse fill="#F3BC4C" cx="94.879" cy="118.154" rx="5" ry="5"/><ellipse fill="#F3BC4C" cx="155.003" cy="563.661" rx="24.998" ry="25.001"/><ellipse fill="#F3BC4C" cx="41.147" cy="420.171" rx="10.881" ry="10.883"/><text font-family="Roboto-Regular, Roboto" font-size="11.732" fill="#39484D"><tspan x="285.373" y="13.877">AUSTRALIA</tspan></text><text font-family="Roboto-Regular, Roboto" font-size="11.732" fill="#39484D"><tspan x="488.332" y="551.368">AUSTRIA</tspan></text><text font-family="Roboto-Regular, Roboto" font-size="11.732" fill="#39484D"><tspan x="381.804" y="605.816">BELGIUM</tspan></text><text font-family="Roboto-Regular, Roboto" font-size="11.732" fill="#39484D"><tspan x="486.001" y="122.779">BOSNIA AND HERZEGOVINA</tspan></text><text font-family="Roboto-Regular, Roboto" font-size="11.732" fill="#39484D"><tspan x="51.921" y="146.675">BULGARIA</tspan></text><text font-family="Roboto-Regular, Roboto" font-size="11.732" fill="#39484D"><tspan x="21.784" y="204.897">CANADA</tspan></text><text font-family="Roboto-Regular, Roboto" font-size="11.732" fill="#39484D"><tspan x="552.604" y="152.834">CROATIA</tspan></text><text font-family="Roboto-Regular, Roboto" font-size="11.732" fill="#39484D"><tspan x="335.935" y="22.594">CZECH REPUBLIC</tspan></text><text font-family="Roboto-Regular, Roboto" font-size="11.732" fill="#39484D"><tspan x="188.108" y="34.817">DENMARK</tspan></text><text font-family="Roboto-Regular, Roboto" font-size="11.732" fill="#39484D"><tspan x="581.137" y="421.157">ESTONIA</tspan></text><text font-family="Roboto-Regular, Roboto" font-size="11.732" fill="#39484D"><tspan x="536.697" y="502.857">FINLAND</tspan></text><text font-family="Roboto-Regular, Roboto" font-size="11.732" fill="#39484D"><tspan x="118.555" y="80.465">FRANCE</tspan></text><text font-family="Roboto-Regular, Roboto" font-size="11.732" fill="#39484D"><tspan x="582.754" y="226.967">GERMANY</tspan></text><text font-family="Roboto-Regular, Roboto" font-size="11.732" fill="#39484D"><tspan x="594.83" y="381.01">GREECE</tspan></text><text font-family="Roboto-Regular, Roboto" font-size="11.732" fill="#39484D"><tspan x="598.022" y="305.127">HUNGARY</tspan></text><text font-family="Roboto-Regular, Roboto" font-size="11.732" fill="#39484D"><tspan x="318.067" y="616.481">ICELAND</tspan></text><text font-family="Roboto-Regular, Roboto" font-size="11.732" fill="#39484D"><tspan x="46.987" y="475.384">IRELAND</tspan></text><text font-family="Roboto-Regular, Roboto" font-size="11.732" fill="#39484D"><tspan x="604.237" y="339.607">ISRAEL</tspan></text><text font-family="Roboto-Regular, Roboto" font-size="11.732" fill="#39484D"><tspan x="10.896" y="281.731">ITALY</tspan></text><text font-family="Roboto-Regular, Roboto" font-size="11.732" fill="#39484D"><tspan x="210.027" y="604.17">LITHUANIA</tspan></text><text font-family="Roboto-Regular, Roboto" font-size="11.732" fill="#39484D"><tspan x="411.33" y="43.999">LUXEMBOURG</tspan></text><text font-family="Roboto-Regular, Roboto" font-size="11.732" fill="#39484D"><tspan x="39.418" y="176.028">MALTA</tspan></text><text font-family="Roboto-Regular, Roboto" font-size="11.732" fill="#39484D"><tspan x="551.153" y="462.371">NETHERLANDS</tspan></text><text font-family="Roboto-Regular, Roboto" font-size="11.732" fill="#39484D"><tspan x="153.47" y="49.445">NORWAY</tspan></text><text font-family="Roboto-Regular, Roboto" font-size="11.732" fill="#39484D"><tspan x="427.124" y="589.958">POLAND</tspan></text><text font-family="Roboto-Regular, Roboto" font-size="11.732" fill="#39484D"><tspan x="2.142" y="370.237">PORTUGAL</tspan></text><text font-family="Roboto-Regular, Roboto" font-size="11.732" fill="#39484D"><tspan x="248.823" y="612.825">ROMANIA</tspan></text><text font-family="Roboto-Regular, Roboto" font-size="11.732" fill="#39484D"><tspan x="73.215" y="509.331">SERBIA</tspan></text><text font-family="Roboto-Regular, Roboto" font-size="11.732" fill="#39484D"><tspan x="235.599" y="21.325">SLOVAKIA</tspan></text><text font-family="Roboto-Regular, Roboto" font-size="11.732" fill="#39484D"><tspan x="347.329" y="612.927">SLOVENIA</tspan></text><text font-family="Roboto-Regular, Roboto" font-size="11.732" fill="#39484D"><tspan x="496.179" y="86.253">SPAIN</tspan></text><text font-family="Roboto-Regular, Roboto" font-size="11.732" fill="#39484D"><tspan x="284.725" y="616.659">SWEDEN</tspan></text><text font-family="Roboto-Regular, Roboto" font-size="11.732" fill="#39484D"><tspan x="440.753" y="57.875">SWITZERLAND</tspan></text><text font-family="Roboto-Regular, Roboto" font-size="11.732" fill="#39484D"><tspan x="76.295" y="121.526">TURKEY</tspan></text><text font-family="Roboto-Regular, Roboto" font-size="11.732" fill="#39484D"><tspan x="111.9" y="567.014">UNITED KINGDOM</tspan></text><text font-family="Roboto-Regular, Roboto" font-size="11.732" fill="#39484D"><tspan x="29.075" y="422.089">USA</tspan></text></g></svg>