<svg id="Layer_1" xmlns="http://www.w3.org/2000/svg" viewBox="0 0 646.7 650"><style>.st0{opacity:0.6;} .st1{fill:none;stroke:#4D4D4D;} .st2{fill:none;stroke:#4D4D4D;stroke-width:2;} .st3{fill:none;stroke:#4D4D4D;stroke-width:3;} .st4{fill:#F3BC4C;} .st5{fill:#363633;} .st6{font-family:&apos;Roboto-Bold&apos;;} .st7{font-size:12px;}</style><g id="edges" class="st0"><path class="st1" d="M503.9 554.2c-9.7 30.6-70.2 61.9-100.8 52.2"/><path class="st2" d="M503.9 554.2C374.9 477 297.3 167.7 374.5 38.7"/><path class="st1" d="M503.9 554.2C349 506 189 201.3 237.2 46.4M503.9 554.2c-7-43.7 48-119.7 91.7-126.7M503.9 554.2c-.1-18.9 28.2-47.3 47.1-47.4M503.9 554.2C339.8 534.8 122.8 259.7 142.1 95.7M503.9 554.2c-43.9-82.4 14-271.9 96.4-315.8M503.9 554.2c-12.6-53.8 49.3-153.3 103.1-165.9M503.9 554.2c-26.2-70 39.6-214.3 109.6-240.5M503.9 554.2c-20.4 45.7-119.4 83.6-165 63.3M503.9 554.2C403 625.4 144.9 581 73.7 480.1M503.9 554.2c-19.4-63 46-186.8 109-206.2M503.9 554.2C356.8 596 73.6 438 31.8 290.9M503.9 554.2c-43.1 63.6-203.1 94.4-266.6 51.3M503.9 554.2c-111.4-86.4-149-383.2-62.5-494.6M503.9 554.2c-2.7-32 41.3-84 73.3-86.7"/><path class="st2" d="M503.9 554.2C344.3 516.5 161.4 220.5 199.1 60.9"/><path class="st1" d="M503.9 554.2c-4.6 19.3-40.3 41.4-59.6 36.8M503.9 554.2C374.5 612.7 92.7 506.5 34.2 377.1M503.9 554.2c-34.1 58-172.1 93.9-230.1 59.8M503.9 554.2c-89.5 73.1-333.2 48.4-406.3-41M503.9 554.2C354.6 497 216.5 187.2 273.8 37.9M503.9 554.2c-89.9-91.4-87.6-363.5 3.8-453.4M503.9 554.2c-26.5 51.9-144.1 90-196 63.5M503.9 554.2c-66 71.8-272.8 80.5-344.6 14.5M403.1 606.4C249.4 581.3 56.7 313.1 81.8 159.5M403.1 606.4c-55.4-120.7 42.5-384.7 163.1-440.1"/><path class="st2" d="M403.1 606.4C283.8 498.6 266.7 158 374.5 38.7"/><path class="st1" d="M403.1 606.4C248.7 556.5 92.2 250 142.1 95.7"/><path class="st2" d="M403.1 606.4c-34.2-113.1 84.2-333.9 197.2-368.1"/><path class="st1" d="M403.1 606.4c-16.5-100.6 109.8-276.2 210.4-292.7M403.1 606.4c-9.7-93.7 116.2-248.7 209.8-258.4M403.1 606.4C265.7 617.6 43 428.3 31.8 290.9M403.1 606.4c-101.7-117-78.8-445.1 38.3-546.9M403.1 606.4c7-62.6 111.5-146 174.1-139M403.1 606.4c-149.9-68.3-272.3-395.6-204-545.5M403.1 606.4c5.2-11.3 29.9-20.6 41.2-15.4M403.1 606.4c-24.3 27.4-101.9 31.9-129.3 7.6M403.1 606.4c-79.7 42.4-263-13.5-305.5-93.2M403.1 606.4c-5.2 8.2-25.2 12.8-33.4 7.6M403.1 606.4c-16.8 21.3-73.9 28-95.2 11.2M403.1 606.4c-56.3 41.2-202.6 18.5-243.8-37.8M543.7 136.2c-87.7 97-364.9 111-461.9 23.3M543.7 136.2C490.4 150.5 388.8 92 374.5 38.7M543.7 136.2c75.6 72.7 79.9 295 7.3 370.6"/><path class="st2" d="M543.7 136.2c-88.4 72.2-329.4 47.9-401.6-40.5"/><path class="st1" d="M543.7 136.2c63.1 37.8 101 189 63.3 252.1M543.7 136.2C518.5 299 236.5 505.4 73.7 480.1"/><path class="st2" d="M543.7 136.2C472.3 269.6 165.1 362.4 31.8 290.9"/><path class="st1" d="M543.7 136.2c-35.8 5.1-97.2-40.9-102.4-76.7M543.7 136.2c72.9 59.6 93 258.3 33.4 331.2"/><path class="st2" d="M543.7 136.2C614.8 247 555.1 519.9 444.3 591"/><path class="st1" d="M543.7 136.2C490 286.3 184.3 430.8 34.2 377.1M543.7 136.2c-73.7 34.3-235.6-24.7-269.9-98.3M543.7 136.2c-14.3.1-35.9-21.1-36-35.4M543.7 136.2c9.6 163.4-221 422.8-384.4 432.4M543.7 136.2C503.2 293.8 206.1 469.5 48.5 429M81.8 159.5C180 64 470.7 68 566.2 166.3M81.8 159.5c34.4-82.7 210-155.1 292.7-120.8M81.8 159.5c-.7-24.8 35.5-63.1 60.3-63.8M81.8 159.5c119.5-87.9 430.6-40.6 518.5 78.9M81.8 159.5C219 84 538 176.5 613.5 313.7M81.8 159.5c62.5 65.7 57.7 258.1-8.1 320.6M81.8 159.5c16.3 36.3-13.7 115.1-50 131.4M81.8 159.5C133.7 67.6 349.4 7.6 441.3 59.6"/><path class="st2" d="M81.8 159.5C240.6 173.3 458.1 432.2 444.3 591"/><path class="st1" d="M81.8 159.5c14.1-62.7 129.3-135.7 192-121.6M81.8 159.5C230.3 192.8 403 465.5 369.7 614M81.8 159.5c97.3 66.3 143.9 311.8 77.5 409.1M566.2 166.3c-63.9 12.8-178.9-63.7-191.7-127.5M566.2 166.3c21.2 7.6 41.7 50.9 34.1 72.1M566.2 166.3c38.9 20 67.3 108.5 47.3 147.4M566.2 166.3c60.6 109.3-12.6 364.2-121.9 424.7M566.2 166.3c50.2 128.9-67.7 397.5-196.6 447.7M566.2 166.3c-.9 161.9-245 403.3-406.9 402.4M374.5 38.7c-25.9 29-108.3 33.6-137.2 7.7M374.5 38.7c122 33.5 254.6 266.8 221.1 388.7"/><path class="st2" d="M374.5 38.7C503.4 97.1 609.3 377.9 551 506.8M374.5 38.7c-35.1 57.9-174.5 92-232.4 57M374.5 38.7c85.1-5.2 220.6 114.5 225.8 199.6M374.5 38.7C490.9 62.1 630.4 271.9 607 388.3M374.5 38.7c102.8 7.2 246.2 172.2 239 275"/><path class="st1" d="M374.5 38.7c108.6 122.9 87.2 470.1-35.6 578.7M374.5 38.7C402.6 187.2 222.1 452 73.7 480.1M374.5 38.7C484 52.9 627.1 238.4 612.9 348"/><path class="st2" d="M374.5 38.7C356.4 157.7 150.8 309 31.8 290.9"/><path class="st1" d="M374.5 38.7c85.9 140.8 3.6 480.8-137.2 566.7M374.5 38.7c17.5-9.2 57.7 3.3 66.9 20.8"/><path class="st2" d="M374.5 38.7c126.3 45.2 247.9 302.4 202.7 428.7M374.5 38.7c-30.6 39.5-135.8 52.8-175.4 22.2"/><path class="st3" d="M374.5 38.7c124.4 96.5 166.3 427.8 69.8 552.3"/><path class="st2" d="M374.5 38.7C374.1 174.4 170 377.4 34.2 377.1"/><path class="st1" d="M374.5 38.7C469.4 173.9 409 519.1 273.8 614M374.5 38.7C414 189 247.9 473.7 97.6 513.2M374.5 38.7c-20.3 20-80.7 19.5-100.7-.8M374.5 38.7c114.1 116 111.2 461.2-4.8 575.3"/><path class="st2" d="M374.5 38.7c39.1-14.2 119 23 133.2 62.1"/><path class="st1" d="M374.5 38.7C477 167.8 437 515.1 307.9 617.6"/><path class="st3" d="M374.5 38.7c62.9 149-66.2 467-215.2 529.9"/><path class="st1" d="M374.5 38.7C387.3 182 191.7 416.1 48.5 429M237.2 46.4c147.9 4.5 362.8 233.2 358.3 381M237.2 46.4C392.1 75.8 580.3 352 551 506.8M237.2 46.4C379.6 40.8 601.4 246 607 388.3M237.2 46.4C366 24.6 591.7 185 613.5 313.7M237.2 46.4c134.5 93.9 195.5 436.5 101.6 571.1M237.2 46.4c54 119.4-44.1 379.7-163.5 433.7M237.2 46.4c111.8 111.8 111.8 447.3 0 559.1M237.2 46.4c-4.7 10.5-27.6 19.2-38.1 14.5M237.2 46.4C387.6 113.9 511.8 440.7 444.3 591M237.2 46.4c25.5 106.7-96.3 305.2-203 330.7M237.2 46.4c5.6-9 27.5-14.1 36.5-8.5M237.2 46.4c65-43.2 227.2-10.6 270.4 54.4M237.2 46.4c88.9 120 42.1 433.4-77.9 522.2M595.5 427.4c7 24.8-19.8 72.4-44.6 79.4M595.5 427.4c-5.5-10.1 1.3-33.6 11.5-39.1M595.5 427.4c-19.2-26.3-8.4-94.6 17.9-113.7M595.5 427.4c-13.3 89.3-167.3 203.4-256.7 190M595.5 427.4C501.7 542.3 188.6 574 73.7 480.1M595.5 427.4c-36.1 107.3-251 214.1-358.3 178M595.5 427.4c-152.6 6-390.4-213.9-396.4-366.5M595.5 427.4c2.5 63-88.3 161.1-151.2 163.5M595.5 427.4c-122.3 102.2-459.1 72-561.3-50.3M595.5 427.4C453.3 413.9 260.2 180.2 273.8 37.9M595.5 427.4c-82.9-47.8-135.6-243.7-87.9-326.6M595.5 427.4c-59 115.5-320.7 200.2-436.2 141.2M551 506.8c-164-.5-409.3-247.1-408.9-411.1"/><path class="st2" d="M551 506.8c-12.5-34.9 21.1-106 56-118.5"/><path class="st1" d="M551 506.8c-26.1-51.1 11.4-167 62.5-193.1M551 506.8c-20.3 64.6-147.6 130.9-212.1 110.6M551 506.8c-100.8 90.1-387.1 74.1-477.3-26.7M551 506.8C404 567.5 92.5 438 31.8 290.9M551 506.8c-43 82.5-231.3 141.7-313.7 98.7M551 506.8c-2.6-13.1 13.1-36.7 26.2-39.4M551 506.8C391.4 488 180.3 220.5 199.1 60.9"/><path class="st2" d="M551 506.8c-4.5 38.2-68.5 88.7-106.7 84.2M551 506.8c-129.3 77.4-439.4-.4-516.8-129.7"/><path class="st1" d="M551 506.8C401.7 468.5 235.4 187.1 273.8 37.9"/><path class="st2" d="M551 506.8c-89.9-72.5-115.8-316.2-43.3-406M551 506.8c-66 90.7-301 127.8-391.7 61.8"/><path class="st1" d="M551 506.8C434.9 591.8 133.4 545 48.5 429M142.1 95.7c120.2-63.1 395.1 22.5 458.2 142.7M142.1 95.7C293.6 61.2 572.6 236.8 607 388.3M142.1 95.7c63.2 90.6 22.2 321.2-68.4 384.4M142.1 95.7C286.7 52 569.2 203.4 612.9 348"/><path class="st3" d="M142.1 95.7c17 61.1-49.2 178.3-110.3 195.2"/><path class="st2" d="M142.1 95.7c52.6-67.1 232.1-88.8 299.2-36.1M142.1 95.7c161.4-12.7 422.4 210.4 435 371.8"/><path class="st1" d="M142.1 95.7c4.4-18.4 38.7-39.2 57-34.8"/><path class="st2" d="M142.1 95.7C301.6 134.3 482.9 431.5 444.3 591"/><path class="st1" d="M142.1 95.7c34.7 77.9-30 246.7-107.9 281.4M142.1 95.7C272.1 173 351.1 484 273.8 614M142.1 95.7c74.6 92.4 47.9 342.9-44.5 417.5M142.1 95.7c14.8-37.9 93.8-72.6 131.7-57.8M142.1 95.7c74.1-72.1 293.5-69 365.6 5.1M142.1 95.7c137.5 71.2 237 384.4 165.7 522M142.1 95.7c98 91.2 108.3 374.9 17.2 473M142.1 95.7C190 181.1 133.9 381 48.5 429M600.3 238.4c17.7 12.4 25.6 57.6 13.2 75.4M600.3 238.4C543.3 392 227.4 537.1 73.7 480.1M600.3 238.4c24.4 19.4 32 85.2 12.6 109.6M600.3 238.4C497.1 362.6 156 394.1 31.8 290.9M600.3 238.4c-67.6-4-162.9-111.2-159-178.8M600.3 238.4c41.2 50.4 27.3 187.9-23.1 229.1M600.3 238.4C484.6 283.1 243.9 176.7 199.1 61M600.3 238.4c39.3 101.7-54.3 313.3-156 352.6M600.3 238.4c9.8 140.4-186.1 365.8-326.5 375.7M600.3 238.4C554.7 393.9 253.1 558.7 97.6 513.2M600.3 238.4C629.3 359.6 490.9 585 369.7 614M600.3 238.4c17.4 134.3-158.1 361.9-292.4 379.3"/><path class="st2" d="M600.3 238.4c-22.1 154.3-286.7 352.4-441 330.3"/><path class="st1" d="M607 388.3c-13.6-16.2-9.7-61 6.5-74.6M607 388.3c-7.8 99.5-168.7 237-268.2 229.2M607 388.3c-88.3 125-408.3 180.1-533.3 91.8M607 388.3c-134.5 95.6-479.6 37.1-575.2-97.4M607 388.3C576.5 505.7 354.6 636 237.2 605.5M607 388.3c9.9 21.8-8 69.3-29.8 79.1M607 388.3C459.9 404.4 215.2 208 199.1 60.9"/><path class="st2" d="M607 388.3c8 73.1-89.6 194.7-162.7 202.7M607 388.3C490.2 500.6 146.5 493.9 34.2 377.1"/><path class="st1" d="M607 388.3c-136.7-3.4-336.7-213.7-333.2-350.4"/><path class="st2" d="M607 388.3c-77.4-37.6-137-210.1-99.3-287.5M607 388.3c-53.5 125.6-322.1 233.8-447.7 180.3"/><path class="st1" d="M607 388.3C503.4 508.2 168.3 532.5 48.5 429M613.5 313.7c5.8 115.7-159 297.9-274.6 303.8M613.5 313.7C538.8 454.9 215 554.8 73.7 480.1M613.5 313.7c-16.9 133.6-242.6 308.7-376.2 291.8M613.5 313.7C480.1 346 231.4 194.3 199.1 60.9"/><path class="st2" d="M613.5 313.7C635.1 403 533.6 569.4 444.3 591"/><path class="st1" d="M613.5 313.7C510.3 442.2 162.7 480.3 34.2 377.1M613.5 313.7C490.4 326.5 286.6 161 273.8 37.9M613.5 313.7c11.3 108.8-135 289-243.8 300.3M613.5 313.7c-63.7-21.4-127.2-149.2-105.8-212.9"/><path class="st2" d="M613.5 313.7c-39.8 141.8-312.4 294.8-454.2 254.9"/><path class="st1" d="M338.9 617.5C258.4 643 99.3 560.6 73.7 480.1M338.9 617.5c-22.7 17.9-83.7 10.7-101.6-12M338.9 617.5C199.6 534.1 115.8 200.2 199.1 60.9M338.9 617.5c15.8-26.4 79.1-42.3 105.5-26.5M338.9 617.5c-109 12.9-291.8-131.4-304.6-240.4M338.9 617.5C210 514.6 170.9 166.9 273.8 37.9M338.9 617.5c-69.6-137.1 31.7-447.1 168.8-516.7M338.9 617.5c-45.7 26.1-153.4-3.2-179.5-48.8M73.7 480.1c-46.2-29.5-71.4-143-41.9-189.2M73.7 480.1c57.8-7.6 155.9 67.6 163.5 125.4M73.7 480.1c-10.6-157.6 210-410 367.6-420.6M73.7 480.1C15 371.2 90.2 119.7 199.1 60.9"/><path class="st2" d="M73.7 480.1C170 428.2 392.4 494.7 444.3 591"/><path class="st1" d="M73.7 480.1c-28.5-12.7-52.2-74.5-39.5-103"/><path class="st2" d="M73.7 480.1C25.3 351.7 145.3 86.3 273.8 37.9"/><path class="st1" d="M73.7 480.1C84.6 317.5 345 89.9 507.7 100.8"/><path class="st2" d="M73.7 480.1c34.8.6 86.2 53.7 85.6 88.5"/><path class="st1" d="M612.9 348c-127.6 104.8-476.3 70.6-581.1-57M612.9 348c-92-23.4-194.9-196.4-171.6-288.4M612.9 348c16.7 31-4.7 102.7-35.7 119.5M612.9 348C472.7 373.3 224.5 201.1 199.1 60.9M612.9 348c-14.6 121-218.1 280.7-339.1 266M612.9 348c-70 136.1-379.2 235.2-515.3 165.2M612.9 348c-7.1 114.9-190.1 276.8-305.1 269.7"/><path class="st2" d="M31.8 290.9c35.6-128.2 281.3-267 409.5-231.4M31.8 290.9c144.4-73.8 471.6 32.1 545.4 176.5"/><path class="st1" d="M31.8 290.9c-12.5-79.5 87.9-217.5 167.3-230"/><path class="st2" d="M31.8 290.9c142.5-22.5 390 157.5 412.5 300.1"/><path class="st1" d="M31.8 290.9c17.7 16.8 19.2 68.5 2.4 86.2M31.8 290.9C144.8 307.2 290 501 273.8 614M31.8 290.9c57.6 31.3 97.1 164.6 65.8 222.2M31.8 290.9c-2.2-99 143-250.8 242-253M31.8 290.9C89 157.7 374.5 43.7 507.7 100.8M31.8 290.9C152.3 301 318 497.1 307.8 617.6M31.8 290.9c81 30 157.5 196.7 127.5 277.7M31.8 290.9C62.7 315.2 72.7 398 48.5 429M237.2 605.5c-116.5-101.3-139.4-428-38.1-544.6M237.2 605.5c38.5-44.3 162.8-53 207.1-14.5M237.2 605.5c-86.3-5.1-208.1-142.1-203-228.4M237.2 605.5C131 484.7 153 144.1 273.8 37.9M237.2 605.5c-46.8-155 115.4-457.8 270.4-504.7M237.2 605.5c-23 8.2-69.7-13.9-77.9-36.8M441.3 59.6C550.1 114 631.6 358.7 577.2 467.5M441.3 59.6c-48.2 48.7-193.5 49.5-242.2 1.4M441.3 59.6c106.9 105.7 108.7 424.6 3 531.4M441.3 59.6c77.4 144.4-23.1 477-167.5 554.4M441.3 59.6c22 159.5-184.3 431.6-343.7 453.6M441.3 59.6C403.5 88.7 303 75.7 273.8 37.9M441.3 59.6c84.9 138.3 4.8 473.2-133.5 558.1M577.2 467.5c-156.9-5.7-383.7-249.6-378-406.6M577.2 467.5c-1.9 51.3-81.6 125.4-132.9 123.5M577.2 467.5c-126.7 90.5-452.5 36.3-543-90.4M577.2 467.5c-31.4 90-213.4 177.9-303.4 146.5M577.2 467.5C490.4 572.6 202.7 600 97.7 513.2M577.2 467.5c-87.3-59.5-129-279.5-69.5-366.7M577.2 467.5c-23.8 83.9-185.4 174-269.3 150.2M577.2 467.5c-63.3 103.8-314 164.5-417.8 101.2M577.2 467.5c-113.4 98-430.6 74.9-528.7-38.5M199.1 60.9c155.1 57 302.2 375 245.2 530.1M199.1 60.9c30.3 96.2-68.7 285.9-164.9 316.2M199.1 60.9c125.6 95.7 170.3 427.5 74.7 553.1M199.1 60.9c70.1 110.8 9.2 382.1-101.5 452.3M199.1 60.9c10.3-19.5 55.1-33.3 74.7-23M199.1 60.9C268.8 7.2 454 31.1 507.7 100.8M199.1 60.9c133.1 89.6 198.3 423.6 108.7 556.7M199.1 60.9c93.6 109.5 69.7 414.2-39.8 507.7"/><path class="st2" d="M444.3 591C319.5 630.2 73.5 501.9 34.2 377.1M444.3 591c-144.7-76.5-247-408.4-170.5-553.1"/><path class="st1" d="M444.3 591c-10.3 19.5-55.1 33.3-74.7 23"/><path class="st2" d="M444.3 591c-85.4-110.7-47.3-404.8 63.4-490.2"/><path class="st3" d="M444.3 591c-61.5 52.5-232.5 39.1-285-22.3"/><path class="st1" d="M444.3 591C332.7 637.8 95.2 540.5 48.5 429M34.2 377.1C14.3 261.4 158 57.8 273.8 37.9"/><path class="st2" d="M34.2 377.1c39.4-150 323.5-315.7 473.5-276.3M34.2 377.1c63.3 13.3 138.4 128.2 125.1 191.5"/><path class="st1" d="M34.2 377.1c13.2 7.5 21.8 38.6 14.3 51.9M273.8 614c-55.4 15.1-161.1-45.4-176.2-100.8M273.8 614c7.5-6.1 28-3.9 34.1 3.6M97.6 513.2c62.9-21.2 189.1 41.5 210.2 104.5M273.8 37.9c59.4-34.2 199.7 3.5 233.9 62.9M273.8 37.9c83.3 129 14.6 447.5-114.5 530.8M369.7 614c-51.1 33-177.3 5.8-210.3-45.4"/><path class="st2" d="M507.7 100.8C531.6 264 322.6 544.7 159.3 568.6"/><path class="st1" d="M507.7 100.8C481.5 258.3 206 455.2 48.5 429M159.3 568.6C109.2 562.9 42.7 479.1 48.5 429"/></g><g id="nodes"><circle class="st4" cx="307.8" cy="34.3" r="4.9"/><circle class="st4" cx="503.9" cy="554.2" r="16.3"/><circle class="st4" cx="403.1" cy="606.4" r="7.2"/><circle class="st4" cx="543.7" cy="136.2" r="6"/><circle class="st4" cx="81.8" cy="159.5" r="6"/><circle class="st4" cx="50.8" cy="216.8" r="4.9"/><circle class="st4" cx="566.2" cy="166.3" r="7.2"/><circle class="st4" cx="374.5" cy="38.7" r="18.6"/><circle class="st4" cx="237.2" cy="46.4" r="6"/><circle class="st4" cx="595.5" cy="427.4" r="6"/><circle class="st4" cx="551" cy="506.8" r="7.2"/><circle class="st4" cx="142.1" cy="95.7" r="15.2"/><circle class="st4" cx="600.3" cy="238.4" r="20.9"/><circle class="st4" cx="607" cy="388.3" r="8.3"/><circle class="st4" cx="613.5" cy="313.7" r="6"/><circle class="st4" cx="338.9" cy="617.5" r="6"/><circle class="st4" cx="73.7" cy="480.1" r="9.4"/><circle class="st4" cx="612.9" cy="348" r="6"/><circle class="st4" cx="31.8" cy="290.9" r="22"/><circle class="st4" cx="237.2" cy="605.5" r="6"/><circle class="st4" cx="441.3" cy="59.6" r="6"/><circle class="st4" cx="63.9" cy="188.7" r="6"/><circle class="st4" cx="577.2" cy="467.5" r="9.4"/><circle class="st4" cx="199.1" cy="60.9" r="8.3"/><circle class="st4" cx="444.3" cy="591" r="8.3"/><circle class="st4" cx="34.2" cy="377.1" r="8.3"/><circle class="st4" cx="273.8" cy="614" r="7.2"/><circle class="st4" cx="97.6" cy="513.2" r="4.9"/><circle class="st4" cx="273.8" cy="37.9" r="7.2"/><circle class="st4" cx="369.7" cy="614" r="4.9"/><circle class="st4" cx="507.7" cy="100.8" r="11.7"/><circle class="st4" cx="307.8" cy="617.6" r="4.9"/><circle class="st4" cx="468.9" cy="73.7" r="4.9"/><circle class="st4" cx="100.8" cy="135" r="4.9"/><circle class="st4" cx="159.3" cy="568.6" r="24.3"/><circle class="st4" cx="48.5" cy="429" r="10.6"/></g><g id="node-labels"><text transform="translate(279.755 36.85)" class="st5 st6 st7">australia</text><text transform="translate(481.015 556.68)" class="st5 st6 st7">austria</text><text transform="translate(376.773 609.678)" class="st5 st6 st7">belgium</text><text transform="translate(470.016 139.502)" class="st5 st6 st7">bosnia and herzegovina</text><text transform="translate(55.357 162.76)" class="st5 st6 st7">bulgaria</text><text transform="translate(26.56 219.434)" class="st5 st6 st7">canada</text><text transform="translate(543.227 168.757)" class="st5 st6 st7">croatia</text><text transform="translate(328.846 41.985)" class="st5 st6 st7">czech republic</text><text transform="translate(208.594 49.006)" class="st5 st6 st7">denmark</text><text transform="translate(571.246 429.934)" class="st5 st6 st7">estonia</text><text transform="translate(528.23 509.46)" class="st5 st6 st7">finland</text><text transform="translate(120.94 98.315)" class="st5 st6 st7">france</text><text transform="translate(571.892 240.916)" class="st5 st6 st7">germany</text><text transform="translate(584.54 390.857)" class="st5 st6 st7">greece</text><text transform="translate(587.095 316.994)" class="st5 st6 st7">hungary</text><text transform="translate(315.057 620.058)" class="st5 st6 st7">iceland</text><text transform="translate(51.25 482.72)" class="st5 st6 st7">ireland</text><text transform="translate(594.6 350.558)" class="st5 st6 st7">israel</text><text transform="translate(17.343 294.222)" class="st5 st6 st7">italy</text><text transform="translate(209.375 608.075)" class="st5 st6 st7">lithuania</text><text transform="translate(403.506 62.82)" class="st5 st6 st7">luxembourg</text><text transform="translate(44.677 191.333)" class="st5 st6 st7">malta</text><text transform="translate(539.422 470.05)" class="st5 st6 st7">netherlands</text><text transform="translate(175.12 63.47)" class="st5 st6 st7">norway</text><text transform="translate(421.638 594.24)" class="st5 st6 st7">poland</text><text transform="translate(6.87 380.37)" class="st5 st6 st7">portugal</text><text transform="translate(246.858 616.5)" class="st5 st6 st7">romania</text><text transform="translate(77 515.76)" class="st5 st6 st7">serbia</text><text transform="translate(247.008 40.482)" class="st5 st6 st7">slovakia</text><text transform="translate(342.667 616.6)" class="st5 st6 st7">slovenia</text><text transform="translate(489.228 103.95)" class="st5 st6 st7">spain</text><text transform="translate(282.394 620.23)" class="st5 st6 st7">sweden</text><text transform="translate(432.19 76.326)" class="st5 st6 st7">switzerland</text><text transform="translate(80.317 138.282)" class="st5 st6 st7">turkey</text><text transform="translate(110.387 571.908)" class="st5 st6 st7">united kingdom</text><text transform="translate(35.5 430.842)" class="st5 st6 st7">usa</text></g></svg>