<svg width="618" height="650" viewBox="0 0 618 650" xmlns="http://www.w3.org/2000/svg"><title>Network 2</title><g fill="none" fill-rule="evenodd"><g stroke="#4D4D4D" opacity=".4"><path d="M38.436 324.874c-7.59-82.968 105.477-218.806 188.445-226.397" stroke-width="1.5"/><path d="M38.436 324.874c42.36-31.977 153.864-16.403 185.842 25.956" stroke-width="3"/><path d="M38.436 324.874c109.978 10.706 258.886 191.73 248.18 301.71M38.436 324.874c101.003 26.466 212.81 217.668 186.344 318.67M38.436 324.874c91.674-18.65 257.16 90.89 275.81 182.563M38.436 324.874c21.445-53.603 134.02-101.84 187.623-80.396M38.436 324.874c12.94-86.108 161.515-195.86 247.624-182.917M38.436 324.874c86.077-2.745 219.31 122.252 222.057 208.33M38.436 324.874c102.23-40.532 316.375 52.013 356.908 154.244M38.436 324.874C123.61 353.3 208.728 523.698 180.302 608.87M38.436 324.874c48.992-1.115 124.152 70.7 125.267 119.692M38.436 324.874C-1.226 292.224-11.742 183.75 20.91 144.09M38.436 324.874c12.424-35.767 84.71-70.783 120.477-58.36M38.436 324.874c72.965 39.608 123 208.467 83.393 281.432M38.436 324.874C21.81 286.886 53.85 204.964 91.84 188.336M38.436 324.874c-.834-54.245 79.284-136.864 133.53-137.698" stroke-width="1.5"/><path d="M38.436 324.874c20.685 6.153 42.483 46.41 36.33 67.094" stroke-width="3"/><path d="M38.436 324.874c58.912-38.336 204.785-7.472 243.12 51.44M38.436 324.874c69.367-3.855 179.2 94.412 183.057 163.78M38.436 324.874c-34.524-52.813-7.09-183.82 45.724-218.346M38.436 324.874c-46.512-46.595-46.387-186.257.208-232.77M38.436 324.874c54.243 20.083 105.483 131.57 85.4 185.814M38.436 324.874c73.038-19.778 212.262 60.11 232.04 133.15M38.436 324.874C2.63 258.458 48.546 105.124 114.96 69.317M38.436 324.874c76.875-46.034 261.24.228 307.273 77.103M226.88 98.477c55.17-3.67 143.43 73.58 147.1 128.75M226.88 98.477c71.925-21.016 211.335 55.344 232.352 127.268" stroke-width="1.5"/><path d="M226.88 98.477c49.95 50.992 48.39 202.403-2.602 252.353" stroke-width="3"/><path d="M226.88 98.477c29.037 29.365 28.543 116.965-.82 146" stroke-width="1.5"/><path d="M226.88 98.477c20.533-3.14 56.04 22.948 59.18 43.48" stroke-width="3"/><path d="M226.88 98.477c109.822 42.436 210.9 270.82 168.464 380.64M226.88 98.477C194.81 148.794 71.227 176.16 20.91 144.09M226.88 98.477c20.015 47.2-20.766 148.024-67.967 168.038M226.88 98.477c-9.036 44.98-90.06 98.896-135.04 89.86M226.88 98.477c6.758 28.723-26.192 81.943-54.915 88.7M226.88 98.477c28.276 89.122-62.993 265.216-152.114 293.49M226.88 98.477c66.504 44.633 99.31 211.335 54.677 277.837M226.88 98.477c-26.933 30.155-112.566 34.985-142.72 8.05M226.88 98.477c-38.92 36.373-151.863 32.55-188.236-6.372M226.88 98.477c61.374-24.987 190.914 29.59 215.902 90.962M226.88 98.477c-28.215 16.553-95.367-.944-111.92-29.16M226.88 98.477c84.467 36.935 155.763 219.035 118.83 303.5M299.796 302.052c-.128-29.802 44.383-74.698 74.185-74.826M299.796 302.052c-5.348 24.86-50.66 54.126-75.518 48.778M299.796 302.052c43.967 38.187 52.637 161.418 14.45 205.385" stroke-width="1.5"/><path d="M299.796 302.052c-26.262 3.232-70.504-31.312-73.737-57.574" stroke-width="3"/><path d="M299.796 302.052c38.37 54.09 14.788 192.78-39.303 231.15M299.796 302.052c1.284 55.72-80.372 141.23-136.093 142.514" stroke-width="1.5"/><path d="M299.796 302.052c-35.284 21.07-119.814-.253-140.883-35.537" stroke-width="3"/><path d="M299.796 302.052c-64.334 18.848-189.11-49.38-207.957-113.716M299.796 302.052c-48.54 2.59-125.24-66.334-127.83-114.876" stroke-width="1.5"/><path d="M299.796 302.052c11.205 18.5.26 63.058-18.24 74.262" stroke-width="3"/><path d="M299.796 302.052c21.66 52.98-25.322 164.942-78.303 186.6M299.796 302.052c6.535 76.92-99.04 202.1-175.96 208.636M299.796 302.052c25.33 37.058 7.74 130.64-29.32 155.97M299.796 302.052c29.168 10.802 56.716 70.758 45.913 99.925M299.796 302.052c32-12.054 98.078 17.865 110.132 49.864M373.98 227.226c16.755-17.346 67.905-18.235 85.252-1.48M373.98 227.226c-5.22 54.662-95.04 128.824-149.702 123.604M373.98 227.226c-26.133 33.035-114.886 43.386-147.92 17.252M373.98 227.226c-34.637.53-87.39-50.63-87.92-85.27M373.98 227.226c54.652 46.106 67.47 197.24 21.364 251.892M373.98 227.226c1.413 85.524-124.754 215.928-210.277 217.34M373.98 227.226c-35.155 50.87-164.195 74.444-215.067 39.29M373.98 227.226c-64.206 48.65-233.49 25.317-282.14-38.89" stroke-width="1.5"/><path d="M373.98 227.226c11.334 48.303-44.12 137.755-92.423 149.088" stroke-width="3"/><path d="M373.98 227.226c6.664 106.72-143.423 276.8-250.144 283.462M373.98 227.226c6.204-21.317 47.484-43.99 68.802-37.787M373.98 227.226c29.297 40.605 12.334 145.455-28.27 174.75M459.232 225.745c-21.974 72.008-162.946 147.06-234.954 125.085M459.232 225.745c-51.392 17.877-155.296-32.396-173.172-83.788M459.232 225.745c37.897 63.452-.436 215.476-63.888 253.373M459.232 225.745c-5.42 65.65-112.026 155.99-177.675 150.57M459.232 225.745c-10.55-3.97-20.42-25.754-16.45-36.306M459.232 225.745c12.542 57.95-55.572 163.69-113.523 176.232M224.278 350.83c67.618 42.683 105.02 208.135 62.338 275.753M224.278 350.83c58.643 58.442 58.945 234.07.502 292.714" stroke-width="1.5"/><path d="M224.278 350.83c49.314 13.328 103.295 107.292 89.967 156.607M224.278 350.83c-20.915-21.627-19.846-85.438 1.78-106.352M224.278 350.83c-29.42-54.13 7.65-179.455 61.782-208.873M224.278 350.83c43.717 29.232 65.447 138.655 36.215 182.373M224.278 350.83c59.87-8.556 162.51 68.417 171.066 128.288" stroke-width="3"/><path d="M224.278 350.83c42.813 60.403 16.428 215.227-43.976 258.04M224.278 350.83c6.632 30.862-29.713 87.104-60.575 93.736M224.278 350.83c-82.022-.675-204.043-124.72-203.368-206.74" stroke-width="1.5"/><path d="M224.278 350.83c-29.936-3.79-69.155-54.38-65.365-84.315" stroke-width="3"/><path d="M224.278 350.83c30.605 71.585-30.864 224.87-102.45 255.476M224.278 350.83c-58.987-6.01-138.45-103.507-132.44-162.494" stroke-width="1.5"/><path d="M224.278 350.83c-43.194-22.268-74.58-120.46-52.313-163.654M224.278 350.83c-21.675 38.13-111.382 62.813-149.512 41.138" stroke-width="3"/><path d="M224.278 350.83c16.552-6.36 50.92 8.932 57.28 25.484" stroke-width="4.5"/><path d="M224.278 350.83c27.007 28.122 25.336 110.816-2.785 137.823" stroke-width="3"/><path d="M224.278 350.83C147.394 329.993 63.323 183.412 84.16 106.528M224.278 350.83C135.406 336.212 24.026 180.976 38.644 92.105M224.278 350.83c11.883 52.06-48.382 147.975-100.442 159.858M224.278 350.83c11.422-75.98 142.525-172.813 218.504-161.39" stroke-width="1.5"/><path d="M224.278 350.83c30.678 12.2 58.397 76.514 46.2 107.193" stroke-width="3"/><path d="M224.278 350.83C146.112 316.39 80.522 147.483 114.96 69.317" stroke-width="1.5"/><path d="M224.278 350.83c34.515-14.057 107.374 16.63 121.43 51.147" stroke-width="4.5"/><path d="M224.278 350.83c37.347-36.913 148.737-36.26 185.65 1.086M286.616 626.583c-8.975 15.76-46.076 25.936-61.836 16.96M286.616 626.583c-18.303-29.355-1.726-100.843 27.63-119.146M286.616 626.583c-23.9-13.45-39.574-69.48-26.123-93.38M286.616 626.583c-7.748-51.24 57.49-139.718 108.728-147.465M286.616 626.583c-24.805 17.72-88.593 7.093-106.314-17.712M286.616 626.583c-60.986-11.82-134.734-121.03-122.913-182.017M286.616 626.583c-37.013 28.902-135.885 16.736-164.787-20.277M286.616 626.583C197.323 622.03 70.213 481.26 74.766 391.968M286.616 626.583c-51.066-49.042-54.1-199.203-5.06-250.27M286.616 626.583c-40.61-14.56-79.684-97.32-65.123-137.93M286.616 626.583c-55.735 9.377-153.403-60.16-162.78-115.895M286.616 626.583c-36.94-30.484-46.623-131.62-16.14-168.56M286.616 626.583c-33.103-56.74 2.353-191.503 59.093-224.606M224.78 643.544c-9.328-45.114 44.35-126.78 89.465-136.107M224.78 643.544c-14.925-29.21 6.502-95.415 35.713-110.34M224.78 643.544c1.228-66.998 103.566-165.654 170.564-164.426M224.78 643.544c-15.83 1.96-42.517-18.843-44.478-34.673M224.78 643.544c-52.01-27.58-88.657-146.967-61.077-198.978M224.78 643.544c-28.038 13.143-89.81-9.2-102.95-37.238M224.78 643.544C144.462 623.232 54.454 472.286 74.766 391.968M224.78 643.544c-42.09-64.8-8.024-225.14 56.777-267.23M224.78 643.544c-31.635-30.32-33.608-123.255-3.287-154.89M224.78 643.544c-46.76-6.382-107.326-86.096-100.944-132.856M224.78 643.544c-27.965-46.243-.547-157.556 45.697-185.52M224.78 643.544c-24.127-72.5 48.43-217.44 120.93-241.567M314.245 507.437c-70.23-34.955-123.14-192.73-88.186-262.96" stroke-width="1.5"/><path d="M314.245 507.437c-5.597 15.904-37.848 31.363-53.752 25.766" stroke-width="3"/><path d="M314.245 507.437c10.556-21.884 59.215-38.875 81.1-28.32M314.245 507.437c-6.502 47.075-86.867 107.935-133.943 101.434M314.245 507.437c-42.682 17.534-133.008-20.188-150.542-62.87M314.245 507.437c-79.25-17.118-172.45-161.672-155.332-240.922M314.245 507.437c-18.71 58.257-134.16 117.578-192.416 98.87M314.245 507.437c-92.508-35.596-177.876-227.752-142.28-320.26M314.245 507.437c-70.99 24.802-214.677-44.48-239.48-115.47" stroke-width="1.5"/><path d="M314.245 507.437c-32.762-19.687-52.375-98.36-32.688-131.123M314.245 507.437c-22.307 14.794-77.958 3.524-92.752-18.784" stroke-width="3"/><path d="M314.245 507.437c-37.43 38.732-151.677 40.683-190.41 3.25" stroke-width="1.5"/><path d="M314.245 507.437c-18.636-1.13-44.897-30.778-43.768-49.414M314.245 507.437c-14.8-27.385 4.08-90.66 31.464-105.46" stroke-width="3"/><path d="M314.245 507.437c-11.967-50.24 45.442-143.553 95.683-155.52M226.06 244.478c-8.505-32.505 27.495-94.017 60-102.52M226.06 244.478c64.63 50.858 85.29 224.093 34.433 288.725M226.06 244.478c27.545 52.49-9.868 172.542-62.357 200.088M226.06 244.478C164.95 265.43 41.86 205.196 20.91 144.088" stroke-width="1.5"/><path d="M226.06 244.478c-9.023 17.836-49.31 31.058-67.147 22.037" stroke-width="4.5"/><path d="M226.06 244.478c-38.073 15.616-118.606-18.07-134.22-56.142M226.06 244.478c-22.28-.642-54.736-35.022-54.095-57.302" stroke-width="3"/><path d="M226.06 244.478c-.762 59.756-91.537 148.25-151.294 147.49" stroke-width="1.5"/><path d="M226.06 244.478c37.466 15.268 70.765 94.37 55.497 131.836" stroke-width="3"/><path d="M226.06 244.478c47.92 49.748 45.18 196.254-4.567 244.175M226.06 244.478c-55.97.79-141.11-81.98-141.9-137.95M226.06 244.478C158.1 251.486 45.652 160.062 38.643 92.105M226.06 244.478c32.796 73.687-28.537 233.413-102.224 266.21M226.06 244.478c51.59 33.825 78.242 161.952 44.417 213.545M226.06 244.478c-57.253-12.813-123.912-117.91-111.1-175.16M226.06 244.478c55.43 7.57 127.22 102.07 119.65 157.5M226.06 244.478c58.26-15.286 168.58 49.177 183.868 107.438M286.06 141.957c89.29 45.575 154.86 247.872 109.284 337.16M286.06 141.957c36.05 84.993-37.364 266.558-122.357 302.61M286.06 141.957c-52.604 53.456-211.694 54.735-265.15 2.132M286.06 141.957c-.518 50.34-76.806 125.075-127.147 124.558M286.06 141.957c-29.57 48.12-146.1 75.947-194.22 46.38M286.06 141.957c-13.775 31.862-82.232 58.994-114.095 45.22M286.06 141.957c7.743 92.26-119.033 242.267-211.294 250.01M286.06 141.957c45.97 47.772 43.27 188.386-4.503 234.357M286.06 141.957c-47.466 33.294-168.606 12.037-201.9-35.43M286.06 141.957c-59.454 39.512-207.903 9.6-247.416-49.852M286.06 141.957c40.84-21.848 134.874 6.64 156.722 47.482M286.06 141.957c-48.748 19.69-151.407-23.892-171.1-72.64" stroke-width="1.5"/><path d="M286.06 141.957c63.934 40.074 99.723 196.086 59.65 260.02" stroke-width="3"/><path d="M260.493 533.203c16.153-37.787 97.064-70.238 134.85-54.085M260.493 533.203c-.905 31.172-49.02 76.572-80.19 75.668M260.493 533.203c-37.085 1.63-95.16-51.552-96.79-88.637M260.493 533.203c-73.654-33.022-134.6-193.035-101.58-266.688M260.493 533.203c-13.112 42.353-96.31 86.215-138.664 73.103M260.493 533.203c-86.91-51.5-140.028-259.116-88.528-346.027M260.493 533.203C195.1 542.1 83.665 457.36 74.766 391.968" stroke-width="1.5"/><path d="M260.493 533.203c-27.165-35.59-14.527-129.724 21.064-156.89M260.493 533.203c-16.71-1.11-40.11-27.84-39-44.55" stroke-width="3"/><path d="M260.493 533.203c-31.834 22.828-113.83 9.32-136.657-22.515" stroke-width="1.5"/><path d="M260.493 533.203c-13.04-17.033-7.05-62.14 9.984-75.18M260.493 533.203c-9.202-43.288 41.928-122.024 85.216-131.226" stroke-width="3"/><path d="M260.493 533.203c-6.37-66.144 83.29-174.916 149.435-181.287M395.344 479.118c-17.058 68.96-146.083 146.81-215.042 129.753M395.344 479.118c-53.24 39.418-192.223 18.687-231.64-34.552M395.344 479.118C366.08 559.258 201.97 635.57 121.83 606.306M395.344 479.118c-81.545 46.685-273.892-5.605-320.578-87.15" stroke-width="1.5"/><path d="M395.344 479.118c-43.318 2.196-111.59-59.486-113.787-102.804" stroke-width="3"/><path d="M395.344 479.118c-32.863 36.677-137.174 42.4-173.85 9.535M395.344 479.118c-47.987 60.615-210.892 79.558-271.508 31.57M395.344 479.118c-48.448-67.424-19.985-241.23 47.438-289.68M395.344 479.118c-29.192 20.754-104.113 8.097-124.867-21.095" stroke-width="1.5"/><path d="M395.344 479.118c-25.355-5.5-55.136-51.786-49.635-77.14" stroke-width="3"/><path d="M180.302 608.87c-36.18-29.54-46.14-128.123-16.6-164.304M180.302 608.87c-12.207 11.182-47.292 9.643-58.473-2.564M180.302 608.87C115.815 586.598 52.492 456.457 74.766 391.97M180.302 608.87c-26.26-66.762 34.493-206.295 101.255-232.556M180.302 608.87c-15.805-32.28 8.91-104.41 41.19-120.217M180.302 608.87c-30.93-8.343-64.81-67.252-56.466-98.182M180.302 608.87c-12.134-48.204 41.97-138.712 90.175-150.847M180.302 608.87c-8.297-74.46 90.947-198.596 165.407-206.893M163.703 444.566c-36.568-34.652-39.442-141.483-4.79-178.05M163.703 444.566c23.973 40.723-1.152 137.767-41.874 161.74M163.703 444.566c-65.62-36.873-108.737-190.61-71.864-256.23M163.703 444.566c-28.307 7.268-81.67-24.29-88.937-52.598" stroke-width="1.5"/><path d="M163.703 444.566c9.92-37.22 80.633-78.172 117.854-68.252" stroke-width="3"/><path d="M163.703 444.566c20.375-2.74 55.05 23.712 57.79 44.087" stroke-width="1.5"/><path d="M163.703 444.566c5.25 21.198-18.67 60.87-39.867 66.122" stroke-width="3"/><path d="M163.703 444.566c24.046-18.663 88.11-10.59 106.774 13.457" stroke-width="1.5"/><path d="M163.703 444.566c27.883-44.92 137.087-70.472 182.006-42.59" stroke-width="3"/><path d="M20.91 144.09c52.086-3.117 134.888 70.34 138.003 122.425M20.91 144.09c23.035-5.338 65.592 21.21 70.93 44.246M20.91 144.09c38.83-21.595 129.462 4.258 151.055 43.086M20.91 144.09c60.347 38.803 92.66 187.53 53.856 247.878M20.91 144.09c5.138-20.163 43.088-42.7 63.25-37.562M20.91 144.09c-6.85-13.945 3.79-45.135 17.734-51.985M20.91 144.09c3.856-33.766 60.287-78.628 94.05-74.773" stroke-width="1.5"/><path d="M158.913 266.515c-29.05-2.22-69.295-49.128-67.074-78.18M158.913 266.515c-13.257-18.478-5.426-66.08 13.052-79.34" stroke-width="3"/><path d="M158.913 266.515c8.262 41.92-42.227 117.192-84.147 125.453" stroke-width="1.5"/><path d="M158.913 266.515c46.49-2.57 120.075 63.31 122.644 109.8" stroke-width="3"/><path d="M158.913 266.515c56.944 31.91 94.492 165.195 62.58 222.138M158.913 266.515c-46.948-17.047-91.8-113.04-74.753-159.987M158.913 266.515C99.978 255.685 27.816 151.04 38.643 92.105M158.913 266.515c41.82 55.85 20.773 202.354-35.077 244.173M158.913 266.515c60.615 15.99 127.553 130.894 111.564 191.508M158.913 266.515c-48.23-30.65-74.6-148.968-43.952-197.198M158.913 266.515c64.452-10.267 176.53 71.01 186.796 135.462M158.913 266.515c67.283-33.123 217.892 18.118 251.015 85.4M121.83 606.306C69.55 572.85 41.31 444.248 74.765 391.968M121.83 606.306c-14.054-77.944 81.783-215.94 159.727-229.992M121.83 606.306c-3.6-43.464 56.2-114.055 99.663-117.653M121.83 606.306c-18.723-19.525-17.52-76.896 2.006-95.618M121.83 606.306c.072-59.386 89.26-148.356 148.647-148.283M121.83 606.306c3.91-85.642 138.237-208.24 223.88-204.33M91.84 188.336c15.792-16.257 63.868-16.953 80.125-1.16M91.84 188.336c37.31 44.14 27.067 166.32-17.074 203.632M91.84 188.336c75.538-.348 189.37 112.44 189.717 187.978M91.84 188.336c-17.9-14.826-22.506-63.91-7.68-81.808M91.84 188.336c-29.887-8.607-61.803-66.346-53.196-96.23M91.84 188.336c70.87 58.07 90.067 251.482 31.996 322.352M91.84 188.336c-19.18-28.428-5.307-99.84 23.12-119.02M171.965 187.176c21.52 60.4-36.8 183.273-97.2 204.792M171.965 187.176c59.746 15.91 125.5 129.392 109.592 189.138M171.965 187.176c70.2 50.39 99.918 231.277 49.528 301.477M171.965 187.176c-33.69 1.432-86.374-46.957-87.805-80.648M171.965 187.176c-45.678 7.65-125.67-49.393-133.32-95.07M171.965 187.176c73.872 34.467 132.98 196.975 98.512 270.847M171.965 187.176c-34.972-12.17-69.175-82.886-57.004-117.86M171.965 187.176c77.71 8.212 181.955 137.092 173.744 214.8M171.965 187.176c80.54-14.644 223.318 84.2 237.963 164.74M74.766 391.968c38.228-44.49 162.302-53.88 206.79-15.654M74.766 391.968c48.683-10.008 136.72 48.003 146.727 96.685M74.766 391.968C19.556 333 25.193 161.738 84.16 106.528M74.766 391.968C7.57 339.22-14.104 159.302 38.644 92.105M74.766 391.968c33.558 13.93 63 85.162 49.07 118.72M74.766 391.968c52.353-25.93 169.78 13.702 195.71 66.055M74.766 391.968c-56.49-72.57-32.374-266.16 40.195-322.65M74.766 391.968c56.19-52.187 218.756-46.18 270.943 10.01" stroke-width="1.5"/><path d="M281.557 376.314c10.455 34.48-25.584 101.885-60.064 112.34M281.557 376.314c-4.67 58.42-99.302 139.044-157.72 134.374" stroke-width="3"/><path d="M281.557 376.314c-5.13-69.62 91.605-181.745 161.225-186.875" stroke-width="1.5"/><path d="M281.557 376.314c14.126 18.558 7.478 67.583-11.08 81.71" stroke-width="3"/><path d="M281.557 376.314c17.963-7.697 56.454 7.7 64.152 25.663" stroke-width="4.5"/><path d="M281.557 376.314c20.795-30.553 97.817-45.192 128.37-24.398M221.493 488.653c-15.125 23.94-73.72 37.16-97.657 22.035" stroke-width="1.5"/><path d="M221.493 488.653c3.67-15.922 33.06-34.3 48.984-30.63M221.493 488.653C229 446.475 303.53 394.47 345.71 401.977" stroke-width="3"/><path d="M221.493 488.653c10.34-65.034 123.4-147.076 188.435-136.737M84.16 106.528c-11.988 6.218-39.297-2.436-45.516-14.423M84.16 106.528c-1.282-13.602 17.2-35.93 30.8-37.21M38.644 92.105C49.35 72.285 95.14 58.612 114.96 69.317M123.836 510.688c18.795-39.86 106.78-71.46 146.64-52.665M123.836 510.688c22.632-66.117 155.756-131.343 221.873-108.71M442.782 189.44c23.093 61.922-35.15 189.444-97.073 212.537" stroke-width="1.5"/><path d="M270.477 458.023c3.837-26.256 48.976-59.883 75.232-56.046" stroke-width="3"/><path d="M270.477 458.023c6.67-49.112 90.34-112.776 139.45-106.107M345.71 401.977c2.83-22.856 41.362-52.892 64.218-50.06" stroke-width="1.5"/></g><g transform="translate(14)" fill="#F3BC4C"><circle cx="368.589" cy="17.101" r="5"/><circle cx="24.436" cy="324.874" r="16.765"/><circle cx="212.881" cy="98.478" r="7.353"/><circle cx="285.796" cy="302.052" r="6.176"/><circle cx="359.981" cy="227.226" r="6.176"/><circle cx="518.02" cy="89.324" r="5"/><circle cx="445.232" cy="225.745" r="7.353"/><circle cx="210.278" cy="350.83" r="19.118"/><circle cx="272.616" cy="626.583" r="6.176"/><circle cx="210.78" cy="643.544" r="6.176"/><circle cx="300.245" cy="507.437" r="7.353"/><circle cx="212.059" cy="244.478" r="15.588"/><circle cx="272.06" cy="141.957" r="21.471"/><circle cx="246.493" cy="533.203" r="8.529"/><circle cx="381.344" cy="479.118" r="6.176"/><circle cx="166.302" cy="608.871" r="6.176"/><circle cx="149.703" cy="444.566" r="9.706"/><circle cx="6.91" cy="144.089" r="6.176"/><circle cx="144.913" cy="266.515" r="22.647"/><circle cx="107.829" cy="606.306" r="6.176"/><circle cx="77.839" cy="188.336" r="6.176"/><circle cx="273.463" cy="6.696" r="6.176"/><circle cx="157.965" cy="187.176" r="9.706"/><circle cx="60.766" cy="391.968" r="8.529"/><circle cx="267.557" cy="376.314" r="8.529"/><circle cx="207.493" cy="488.653" r="8.529"/><circle cx="70.16" cy="106.528" r="7.353"/><circle cx="24.644" cy="92.105" r="5"/><circle cx="109.836" cy="510.688" r="7.353"/><circle cx="428.782" cy="189.439" r="5"/><circle cx="256.477" cy="458.023" r="12.059"/><circle cx="100.961" cy="69.317" r="5"/><circle cx="558.632" cy="166.047" r="5"/><circle cx="452.196" cy="44.774" r="5"/><circle cx="331.709" cy="401.977" r="25"/><circle cx="395.928" cy="351.916" r="10.882"/></g><g font-size="11.947" font-family="Roboto-Bold, Roboto" fill="#363633" font-weight="bold"><text transform="translate(1 -2)"><tspan x="353.942" y="21.76">AUSTRALIA</tspan></text><text transform="translate(1 -2)"><tspan x="14.042" y="329.431">AUSTRIA</tspan></text><text transform="translate(1 -2)"><tspan x="199.687" y="103.831">BELGIUM</tspan></text><text transform="translate(1 -2)"><tspan x="231.127" y="307.405">BOSNIA AND HERZEGOVINA</tspan></text><text transform="translate(1 -2)"><tspan x="346.976" y="232.579">BULGARIA</tspan></text><text transform="translate(1 -2)"><tspan x="506.463" y="93.984">CANADA</tspan></text><text transform="translate(1 -2)"><tspan x="434.771" y="230.301">CROATIA</tspan></text><text transform="translate(1 -2)"><tspan x="180.12" y="356.166">CZECH REPUBLIC</tspan></text><text transform="translate(1 -2)"><tspan x="257.248" y="631.242">DENMARK</tspan></text><text transform="translate(1 -2)"><tspan x="198.98" y="648.101">ESTONIA</tspan></text><text transform="translate(1 -2)"><tspan x="290.105" y="512.132">FINLAND</tspan></text><text transform="translate(1 -2)"><tspan x="203.469" y="249.173">FRANCE</tspan></text><text transform="translate(1 -2)"><tspan x="256.686" y="146.587">GERMANY</tspan></text><text transform="translate(1 -2)"><tspan x="236.624" y="537.814">GREECE</tspan></text><text transform="translate(1 -2)"><tspan x="368.022" y="484.489">HUNGARY</tspan></text><text transform="translate(1 -2)"><tspan x="154.884" y="613.53">ICELAND</tspan></text><text transform="translate(1 -2)"><tspan x="139.881" y="449.225">IRELAND</tspan></text><text transform="translate(1 -2)"><tspan x=".571" y="148.748">ISRAEL</tspan></text><text transform="translate(1 -2)"><tspan x="142.279" y="271.886">ITALY</tspan></text><text transform="translate(1 -2)"><tspan x="93.104" y="610.965">LITHUANIA</tspan></text><text transform="translate(1 -2)"><tspan x="54.607" y="193.689">LUXEMBOURG</tspan></text><text transform="translate(1 -2)"><tspan x="266.157" y="11.356">MALTA</tspan></text><text transform="translate(1 -2)"><tspan x="134.661" y="191.836">NETHERLANDS</tspan></text><text transform="translate(1 -2)"><tspan x="49.74" y="396.598">NORWAY</tspan></text><text transform="translate(1 -2)"><tspan x="257.171" y="381.65">POLAND</tspan></text><text transform="translate(1 -2)"><tspan x="193.4" y="494.007">PORTUGAL</tspan></text><text transform="translate(1 -2)"><tspan x="56.389" y="111.085">ROMANIA</tspan></text><text transform="translate(1 -2)"><tspan x="16.175" y="96.764">SERBIA</tspan></text><text transform="translate(1 -2)"><tspan x="96.246" y="515.347">SLOVAKIA</tspan></text><text transform="translate(1 -2)"><tspan x="415.206" y="194.099">SLOVENIA</tspan></text><text transform="translate(1 -2)"><tspan x="249.993" y="463.256">SPAIN</tspan></text><text transform="translate(1 -2)"><tspan x="88.246" y="73.977">SWEDEN</tspan></text><text transform="translate(1 -2)"><tspan x="536.183" y="170.707">SWITZERLAND</tspan></text><text transform="translate(1 -2)"><tspan x="443.913" y="50.146">TURKEY</tspan></text><text transform="translate(1 -2)"><tspan x="298.42" y="407.33">UNITED KINGDOM</tspan></text><text transform="translate(1 -2)"><tspan x="394.305" y="355.834">USA</tspan></text></g></g></svg>