<svg id="not_gruped" data-name="not gruped" xmlns="http://www.w3.org/2000/svg" viewBox="0 0 900 900"><defs><style>.cls-1, .cls-2, .cls-3 { fill: none; opacity: 0.75; } .cls-1 { stroke: #999; stroke-width: 0.5px; } .cls-2 { stroke: #7f7f7f; stroke-width: 3px; } .cls-3 { stroke: #4d4c4c; stroke-width: 6px; } .cls-4 { fill: #f3bc4c; } .cls-5 { isolation: isolate; font-size: 12px; fill: #4d4d4d; font-family: Roboto; font-weight: 700; } .cls-6 { letter-spacing: -1px; }</style></defs><title>net-ver-2</title><path class="cls-1" d="M599.994 724.617c-97.072 58.453-330.36.526-388.812-96.546M599.994 724.617c-46.52 51.606-193.707 59.234-245.313 12.715M599.994 724.617c-86.84-115.7-43.547-419.51 72.153-506.348M599.994 724.617C450.214 639.63 353.028 287.48 438.016 137.7M599.994 724.617c-121.508 50.7-379.82-55.514-430.52-177.022M599.994 724.617c-57.84 55.876-228.412 52.932-284.29-4.908M599.994 724.617C453.877 757.437 185.47 587.49 152.65 441.374M599.994 724.617c-9.63 19.823-53.812 35.112-73.635 25.48M599.994 724.617c4.23-36.412 65.194-84.686 101.606-80.456M599.994 724.617c-113.156-110.454-117.21-445.868-6.755-559.023M599.994 724.617c-70.537 58.682-264.366 40.9-323.05-29.637M599.994 724.617C438.54 735.782 179.61 510.35 168.446 348.9M599.994 724.617c-9.8-76.278 89.925-205.39 166.2-215.186M599.994 724.617c-133.486 43.627-399.155-91.16-442.782-224.647M599.994 724.617c-36.664 46.3-161.112 60.76-207.414 24.1M599.994 724.617c-17.126-85.9 86.04-240.447 171.944-257.573M599.994 724.617c-3.1-64.086 88.38-164.865 152.466-167.965M599.994 724.617C564.86 623.09 664.452 418.1 765.978 382.97M599.994 724.617c-169.658-41.817-361.42-359.03-319.6-528.688M599.994 724.617c4.31-20.693 41.818-45.266 62.512-40.954M599.994 724.617c1.585-50.99 80.445-125.1 131.435-123.51M599.994 724.617C442.534 650.124 318.087 302.2 392.58 144.737M599.994 724.617c-18.747 31.5-94.12 50.63-125.62 31.884M474.374 756.5c-78.324 26.952-236.24-50.105-263.192-128.43M474.374 756.5c-27.772 20.1-99.588 8.6-119.693-19.17M474.374 756.5c-8.817 8.285-34.47 7.488-42.754-1.33M474.374 756.5c-102.76 19.2-285.7-106.145-304.9-208.907M474.374 756.5c-39.092 24.375-134.293 2.3-158.67-36.792M474.374 756.5c9.116-11.678 40.307-15.52 51.985-6.4M474.374 756.5c-145.112-93.643-222.313-451.778-128.67-596.89M474.374 756.5C497.35 688.587 633.687 621.183 701.6 644.16M474.374 756.5C379.966 614.547 451.284 260 593.24 165.594M474.374 756.5C331.667 736.166 148.11 491.6 168.446 348.9M474.374 756.5c8.95-107.778 184.044-256.02 291.822-247.07M474.374 756.5C476 639.1 654.534 465.423 771.938 467.044M474.374 756.5c-150.91-73.318-267.3-409.66-193.983-560.572M474.374 756.5c-38.8-143.49 118.23-416.93 261.72-455.732M474.374 756.5C323.82 712.7 163.684 421.18 207.48 270.625M711.5 261.924c-26.835 173.293-327.025 392.98-500.318 366.147M711.5 261.924c-16.6-.86-40.213-27.053-39.352-43.654M711.5 261.924c-79.542 29.852-243.632-44.68-273.484-124.224M711.5 261.924c-75.88 147.66-411.19 255.33-558.85 179.45M711.5 261.924c74.468 78.427 68.528 307.77-9.9 382.238M711.5 261.924c-42.918 4.386-113.874-53.412-118.26-96.33M711.5 261.924C648.25 420.39 315.678 563.218 157.212 499.97M711.5 261.924c67.138 50.754 91.714 227.59 40.96 294.73M711.5 261.924c74.55 94.147 45.153 347.19-48.994 421.74M711.5 261.924C649 276.417 533.5 204.4 519.01 141.9M711.5 261.924c-99.064 102.544-401.476 107.765-504.02 8.7M207.48 270.625c72.23 70.75 74.45 285.217 3.7 357.447M207.48 270.625c141.737 52.08 276.22 342.81 224.14 484.547M207.48 270.625C227 197.933 365.324 118.18 438.016 137.7M207.48 270.625c56.146-98.158 287.6-161.177 385.76-105.03M207.48 270.625c7.847 23.46-15.573 70.424-39.034 78.27M207.48 270.625c35.815 55.923 5.655 193.53-50.268 229.345M207.48 270.625c152.176-73.608 490.85 44.244 564.458 196.42M207.48 270.625c134.17-89.23 469.268-21.823 558.5 112.346M207.48 270.625c-.357-29.52 43.39-74.338 72.912-74.7M207.48 270.625c36.56-88.052 223.48-165.287 311.53-128.725M207.48 270.625c111.752-99.695 428.92-81.608 528.615 30.144M736.095 300.77c-39.522 170.442-354.47 366.824-524.913 327.3M736.095 300.77c29.986 151.775-152.7 424.417-304.474 454.4M736.095 300.77c47.92 131.812-77.923 401.41-209.736 449.33M736.095 300.77c40.424 26.085 61.93 125.85 35.843 166.274M736.095 300.77c22.417 10.463 40.347 59.784 29.883 82.2M736.095 300.77C660.9 312.41 530.653 217.09 519.01 141.9M519.01 141.9c86.22 151.952-12.377 509.212-164.33 595.432M519.01 141.9c105.177 140.132 52.743 508.1-87.39 613.272M519.01 141.9c-17.038 15.36-65.635 12.84-80.994-4.2M519.01 141.9c11.232 151.046-198.49 394.463-349.535 405.7M519.01 141.9c74.9 156.223-47.082 502.91-203.3 577.81M519.01 141.9c19.585-10.107 64.122 4.11 74.23 23.694M519.01 141.9c62.2 159.03-83.036 490.877-242.065 553.08M519.01 141.9c122.944 24.07 271.255 244.588 247.19 367.53M519.01 141.9c-.746 143.974-217.825 358.816-361.8 358.07M519.01 141.9c96.077 146.65 20.22 510.736-126.43 606.813M519.01 141.9c134.325 49.358 261.776 324.882 212.42 459.207M519.01 141.9c-24.718 25.853-100.576 27.556-126.43 2.838M392.58 144.737c60.387 132.947-48.452 422.947-181.4 483.334M392.58 144.737c70.62-41.207 238.36 2.912 279.567 73.532M392.58 144.737c7.68-10.494 34.94-14.716 45.435-7.036M392.58 144.737c11.34 107.313-132.616 285.3-239.93 296.637M392.58 144.737C540.408 239.053 620.676 602.27 526.36 750.1M392.58 144.737c-6.4 12.35-34.525 21.274-46.875 14.874M392.58 144.737c86.92 133.175 17.54 463.32-115.635 550.243M392.58 144.737C416.553 262.857 275.332 476 157.212 499.97M392.58 144.737c120.8 120.8 120.8 483.18 0 603.975M392.58 144.737c140.333-11.41 367.948 181.974 379.358 322.307M392.58 144.737c154.36 10.407 370.287 257.556 359.88 411.915M392.58 144.737c161.77 53.8 323.726 377.155 269.926 538.926M392.58 144.737c159.044 23.5 362.353 297.326 338.848 456.37M731.43 601.106c-98.657 109.442-410.8 125.62-520.248 26.965M731.43 601.106C643 536.4 607.435 306.693 672.146 218.27M731.43 601.106c-151.365-34-327.412-312.04-293.414-463.4M731.43 601.106c-147.7 83.81-494.97-12.03-578.78-159.732M731.43 601.106C720.212 671.92 597.17 761.313 526.36 750.1M731.43 601.106c-165.445-11.154-396.88-276.052-385.724-441.5M731.43 601.106c-72.123 109.67-344.813 166-454.484 93.874M731.43 601.106C596.357 695.722 251.83 635.04 157.21 499.97M731.43 601.106C693.18 698.4 489.87 786.96 392.58 748.712M731.43 601.106c-18.712-34.914 5.6-115.352 40.508-134.062M731.43 601.106c-4.686-13.1 7.933-39.77 21.03-44.454M731.43 601.106c2.726 30.3-38.628 79.83-68.924 82.556M662.506 683.662c-154.09-64.294-288.785-391.87-224.49-545.962M662.506 683.662c-168.17-41.45-358.25-355.882-316.8-524.052M662.506 683.662c-.08-15.72 23.375-39.42 39.094-39.5M662.506 683.662c-74.85 79.376-306.185 86.166-385.56 11.317M662.506 683.662c-165.765 31.86-462.2-169-494.06-334.766M662.506 683.662c-137.8 64.32-440.974-45.9-505.294-183.693M662.506 683.662c-40.975 67-202.93 106.025-269.926 65.05M662.506 683.662c-21.437-65.21 44.222-195.18 109.432-216.618M662.506 683.662C488.536 662.54 259.268 369.9 280.39 195.93M280.39 195.93c72.587 100.27 31.062 359.554-69.208 432.14M280.39 195.93c123.14 93.422 167.713 418.263 74.29 541.4M280.39 195.93c82.82-73.884 317.874-60.48 391.757 22.34M280.39 195.93c19.88-43.17 114.455-78.108 157.625-58.23M280.39 195.93c48.15 92.515-18.4 303.514-110.916 351.664M280.39 195.93c111.82 97.693 133.01 411.96 35.315 523.78M280.39 195.93c23.542 74.636-53.1 221.9-127.74 245.443M280.39 195.93c5.8-20.328 44.988-42.12 65.315-36.32M280.39 195.93c159.863-34.46 451.346 153.64 485.81 313.5M280.39 195.93c36.173 85.443-37.735 267.867-123.18 304.04M280.39 195.93c166.56-22.27 449.8 194.164 472.07 360.722M280.39 195.93c134.527-59.71 425.88 52.515 485.588 187.04M765.978 382.97C754.59 536.1 507.813 748.72 354.68 737.332M765.978 382.97c7.57 141.312-193.046 364.633-334.358 372.2M765.978 382.97C679.6 535.2 321.7 633.97 169.475 547.595M765.978 382.97c-22.707 157.4-292.87 359.446-450.273 336.74M765.978 382.97c25.502 121.35-118.27 341.63-239.62 367.13M765.978 382.97c-128.726 39.383-380.89-94.633-420.273-223.36M765.978 382.97c39.363 65.114.736 221.828-64.378 261.19M765.978 382.97c-78.023-8.928-181.666-139.353-172.74-217.376M765.978 382.97c-126.32 112.692-484.84 92.247-597.532-34.07M765.978 382.97c25.336 25.25 25.467 101.125.218 126.46M765.978 382.97c-98.353 145.153-463.613 215.353-608.766 117M765.978 382.97c18.007 15.623 21.583 66.067 5.96 84.074M752.46 556.652C605.78 535.752 417.114 284.38 438.016 137.7M752.46 556.652C591.7 558.595 347.648 320.37 345.705 159.61M752.46 556.652c7.33 27.674-23.186 80.18-50.86 87.51M752.46 556.652c-67.438 122.77-352.746 205.765-475.515 138.328M752.46 556.652C594.106 631.9 243.7 507.25 168.446 348.9M752.46 556.652c-130.386 107.713-487.535 73.7-595.248-56.682M752.46 556.652C718.9 667.04 502.968 782.276 392.58 748.712M752.46 556.652c-14.026-21.817-2.34-75.582 19.478-89.608M771.938 467.044c-69.713-29.8-129.588-179.062-99.79-248.775M771.938 467.044C761.5 592.734 557.308 765.61 431.62 755.172M771.938 467.044c-132.653.916-333.006-196.69-333.922-329.343M771.938 467.044c-128.99 118.723-500.564 103.32-619.287-25.67M771.938 467.044C625.2 490.8 369.465 306.344 345.705 159.61M771.938 467.044C718.528 611.63 421.53 748.39 276.945 694.98M771.938 467.044c-116.36 129.53-485.2 149.286-614.726 32.926M771.938 467.044C752.4 599.25 524.785 768.25 392.58 748.712M392.58 748.712c-60.408 12.15-169.247-60.233-181.4-120.64M392.58 748.712c-50.175-162 117.565-480.268 279.567-530.443M392.58 748.712c-113.115-131.29-85.854-497.9 45.435-611.01M392.58 748.712C283.127 735.23 139.17 550.827 152.65 441.374M392.58 748.712c27.033-26.48 107.3-25.647 133.78 1.386M392.58 748.712c-127.2-108.445-155.32-461.906-46.875-589.1M392.58 748.712c-33.873 12.38-103.254-19.86-115.635-53.732M392.58 748.712c-96.822-2.675-238.043-151.92-235.37-248.742M157.212 499.97c46.647-159.327 355.608-328.348 514.936-281.7M157.212 499.97c-12.63-10.807-15.368-45.965-4.56-58.6M157.212 499.97c-30.374-105.77 82.723-309.986 188.493-340.36M157.212 499.97c20.33-154.08 281.947-354.707 436.027-334.376M157.212 499.97C220.16 515.025 292 632.03 276.945 694.98M157.212 499.97c-27.968-32.462-21.228-123.106 11.234-151.074M766.2 509.43c-36.723 127.884-283.632 264.624-411.515 227.9M766.2 509.43C654.485 636.41 296.452 659.307 169.475 547.596M766.2 509.43c-48.043 132.155-318.337 258.32-450.49 210.28M766.2 509.43c-154.066 14.135-406.36-195.757-420.495-349.82M766.2 509.43c14.027 39.866-24.73 120.7-64.6 134.73M766.2 509.43c-103.363-34.175-207.137-240.477-172.96-343.836M766.2 509.43c-151.66 87.445-510.31-8.877-597.754-160.53M168.446 348.9c64.382 47.288 90.024 214.793 42.736 279.175M168.446 348.9C283.38 389.34 395.122 622.4 354.68 737.336M168.446 348.9c74.615-126.866 376.836-205.242 503.7-130.627M168.446 348.9c11.675-96.153 173.417-222.87 269.57-211.195M168.446 348.9c39.945 39.534 40.563 158.753 1.03 198.7M168.446 348.9c103.615 44.71 191.97 267.2 147.26 370.813M168.446 348.9c15.337 21.655 5.86 77.14-15.795 92.478M168.446 348.9c-2.406-73.313 103.954-186.884 177.26-189.29M276.945 694.98c-26.534-.23-65.993-40.374-65.764-66.91M276.945 694.98c-16.3-174.382 220.82-460.41 395.2-476.71M276.945 694.98c-79.245-143.67 17.4-478.037 161.07-557.28M276.945 694.98c-75.58-25.862-150.157-178.026-124.295-253.606M276.945 694.98c60.906-38.86 210.555-5.788 249.414 55.118M276.945 694.98c-93.322-120.826-52.066-442.047 68.76-535.37M593.24 165.594c66.635 162.06-76.5 505.1-238.56 571.738M593.24 165.594c-36.624 25.466-129.758 8.73-155.224-27.892M593.24 165.594c-8.354 161.153-262.612 390.354-423.765 382M593.24 165.594c55.315 166.33-111.2 498.8-277.535 554.116M593.24 165.594c103.524 130.277 63.4 480.98-66.88 584.5M593.24 165.594c-50.7 48.31-199.225 44.72-247.535-5.983M593.24 165.594c117.385 74.04 182.4 361.182 108.36 478.568M701.6 644.16c-101.3 94.867-395.553 85.213-490.418-16.09M701.6 644.16c-50.75 88.02-258.9 143.92-346.92 93.172M701.6 644.16c-91.07-79.287-108.74-334.822-29.453-425.89M701.6 644.16c-125.738 87.113-445.014 29.173-532.126-96.566M701.6 644.16c-62.07 92.29-293.606 137.618-385.895 75.55M701.6 644.16c-150.347 69.233-479.717-52.44-548.95-202.786M701.6 644.16c-13.86 56.24-119.005 119.8-175.24 105.94M701.6 644.16C533.51 618.43 319.974 327.7 345.705 159.61M345.705 159.61c66.787 120.6-13.927 401.673-134.523 468.46M345.705 159.61c117.34 113.75 122.725 460.382 8.976 577.722M345.705 159.61c77.02-53.557 272.885-18.36 326.442 58.66M345.705 159.61c14.08-22.844 69.466-35.99 92.31-21.91M345.705 159.61c42.35 112.843-63.388 345.633-176.23 387.984M345.705 159.61c106.02 118.02 88.02 454.08-30 560.1M345.705 159.61c17.742 94.964-98.09 264.022-193.054 281.763M345.705 159.61c154.23 81.967 262.62 436.26 180.654 590.49M526.36 750.1c-17.934 19.963-74.777 23.007-94.74 5.074M152.65 441.374C148.99 323.566 320.21 141.364 438.017 137.7M315.705 719.71c11.32-4.272 34.705 6.3 38.976 17.62M315.705 719.71c-63.67-5.178-151.405-108.446-146.23-172.115M169.475 547.595c74.99.906 186.113 114.748 185.207 189.737M438.016 137.7c52.707 143.44-83.393 437.663-226.834 490.37M438.016 137.7c62.94-30.713 203.42 17.628 234.132 80.568M431.62 755.172c-69.508 18.667-201.77-57.593-220.438-127.1"/><path class="cls-2" d="M599.994 724.617c-163.86-62.144-316.432-401.147-254.29-565.007M599.994 724.617C467.254 624.27 418.664 274.64 519.01 141.9M474.374 756.5c-16.385-133.027 158.577-357.146 291.6-373.53M474.374 756.5C360.38 624.654 387.162 255.893 519.01 141.9M711.5 261.924c60.607 134.663-50.477 427.568-185.14 488.174M711.5 261.924C620.283 387.93 294.45 440.112 168.446 348.9M711.5 261.924c-99.42 73.023-358.085 33.426-431.108-65.994M207.48 270.625c159.67 32.12 351 319.8 318.88 479.473M519.01 141.9c45.9-15.353 137.784 30.468 153.137 76.37M519.01 141.9c-13.377 133.166-233.192 312.85-366.36 299.474M519.01 141.9c-31.12 38.2-135.1 48.83-173.3 17.71M519.01 141.9c136.97 63.934 246.524 365.29 182.59 502.26M519.01 141.9c-28.71 111.512-239.052 235.71-350.564 207M519.01 141.9c115.615 14.443 267.37 209.53 252.928 325.145M519.01 141.9c129.64 36.26 269.71 285.112 233.45 414.752M519.01 141.9c97.608-1.18 245.79 143.462 246.968 241.07M519.01 141.9c-36.918 58.53-180.09 90.948-238.62 54.03M519.01 141.9c137.052 79.653 223.15 404.71 143.5 541.763M662.506 683.662c-101.383 79.147-372.177 45.792-451.324-55.59M662.506 683.662c-91.15-95.007-85.366-374.243 9.64-465.393M662.506 683.662C512.076 737.176 206.164 591.8 152.65 441.374M662.506 683.662c-13.942 40.516-95.63 80.378-136.147 66.435M662.506 683.662c-7.41-43.393 46.56-119.6 89.954-127.01M280.39 195.93C440.42 257.57 588 590.07 526.36 750.1M280.39 195.93C454.28 201.333 707 470.272 701.6 644.16M280.39 195.93c56.5-68.638 244.212-86.84 312.85-30.337M765.978 382.97c-61.94 159.98-394.817 307.04-554.8 245.1M752.46 556.652c-93.972 122.54-418.738 165.39-541.278 71.42M752.46 556.652c-83.74-51.614-131.927-254.644-80.313-338.383M752.46 556.652c-143.017 96.906-502.9 27.74-599.81-115.278M752.46 556.652c-6.53 83.91-142.19 199.977-226.1 193.446M771.938 467.044C691.992 611.4 355.538 708.017 211.182 628.07M771.938 467.044C779.433 572.77 632.086 742.6 526.358 750.1M157.212 499.97c36.414 14.826 68.8 91.687 53.97 128.1M157.212 499.97C140.92 371.355 309.4 153.994 438.016 137.7M157.212 499.97c123.855-23.8 345.344 126.273 369.148 250.128M168.446 348.9c151.823 8.658 366.57 249.38 357.914 401.2M168.446 348.9C334.13 301.318 654.022 478.477 701.6 644.16M168.446 348.9c48.3-121.62 303.174-231.6 424.793-183.3M526.36 750.1c-77.21-135.523 10.264-454.62 145.787-531.83M526.36 750.1c-140.15-104.813-193.155-472.25-88.344-612.4M526.36 750.1c-136.487 13-360.713-172.238-373.71-308.724M152.65 441.374c49.047 25.633 84.165 137.652 58.532 186.7M152.65 441.374c59.28-148.52 370.977-282.383 519.5-223.1M672.147 218.27c-10.232 174.153-286.812 420.03-460.965 409.8"/><path class="cls-3" d="M519.01 141.9c35.67 158.8-149.028 450.5-307.828 486.172M519.01 141.9c123.11 120.17 127.52 485.09 7.35 608.2M280.39 195.93c8.2 52.98-58.962 144.76-111.945 152.966M526.36 750.1c-87.442 38.63-276.548-34.586-315.178-122.027"/><circle class="cls-4" cx="599.994" cy="724.617" r="27.647"/><circle class="cls-4" cx="474.374" cy="756.501" r="13.529"/><circle class="cls-4" cx="711.499" cy="261.924" r="11.765"/><circle class="cls-4" cx="207.48" cy="270.625" r="11.765"/><circle class="cls-4" cx="736.095" cy="300.769" r="13.529"/><circle class="cls-4" cx="519.01" cy="141.899" r="31.176"/><circle class="cls-4" cx="392.58" cy="144.737" r="11.765"/><circle class="cls-4" cx="731.429" cy="601.106" r="11.765"/><circle class="cls-4" cx="662.506" cy="683.662" r="13.529"/><circle class="cls-4" cx="280.391" cy="195.929" r="25.882"/><circle class="cls-4" cx="752.46" cy="556.652" r="15.294"/><circle class="cls-4" cx="771.938" cy="467.044" r="11.765"/><circle class="cls-4" cx="392.58" cy="748.712" r="11.765"/><circle class="cls-4" cx="157.212" cy="499.97" r="17.059"/><circle class="cls-4" cx="766.196" cy="509.431" r="11.765"/><circle class="cls-4" cx="168.446" cy="348.896" r="36.471"/><circle class="cls-4" cx="276.945" cy="694.98" r="11.765"/><circle class="cls-4" cx="593.239" cy="165.594" r="11.765"/><circle class="cls-4" cx="701.6" cy="644.161" r="17.059"/><circle class="cls-4" cx="345.705" cy="159.61" r="15.294"/><circle class="cls-4" cx="526.359" cy="750.098" r="15.294"/><circle class="cls-4" cx="152.651" cy="441.374" r="15.294"/><circle class="cls-4" cx="315.705" cy="719.709" r="13.529"/><circle class="cls-4" cx="169.475" cy="547.595" r="10"/><circle class="cls-4" cx="438.016" cy="137.701" r="13.529"/><circle class="cls-4" cx="431.62" cy="755.172" r="10"/><circle class="cls-4" cx="672.147" cy="218.269" r="20.588"/><circle class="cls-4" cx="354.681" cy="737.332" r="10"/><circle class="cls-4" cx="627.987" cy="184.525" r="10"/><circle class="cls-4" cx="231.991" cy="239.559" r="10"/><circle class="cls-4" cx="211.182" cy="628.071" r="40"/><circle class="cls-4" cx="765.978" cy="382.97" r="34.706"/><text class="cls-5" transform="translate(627.64 749.024)">A<tspan x="8.575" y="0">USTR</tspan><tspan x="41.332" y="0">I</tspan><tspan x="45.536" y="0">A</tspan></text><text class="cls-5" transform="translate(447.267 785.375)">BE<tspan x="15.608" y="0">L</tspan><tspan x="22.331" y="0">GIUM</tspan></text><text class="cls-5" transform="translate(728.264 254.798)">BOSN<tspan x="34.193" y="0">I</tspan><tspan x="38.396" y="0">A AND</tspan><tspan x="0" y="14.4">HERZEG</tspan><tspan x="48.682" y="14.4">O</tspan><tspan x="57.438" y="14.4">VI</tspan><tspan x="69.982" y="14.4">N</tspan><tspan x="79.16" y="14.4">A</tspan></text><text class="cls-5" transform="translate(129.25 271.5)">BU<tspan x="16.757" y="0">L</tspan><tspan x="23.479" y="0">GAR</tspan><tspan x="49.186" y="0">I</tspan><tspan x="53.39" y="0">A</tspan></text><text class="cls-5" transform="translate(754.625 304.96)">CR<tspan x="16.71" y="0">O</tspan><tspan x="25.472" y="0">A</tspan><tspan x="33.443" y="0">T</tspan><tspan x="41.467" y="0">I</tspan><tspan x="45.67" y="0">A</tspan></text><text class="cls-5" transform="translate(547.096 118.76)">CZECH REPUBLIC</text><text class="cls-5" transform="translate(331.992 126.89)">DEN<tspan x="24.821" y="0">M</tspan><tspan x="36.039" y="0">ARK</tspan></text><text class="cls-5" transform="translate(748.194 605.298)">ES<tspan x="15.327" y="0">T</tspan><tspan x="23.187" y="0">ON</tspan><tspan x="41.145" y="0">I</tspan><tspan x="45.348" y="0">A</tspan></text><text class="cls-5" transform="translate(681.036 698.97)">FIN<tspan x="20.345" y="0">L</tspan><tspan x="27.554" y="0">AND</tspan></text><text class="cls-5" transform="translate(202.674 181.09)">FRANCE</text><text class="cls-5" transform="translate(772.754 560.844)">GREECE</text><text class="cls-5" transform="translate(788.34 471.817)">HUNGA<tspan x="44.098" y="0">R</tspan><tspan x="52.075" y="0">Y</tspan></text><text class="cls-5" transform="translate(324.387 761.87)">ICE<tspan x="19.899" y="0">L</tspan><tspan x="27.109" y="0">AND</tspan></text><text class="cls-5" transform="translate(82.69 504.25)">IRE<tspan x="19.706" y="0">L</tspan><tspan x="26.916" y="0">AND</tspan></text><text class="cls-5" transform="translate(782.962 515.71)">ISRAEL</text><text class="cls-5" transform="translate(94.17 353.786)">I<tspan x="3.928" y="0">T</tspan><tspan x="11.249" y="0">A</tspan><tspan class="cls-6" x="19.923" y="0">L</tspan><tspan x="25.386" y="0">Y</tspan></text><text class="cls-5" transform="translate(193.658 702.26)">L<tspan x="7.098" y="0">I</tspan><tspan x="11.026" y="0">TH</tspan><tspan x="28.128" y="0">U</tspan><tspan x="36.498" y="0">AN</tspan><tspan x="54.245" y="0">I</tspan><tspan x="58.448" y="0">A</tspan></text><text class="cls-5" transform="translate(609.976 156.99)">L<tspan x="6.958" y="0">UXEMBOURG</tspan></text><text class="cls-5" transform="translate(723.66 650.44)">N<tspan x="9.073" y="0">E</tspan><tspan x="16.54" y="0">THER</tspan><tspan x="49.25" y="0">L</tspan><tspan x="56.46" y="0">ANDS</tspan></text><text class="cls-5" transform="translate(275.14 149.384)">NOR<tspan x="26.216" y="0">W</tspan><tspan x="37.058" y="0">A</tspan><tspan x="44.854" y="0">Y</tspan></text><text class="cls-5" transform="translate(516.36 779.452)">PO<tspan x="17.226" y="0">L</tspan><tspan x="24.435" y="0">AND</tspan></text><text class="cls-5" transform="translate(66.697 446.248)">PO<tspan x="17.226" y="0">R</tspan><tspan x="25.19" y="0">TUGAL</tspan></text><text class="cls-5" transform="translate(238.79 723.9)">RO<tspan x="17.144" y="0">M</tspan><tspan x="28.36" y="0">AN</tspan><tspan x="46.107" y="0">I</tspan><tspan x="50.311" y="0">A</tspan></text><text class="cls-5" transform="translate(110.353 551.874)">SERB<tspan x="31.843" y="0">I</tspan><tspan x="36.047" y="0">A</tspan></text><text class="cls-5" transform="translate(407.562 119.172)">S<tspan x="7.977" y="0">L</tspan><tspan x="14.7" y="0">O</tspan><tspan x="23.456" y="0">V</tspan><tspan x="31.462" y="0">AK</tspan><tspan x="48.354" y="0">I</tspan><tspan x="52.558" y="0">A</tspan></text><text class="cls-5" transform="translate(381.018 777.785)">S<tspan x="7.977" y="0">L</tspan><tspan x="14.7" y="0">O</tspan><tspan x="23.456" y="0">VEN</tspan><tspan x="48.325" y="0">I</tspan><tspan x="52.528" y="0">A</tspan></text><text class="cls-5" transform="translate(696.812 223.04)">S<tspan x="7.977" y="0">P</tspan><tspan x="15.274" y="0">AIN</tspan></text><text class="cls-5" transform="translate(290.042 748.392)">SWEDEN</text><text class="cls-5" transform="translate(642.988 189.232)">SW<tspan x="19.071" y="0">I</tspan><tspan x="22.999" y="0">TZER</tspan><tspan x="54.503" y="0">L</tspan><tspan x="61.712" y="0">AND</tspan></text><text class="cls-5" transform="translate(169.225 239.45)">TURKEY</text><text class="cls-5" transform="translate(116.51 626.945)">UN<tspan x="17.571" y="0">I</tspan><tspan x="21.499" y="0">TED</tspan><tspan x="-13.286" y="14.4">KINGDOM</tspan></text><text class="cls-5" transform="translate(805.684 387.772)">GER<tspan x="24.382" y="0">M</tspan><tspan x="35.599" y="0">A</tspan><tspan x="44.273" y="0">N</tspan><tspan x="53.182" y="0">Y</tspan></text></svg>