<svg id="original" xmlns="http://www.w3.org/2000/svg" viewBox="0 0 900 900"><defs><style>.cls-1 { opacity: 0.75; } .cls-2, .cls-3, .cls-4 { fill: none; } .cls-2 { stroke: #999; stroke-width: 0.5px; } .cls-3 { stroke: #7f7f7f; stroke-width: 3px; } .cls-4 { stroke: #4d4c4c; stroke-width: 6px; } .cls-5 { fill: #f3bc4c; } .cls-6 { isolation: isolate; font-size: 12px; fill: #39484d; font-family: Roboto; font-weight: 700; } .cls-7 { letter-spacing: -1px; }</style></defs><title>net-ver-2</title><g id="edges" class="cls-1"><path class="cls-2" d="M387.528 476.948c51.218-25.906 166.9 12.06 192.81 63.278M387.528 476.948c-74.322-28.325-143.32-182.3-114.994-256.618M387.528 476.948c17.382 17.773 16.8 70.507-.978 87.89M387.528 476.948c34.03 2.227 81.732 56.61 79.505 90.64M387.528 476.948c-59.623-70.656-43.075-266.074 27.58-325.7M387.528 476.948c-70.923-49.644-102.84-230.5-53.2-301.418M387.528 476.948c1.808 35.17-48.234 90.633-83.4 92.44M387.528 476.948c28.214-15.454 93.716 3.687 109.17 31.9M387.528 476.948c-44.266-38.6-52.77-162.887-14.175-207.152M387.528 476.948c-29.976-61.76 17.7-199.366 79.46-229.342M387.528 476.948c61.516 25.888 114.958 156.993 89.07 218.51M387.528 476.948c-20.67-19.467-22.475-79.673-3.008-100.344M387.528 476.948c-39.607-84.9 28.332-271.66 113.23-311.266M387.528 476.948c50.3.644 124.787 77.062 124.143 127.363M387.528 476.948c51.557 40.76 67.753 179.233 26.994 230.79M387.528 476.948c67.172-13.034 187.49 68.178 200.524 135.352M387.528 476.948c36.425 27.6 49.664 123.633 22.066 160.058M387.528 476.948C402.874 414.508 519.558 343.865 582 359.21M387.528 476.948c-15-46.1 31.65-137.745 77.75-152.744M387.528 476.948c-11.075 17.234-53.54 26.472-70.773 15.4M387.528 476.948c36.26 50.11 15.484 179.66-34.625 215.92M387.528 476.948c16.8 52.51-36.764 156.47-89.273 173.27M387.528 476.948c-6.618-71.218 90.282-187.97 161.5-194.59M549.027 282.36c57.836 45.31 76.622 200.03 31.31 257.867M549.027 282.36c-67.7 42.893-233.6 5.676-276.493-62.03M549.027 282.36c41.933-25.412 142.95-.63 168.362 41.3M549.027 282.36c-53.006.562-133.357-78.1-133.92-131.11M549.027 282.36c-64.305 21.573-193.122-42.525-214.7-106.83M549.027 282.36c34.832 55.764 3.434 191.658-52.33 226.49M549.027 282.36c-27.8 75.49-182.736 147.02-258.224 119.218M549.027 282.36c-37.647 32.622-143.052 25.084-175.675-12.56M549.027 282.36c-23.36 9.457-72.582-11.4-82.04-34.754M549.027 282.36C534.975 334.11 436.27 390.657 384.52 376.6M549.027 282.36c-32.99-13.682-61.95-83.688-48.268-116.677M549.027 282.36c73.793 58.183 97.208 256.148 39.025 329.94M549.027 282.36c-8.38 25.12-58.63 50.226-83.75 41.845M549.027 282.36c79.3 7.9 186.388 138.694 178.488 217.99M549.027 282.36c43.477 8.53 95.9 86.543 87.366 130.02M587.125 468.75c12.938 15.653 8.866 58.54-6.787 71.477M587.125 468.75c-20.9 59.333-141.243 116.986-200.575 96.088M587.125 468.75c-4.25 43.786-76.306 103.09-120.092 98.838M587.125 468.75c-36.472 76.728-206.272 137.112-283 100.64M587.125 468.75c-82.545 2.963-210.81-116.41-213.773-198.95M587.125 468.75c-68.256-20.2-140.338-152.888-120.137-221.144M587.125 468.75c12.02 42.2-33.25 123.54-75.455 135.562M587.125 468.75c-1.855 69.158-108.374 170.112-177.532 168.257M587.125 468.75c-49.355 58.793-211.577 72.95-270.37 23.6M587.125 468.75c-32.024 8.33-92.556-27.21-100.886-59.233M587.125 468.75c-1.42-21.128 28.14-54.95 49.268-56.37M636.393 412.38c14.358 36.78-19.274 113.488-56.055 127.846M636.393 412.38c-1.544-33.944 47.054-87.175 81-88.72M636.393 412.38c-2.83 64.913-104.446 158.038-169.36 155.208M636.393 412.38c-66.836.925-168.478-97.94-169.4-164.774M636.393 412.38c-57.53 43.22-208.654 21.754-251.873-35.776M636.393 412.38C649.835 475.71 575 590.87 511.67 604.31M636.393 412.38c30.316 49.65 1.312 169.605-48.34 199.92M636.393 412.38c-21.513.244-54.15-31.656-54.395-53.17M636.393 412.38c-51.858 16.587-154.528-36.318-171.116-88.176M636.393 412.38c-30.6 29.457-120.7 27.74-150.154-2.864M636.393 412.38c35.82-.632 90.492 52.15 91.123 87.97M727.515 500.35c-21.46 37.41-109.766 61.336-147.177 39.876M727.515 500.35c-37.363-33.313-43.438-139.326-10.126-176.69M727.515 500.35c-44.464 47.863-182.955 52.962-230.818 8.5M727.515 500.35c-5.5 50.282-89.18 117.453-139.463 111.95M727.515 500.35c-57.33.875-144.64-83.808-145.517-141.14M727.515 500.35c-66.422 30.088-211.188-24.412-241.277-90.834M486.24 409.516c-80.58 4.9-208.8-108.607-213.7-189.186M486.24 409.516c29.058-63.4 167.75-114.914 231.15-85.855M486.24 409.516c27.772 35.455 16.25 130.3-19.207 158.072M486.24 409.516C420.36 372.09 377.68 217.13 415.11 151.25M486.24 409.516C409.06 393.1 317.915 252.71 334.33 175.53M486.24 409.516c-36.233-28.532-47.784-125.678-19.252-161.91M486.24 409.516c55.26 59.117 49.474 230.684-9.64 285.94M486.24 409.516c-45.864-51.67-37.152-197.97 14.52-243.834M486.24 409.516c44.044 33.873 59.3 150.75 25.43 194.8M486.24 409.516c45.3 73.988 2.27 252.92-71.718 298.222M486.24 409.516c30 83.337-50 253.348-133.337 283.35M486.24 409.516c10.543 85.737-102.248 230.158-187.985 240.7M298.255 650.218c34.418-78.415 203.668-144.41 282.083-109.992M298.255 650.218c.583-34.735 53.56-85.963 88.295-85.38M298.255 650.218c17.23-50.282 118.5-99.86 168.778-82.63M298.255 650.218c-14.992-17.34-11.47-65.838 5.87-80.83M298.255 650.218c11.415-67.962 130.48-152.784 198.442-141.37M298.255 650.218c-51.218-48.238-55.69-197.422-7.452-248.64M298.255 650.218c44.716-26.62 151.722.522 178.343 45.24M298.255 650.218c33.5-51.864 161.55-79.408 213.416-45.907M298.255 650.218c34.757-11.75 104.517 22.762 116.266 57.52M298.255 650.218c50.376-65.543 224.254-88.293 289.8-37.917M298.255 650.218c19.625-24.91 86.428-32.837 111.338-13.212M298.255 650.218c-27.875-35.275-16.775-130 18.5-157.873M298.255 650.218c19.46-2.4 52.248 23.19 54.648 42.65M352.9 692.867c14.96-76.015 151.42-167.6 227.435-152.64M352.9 692.867c-18.876-32.335 1.312-109.153 33.647-128.03M352.9 692.867c-2.23-47.882 66.248-123.05 114.13-125.28M352.9 692.867c-34.45-14.94-63.718-89.027-48.778-123.478M352.9 692.867c-8.042-65.567 78.234-175.973 143.8-184.018M352.9 692.867c-70.678-45.838-107.938-220.61-62.1-291.29M352.9 692.867c25.257-24.22 99.474-22.667 123.695 2.59M352.9 692.867c14.042-49.465 109.3-102.6 158.768-88.555M352.9 692.867c15.3-9.35 52.27-.427 61.62 14.87M352.9 692.867c30.917-63.143 172.006-111.483 235.15-80.566M352.9 692.867c.166-22.51 34.18-56.027 56.69-55.86M352.9 692.867c-47.334-32.875-69.023-153.188-36.148-200.522M316.755 492.345c45.1-15.007 135.27 30.138 150.28 75.243M316.755 492.345c-23.344-12.963-38.915-67.423-25.952-90.767M316.755 492.345c-33.19-55.83.768-189.36 56.6-222.55M316.755 492.345C389.345 501 485.25 622.865 476.6 695.457M316.755 492.345c-9.6-36.7 31.064-106.146 67.765-115.74M316.755 492.345c61.376-16.59 178.326 50.59 194.916 111.966M316.755 492.345c62.632 23.525 121.292 152.76 97.767 215.393M316.755 492.345c78.25-30.268 241.03 41.705 271.3 119.956M316.755 492.345c-3.924-63.333 85.19-164.217 148.522-168.14M465.277 324.2c66.216 20.2 135.253 149.81 115.06 216.026M465.277 324.2c-59.323 17.774-174.97-44.55-192.743-103.874M465.277 324.2c32.38 63.872-14.855 208.252-78.727 240.633M465.277 324.2c49.028 48.325 50.082 194.355 1.756 243.383M465.277 324.2c-44.624-24.557-74.725-128.33-50.168-172.954M465.277 324.2c-55.924-3.546-134.49-92.75-130.945-148.674M465.277 324.2c16.807 81.267-79.885 228.378-161.152 245.184M465.277 324.2c-19.42 50.37-124.1 96.794-174.474 77.374M465.277 324.2c-24.608-38.8-3.32-133.914 35.482-158.522M465.277 324.2c65.3 46.743 93.136 214.807 46.394 280.107M465.277 324.2C516.7 397.9 483.29 585.578 409.593 637M465.277 324.2c30.346-16.343 100.378 4.66 116.72 35.007M582 359.21C492.33 393.33 306.65 310 272.534 220.33M582 359.21c19.968-34.187 101.2-55.517 135.392-35.55M582 359.21c-74.97-8.213-175.1-132.99-166.89-207.96M582 359.21c-86.27 12.8-234.87-97.41-247.666-183.68M582 359.21c12.867 46.99-38.313 136.77-85.3 149.64M582 359.21c-49.766 66.713-224.483 92.133-291.2 42.368M582 359.21c-59.612 23.847-184.8-29.8-208.646-89.414M582 359.21c-45.323.682-114.33-66.28-115.01-111.604M582 359.21c-36.017 42.975-154.5 53.41-197.48 17.394M582 359.21c-54.954-22.457-103.7-138.575-81.24-193.528M582 359.21c34.955 63.087-7.242 210.147-70.328 245.1M582 359.21c51.83 49.408 55.46 201.262 6.054 253.09M409.593 637.006c-2.4-25.372 32.068-67.023 57.44-69.42M409.593 637.006C338.75 613.68 267.475 472.422 290.8 401.578M409.593 637.006c-80.69-66.194-102.435-286.52-36.24-367.21M409.593 637.006c25.09-1.71 65.294 33.36 67 58.45M409.593 637.006c-57.1-47.066-72.14-203.307-25.074-260.4M409.593 637.006c13.877-26.954 75.123-46.57 102.077-32.695M409.593 637.006c15.132 13.16 18.09 55.6 4.928 70.732M409.593 637.006c30.75-40.633 137.826-55.456 178.46-24.705M588.052 612.3c-49.793 30.808-170.695 2.33-201.5-47.463M588.052 612.3c-31.86-83.6 45.742-256.78 129.338-288.64M588.052 612.3c-33.146 15.26-105.758-11.567-121.02-44.713M588.052 612.3c-65.368 48.2-235.724 22.456-283.927-42.912M588.052 612.3C486.458 629.606 308.108 503.172 290.8 401.578M588.052 612.3c-5.66 38.922-72.532 88.816-111.455 83.156M588.052 612.3c-16.874 13.678-62.7 8.885-76.382-7.99M588.052 612.3c-15.62 53.794-119.737 111.056-173.53 95.437M414.52 707.738c-.338-66.666 99.152-167.173 165.818-167.512M414.52 707.738c-34.173-22.986-50.956-108.726-27.97-142.9M414.52 707.738c-17.527-38.532 13.98-122.622 52.513-140.15M414.52 707.738c-49.748-5.59-115.986-88.6-110.4-138.35M414.52 707.738c-23.342-56.213 25.964-175.546 82.177-198.89M414.52 707.738c-85.974-36.488-160.206-220.184-123.72-306.16M414.52 707.738c9.96-14.87 47.2-22.24 62.077-12.28M414.52 707.738c-1.254-40.115 57.035-102.17 97.15-103.426M511.67 604.312c-32.92 17.13-107.99-6.555-125.12-39.474M511.67 604.312c-48.494 34.525-173.02 13.57-207.545-34.923M511.67 604.312C426.95 607.938 294.43 486.3 290.8 401.578M511.67 604.312c-80.278-62.4-107.087-276.428-44.682-356.706M511.67 604.312c11.215 25.244-9.83 79.93-35.073 91.145M511.67 604.312C440.7 584.2 364.408 447.576 384.52 376.6M500.76 165.682c-34.716 56.575-171.65 89.364-228.226 54.65M500.76 165.682c-20.017 14.244-71.408 5.585-85.652-14.43M500.76 165.682c-31.317 35.255-131.173 41.164-166.428 9.848M500.76 165.682c5.187 89.17-120.787 230.708-209.957 235.9M500.76 165.682c-4.66 46.3-81.1 108.772-127.407 104.114M500.76 165.682c9.63 23.14-10.633 72.293-33.772 81.924M500.76 165.682C519.7 231.114 449.95 357.668 384.52 376.6M384.52 376.6c71.887-6.44 189.378 91.734 195.818 163.622M384.52 376.6c-53.653-8.858-120.844-102.622-111.986-156.274M384.52 376.6c38.052 37.24 39.27 150.18 2.03 188.233M384.52 376.6c54.7 21.694 104.207 136.284 82.513 190.983M384.52 376.6c-38.954-51.188-20.6-186.4 30.588-225.354M384.52 376.6c-50.253-30.177-80.366-150.822-50.19-201.074M384.52 376.6c22.48 54.64-25.76 170.31-80.395 192.79M384.52 376.6c-13.75 23.738-69.98 38.722-93.718 24.974M476.6 695.457c-10.3-51.794 51.946-144.933 103.74-155.23M476.6 695.457c-44.133-8.114-98.162-86.486-90.048-130.62M476.6 695.457c-27.487-23.66-33.225-100.382-9.564-127.87M476.6 695.457c-59.708 9.28-163.192-66.36-172.473-126.068M476.6 695.457c-33.3-41.34-21.242-153.306 20.1-186.608M476.6 695.457c-95.937-21.617-207.414-197.944-185.8-293.88M466.988 247.606c-44.346 33.436-161.018 17.07-194.454-27.275M466.988 247.606c64.005 63.987 64.032 255.977.045 319.982M466.988 247.606c-29.647-8.9-60.775-66.708-51.88-96.355M466.988 247.606c-40.946 12.116-120.54-31.13-132.657-72.076M466.988 247.606C525.178 293.913 543 450.66 496.7 508.85M466.988 247.606c-4.442 66.03-110.154 158.415-176.188 153.972M466.988 247.606c-14.29 23.165-70.47 36.48-93.636 22.19M373.352 269.8c95.483 12.69 219.675 174.947 206.986 270.43M373.352 269.8c-30.052 10.267-90.552-19.412-100.818-49.47M373.352 269.8C435 326.165 442.92 503.19 386.55 564.838M373.352 269.8c-15.358-32.06 9.7-103.187 41.756-118.545M373.352 269.8c-26.657-11.05-50.07-67.61-39.02-94.266M373.352 269.8c46.073 73.764 4.537 253.52-69.227 299.593M373.352 269.8c72.48 23.138 146.487 166.57 123.348 239.05M373.352 269.8c9.846 42.866-39.683 121.936-82.55 131.782M290.8 401.578c85.64-30.178 259.36 53.012 289.538 138.648M290.8 401.578c-39.9-32.6-50.865-141.344-18.27-181.247M290.8 401.578c51.8 13.5 109.25 111.458 95.747 163.26M290.8 401.578c68.448-2.044 174.186 97.562 176.23 166.01M290.8 401.578c-25.2-74.927 49.38-225.123 124.306-250.327M290.8 401.578c-36.5-53.915-10.386-189.544 43.53-226.048M290.8 401.578c36.227 30.9 44.22 131.584 13.322 167.81M290.8 401.578c62.633-19.725 186.17 44.638 205.894 107.27M496.7 508.85c7.1-81.177 139.517-192.29 220.693-185.19M304.125 569.39c32.22-32.943 129.966-34.023 162.908-1.8M334.332 175.53c-3.4 21.32-40.478 48.2-61.8 44.8M334.332 175.53c11.3-21.01 59.766-35.58 80.777-24.28M415.108 151.25c-14.7 42.332-100.244 83.78-142.574 69.08M467.033 567.588c17.19-28.133 85.172-44.55 113.3-27.36M467.033 567.588c-16.647 15.547-64.937 13.9-80.483-2.75M717.39 323.66c15.9 70.724-66.328 200.664-137.052 216.566"/><path class="cls-3" d="M387.528 476.948c-34.42 4.27-92.454-40.95-96.725-75.37M387.528 476.948c6.256-33.23 65.482-73.688 98.71-67.432M549.027 282.36c21.964 8.776 41.747 54.887 32.97 76.852M549.027 282.36c12.874 37.99-24.8 114.283-62.788 127.157M587.125 468.75c-10.066 26.106-64.323 50.165-90.428 40.1M587.125 468.75c-58.95 22.092-180.514-33.195-202.606-92.145M587.125 468.75c-53.28-4.54-126.388-91.267-121.848-144.55M636.393 412.38c-8.645 47.232-92.463 105.114-139.7 96.47M486.24 409.516c11.125 51-48.688 144.195-99.69 155.32M486.24 409.516c-4.45 68.4-113.718 164.32-182.115 159.872M486.24 409.516c-40.676 37.5-157.937 32.737-195.437-7.938M486.24 409.516c-50.522-5.367-118.254-89.2-112.887-139.72M486.24 409.516c-26.927 13.76-87.96-5.986-101.72-32.912M486.24 409.516C547.16 429.71 608.246 551.38 588.05 612.3M486.24 409.516c30.168 60.827-15.82 197.32-76.647 227.49M486.24 409.516c9.09-29.213 66.545-59.4 95.758-50.305M486.24 409.516c-21.256-12.87-33.833-64.057-20.963-85.312M486.24 409.516c-17.332 50.463-119.023 100.16-169.485 82.83M316.755 492.345c62.293-43.14 220.443-14.412 263.583 47.88M316.755 492.345c28.458.54 70.335 44.035 69.8 72.492M316.755 492.345c12.883 17.935 5.305 64.16-12.63 77.044M316.755 492.345c39.29-32.688 147.255-22.785 179.942 16.5M316.755 492.345c47.5 10.364 103.2 97.16 92.84 144.66M465.277 324.2c43.213 30.645 62.065 141.432 31.42 184.645M465.277 324.2c-29.267 7.5-84.42-25.142-91.924-54.408M465.277 324.2c-14.977-15.662-13.95-61.62 1.71-76.6M582 359.21c35.87 36.536 34.875 145.145-1.66 181.016M409.593 637.006c14.793-53.5 117.24-111.573 170.745-96.78M409.593 637.006c-19.042-9.825-32.868-53.126-23.043-72.17M409.593 637.006c-34.617 7.57-97.9-33-105.468-67.618M409.593 637.006c-8.21-43.052 44.05-119.947 87.1-128.157M588.052 612.3c-15.958-12.872-20.586-56.117-7.714-72.075M588.052 612.3c-38.96-2.42-93.775-64.49-91.355-103.452M511.67 604.312c.916-26.55 42.117-65 68.668-64.085M511.67 604.312c-16.272 1.583-43.055-20.452-44.637-36.724M511.67 604.312c-22.087-16.1-31.07-73.375-14.974-95.463M384.52 376.6c48.88 4.018 116.19 83.365 112.18 132.25M384.52 376.6c-23.6-19.128-30.3-83.213-11.168-106.808M384.52 376.6c-9.307-42.293 40.174-119.693 82.468-129M496.7 508.85c-10.832 33.226-76.92 66.82-110.147 55.988M496.7 508.85c5.815 17.68-11.983 52.923-29.664 58.738M496.7 508.85c-26.406 50.62-141.95 86.945-192.572 60.54M304.125 569.39c49.41-61.076 215.138-78.574 276.213-29.163M304.125 569.39c15.575-17.4 65.03-20.127 82.425-4.552M386.55 564.838c33.835-43.68 150.108-58.447 193.788-24.61"/><path class="cls-4" d="M486.24 409.516c44.96 7.322 101.42 85.748 94.1 130.71M486.24 409.516c21.957 17.775 28.232 77.375 10.457 99.333M465.277 324.2c-5.67 26.63-54.126 58.07-80.757 52.4M496.7 508.85c23-10.454 73.188 8.373 83.64 31.376"/></g><g id="nodes"><circle class="cls-5" cx="387.528" cy="476.948" r="27.647"/><circle class="cls-5" cx="549.027" cy="282.36" r="13.529"/><circle class="cls-5" cx="587.125" cy="468.75" r="11.765"/><circle class="cls-5" cx="636.393" cy="412.379" r="11.765"/><circle class="cls-5" cx="727.515" cy="500.349" r="13.529"/><circle class="cls-5" cx="486.239" cy="409.516" r="31.176"/><circle class="cls-5" cx="298.255" cy="650.218" r="11.765"/><circle class="cls-5" cx="352.903" cy="692.867" r="11.765"/><circle class="cls-5" cx="316.755" cy="492.345" r="13.529"/><circle class="cls-5" cx="465.277" cy="324.204" r="25.882"/><circle class="cls-5" cx="581.998" cy="359.211" r="34.706"/><circle class="cls-5" cx="409.593" cy="637.006" r="15.294"/><circle class="cls-5" cx="588.052" cy="612.301" r="11.765"/><circle class="cls-5" cx="414.521" cy="707.738" r="11.765"/><circle class="cls-5" cx="511.67" cy="604.312" r="17.059"/><circle class="cls-5" cx="500.759" cy="165.682" r="11.765"/><circle class="cls-5" cx="384.519" cy="376.604" r="36.471"/><circle class="cls-5" cx="476.598" cy="695.457" r="11.765"/><circle class="cls-5" cx="466.988" cy="247.606" r="11.765"/><circle class="cls-5" cx="373.352" cy="269.796" r="17.059"/><circle class="cls-5" cx="290.803" cy="401.578" r="15.294"/><circle class="cls-5" cx="496.697" cy="508.849" r="15.294"/><circle class="cls-5" cx="304.125" cy="569.389" r="15.294"/><circle class="cls-5" cx="334.332" cy="175.53" r="13.529"/><circle class="cls-5" cx="415.108" cy="151.251" r="10"/><circle class="cls-5" cx="467.033" cy="567.588" r="13.529"/><circle class="cls-5" cx="717.39" cy="323.661" r="10"/><circle class="cls-5" cx="386.55" cy="564.838" r="20.588"/><circle class="cls-5" cx="272.534" cy="220.331" r="10"/><circle class="cls-5" cx="194.912" cy="514.427" r="10"/><circle class="cls-5" cx="196.17" cy="337.19" r="10"/><circle class="cls-5" cx="580.338" cy="540.226" r="40"/></g><g id="node-labels"><text class="cls-6" transform="translate(361.248 482.14)">A<tspan x="8.274" y="0">USTR</tspan><tspan x="39.832" y="0">I</tspan><tspan x="43.735" y="0">A</tspan></text><text class="cls-6" transform="translate(522.93 287.234)">BE<tspan x="15.008" y="0">L</tspan><tspan x="21.431" y="0">GIUM</tspan></text><text class="cls-6" transform="translate(586.143 467.124)">BOSN<tspan x="32.993" y="0">I</tspan><tspan x="36.896" y="0">A AND</tspan><tspan x="0" y="12.4">HERZEG</tspan><tspan x="46.882" y="12.4">O</tspan><tspan x="55.338" y="12.4">VI</tspan><tspan x="67.282" y="12.4">N</tspan><tspan x="76.16" y="12.4">A</tspan></text><text class="cls-6" transform="translate(606.332 417.253)">BU<tspan x="16.157" y="0">L</tspan><tspan x="22.58" y="0">GAR</tspan><tspan x="47.386" y="0">I</tspan><tspan x="51.29" y="0">A</tspan></text><text class="cls-6" transform="translate(700.8 504.54)">CR<tspan x="16.11" y="0">O</tspan><tspan x="24.572" y="0">A</tspan><tspan x="32.243" y="0">T</tspan><tspan x="39.967" y="0">I</tspan><tspan x="43.87" y="0">A</tspan></text><text class="cls-6" transform="translate(466.63 407.876)">CZECH<tspan x="-9.125" y="12.4">REPUBLIC</tspan></text><text class="cls-6" transform="translate(267.843 654.498)">DEN<tspan x="23.921" y="0">M</tspan><tspan x="34.839" y="0">ARK</tspan></text><text class="cls-6" transform="translate(326.234 697.058)">ES<tspan x="14.727" y="0">T</tspan><tspan x="22.287" y="0">ON</tspan><tspan x="39.645" y="0">I</tspan><tspan x="43.548" y="0">A</tspan></text><text class="cls-6" transform="translate(290.107 496.625)">FIN<tspan x="19.445" y="0">L</tspan><tspan x="26.354" y="0">AND</tspan></text><text class="cls-6" transform="translate(441.29 328.367)">FRANCE</text><text class="cls-6" transform="translate(552.63 364.014)">GER<tspan x="23.482" y="0">M</tspan><tspan x="34.399" y="0">A</tspan><tspan x="42.773" y="0">N</tspan><tspan x="51.382" y="0">Y</tspan></text><text class="cls-6" transform="translate(386.138 640.698)">GREECE</text><text class="cls-6" transform="translate(558.76 617.074)">HUNGA<tspan x="42.598" y="0">R</tspan><tspan x="50.274" y="0">Y</tspan></text><text class="cls-6" transform="translate(388.73 712.517)">ICE<tspan x="19" y="0">L</tspan><tspan x="25.909" y="0">AND</tspan></text><text class="cls-6" transform="translate(484.14 608.59)">IRE<tspan x="18.806" y="0">L</tspan><tspan x="25.716" y="0">AND</tspan></text><text class="cls-6" transform="translate(480.544 169.96)">ISRAEL</text><text class="cls-6" transform="translate(369.067 381.494)">I<tspan x="3.628" y="0">T</tspan><tspan x="10.649" y="0">A</tspan><tspan class="cls-7" x="19.023" y="0">L</tspan><tspan x="24.187" y="0">Y</tspan></text><text class="cls-6" transform="translate(443.985 699.736)">L<tspan x="6.798" y="0">I</tspan><tspan x="10.426" y="0">TH</tspan><tspan x="26.929" y="0">U</tspan><tspan x="34.998" y="0">AN</tspan><tspan x="52.145" y="0">I</tspan><tspan x="56.048" y="0">A</tspan></text><text class="cls-6" transform="translate(426.034 251.48)">L<tspan x="6.657" y="0">UXEMBOURG</tspan></text><text class="cls-6" transform="translate(329.924 274.075)">N<tspan x="8.772" y="0">E</tspan><tspan x="15.94" y="0">THER</tspan><tspan x="47.45" y="0">L</tspan><tspan x="54.36" y="0">ANDS</tspan></text><text class="cls-6" transform="translate(264.07 406.35)">NOR<tspan x="25.316" y="0">W</tspan><tspan x="35.858" y="0">A</tspan><tspan x="43.354" y="0">Y</tspan></text><text class="cls-6" transform="translate(472.374 513.128)">PO<tspan x="16.625" y="0">L</tspan><tspan x="23.535" y="0">AND</tspan></text><text class="cls-6" transform="translate(271.646 573.263)">PO<tspan x="16.625" y="0">R</tspan><tspan x="24.291" y="0">TUGAL</tspan></text><text class="cls-6" transform="translate(304.87 179.72)">RO<tspan x="16.543" y="0">M</tspan><tspan x="27.46" y="0">AN</tspan><tspan x="44.607" y="0">I</tspan><tspan x="48.511" y="0">A</tspan></text><text class="cls-6" transform="translate(392.943 155.53)">SERB<tspan x="30.644" y="0">I</tspan><tspan x="34.547" y="0">A</tspan></text><text class="cls-6" transform="translate(436.487 571.867)">S<tspan x="7.677" y="0">L</tspan><tspan x="14.1" y="0">O</tspan><tspan x="22.556" y="0">V</tspan><tspan x="30.263" y="0">AK</tspan><tspan x="46.554" y="0">I</tspan><tspan x="50.458" y="0">A</tspan></text><text class="cls-6" transform="translate(688.668 327.94)">S<tspan x="7.677" y="0">L</tspan><tspan x="14.1" y="0">O</tspan><tspan x="22.556" y="0">VEN</tspan><tspan x="46.524" y="0">I</tspan><tspan x="50.428" y="0">A</tspan></text><text class="cls-6" transform="translate(367.934 569.61)">S<tspan x="7.677" y="0">P</tspan><tspan x="14.674" y="0">AIN</tspan></text><text class="cls-6" transform="translate(247.342 224.61)">SWEDEN</text><text class="cls-6" transform="translate(152.75 518.706)">SW<tspan x="18.471" y="0">I</tspan><tspan x="22.099" y="0">TZER</tspan><tspan x="52.403" y="0">L</tspan><tspan x="59.312" y="0">AND</tspan></text><text class="cls-6" transform="translate(172.436 342.08)">TURKEY</text><text class="cls-6" transform="translate(558.128 539.1)">UN<tspan x="16.971" y="0">I</tspan><tspan x="20.599" y="0">TED</tspan><tspan x="-6.493" y="12.4">KINGDOM</tspan></text></g></svg>