<svg id="original" xmlns="http://www.w3.org/2000/svg" viewBox="0 0 900 900"><defs><style>.cls-1, .cls-3, .cls-4 { fill: none; } .cls-1 { stroke: #999; stroke-width: 0.5px; } .cls-2 { opacity: 0.75; } .cls-3 { stroke: #7f7f7f; stroke-width: 3px; } .cls-4 { stroke: #4d4c4c; stroke-width: 6px; } .cls-5 { fill: #f3bc4c; } .cls-6 { isolation: isolate; font-size: 12px; fill: #39484d; font-family: Roboto; font-weight: 700; } .cls-7 { letter-spacing: -1px; }</style></defs><title>net-ver-2</title><path class="cls-1" d="M501.713 96.482L535.47 64.75M535.47 64.75l-.72-31.522M278.532 822.045l-21.46 4.14M425.606 712.855l-7.34-4.3M418.267 708.556L393.6 710.12M465.176 746.1l-.92-31.286M470.19 707.766l-30.1-2.458M464.255 714.812l5.934-7.046M482.574 816.855l-6.522-29.512M440.092 705.308l-14.486 7.547M466.488 780.4L454.9 758.5M476.052 787.343l-9.565-6.94M487.1 874.1l1.038-19.934M479.417 818.607l3.157-1.752M485.677 829.44l-6.26-10.833M488.14 854.164l-2.463-24.724M454.9 758.5l10.275-12.4M492.253 902.73L480.7 879.548M480.7 879.547l6.4-5.447M236.19 862.316l27.123 17.6M263.313 879.912l25.13 16.938M236.19 856.577v5.74M236.183 840.563l.008 16.013M314.865 787.53l-13.053 6.26M286.893 812.562l-8.36 9.484M304.406 805.28l-17.512 7.282M301.812 793.79l2.594 11.488M329.844 744.407l1.07 24.264M337.513 787.174l-22.648.355M339.818 780.8l-2.3 6.37M330.915 768.67l8.9 12.134M323.588 738.817l6.256 5.59M366.35 716.056l-42.762 22.76M393.6 710.12l-27.254 5.936M257.072 826.186l-20.89 14.378M615.63 621.75l3.15.952M619.393 607.693l-3.763 14.06M625.153 608.743l-5.76-1.05M618.78 622.7l-2.224 14M630.856 631.124l1.31-9.975M635.3 638.71l-4.444-7.586M637.5 639.658l-2.2-.95M632.167 621.148l-7.014-12.4M624.322 660.32l8.96-7.177M622.333 654.174l1.99 6.146M614.558 647.477l7.775 6.7M633.28 653.143l4.218-13.485M616.556 636.7l.574 11.973M617.13 648.672l-2.573-1.194M591.412 601.685l.965 1.012M571.984 578.228l19.43 23.458M567.16 559.714l4.824 18.514M600.527 560.348l-33.367-.635M611.19 565.66l-10.663-5.312M615.678 565.13l-4.49.53M612.065 575.27l3.613-10.14M619.05 581.075l-6.984-5.8M613.86 581.78l5.19-.7M617.565 588l-3.706-6.217M613.748 591.108l3.817-3.108M606.59 595.907l7.158-4.8M603.283 608.653l3.308-12.746M592.378 602.7l10.905 5.956M663.1 584.946l2.286-4.393M725 610.413l5.83-6.83M732.64 619.328l-7.64-8.915M710.282 624.255l13.994-5.4M709.376 624.31l.906-.054M706.29 624.5l3.086-.19M724.276 618.858l8.365.47M695.717 632.71l11.572-2.012M681.9 626.8l13.82 5.91M663.92 630.925l17.98-4.125M707.29 630.7l-1-6.2M656.2 613.09l8.79 10.238M657.24 603.942l-1.04 9.15M664.858 597.073l-7.617 6.87M656.226 585.238l8.632 11.835M664.99 623.327l-1.07 7.6M665.388 580.554l-4.91-2.8M740.358 586.722l-20.936-7.512M680.76 587.9l-17.66-2.954M660.48 577.75l-4.254 7.488M719.422 579.21l-21.74 9.777M730.83 603.583l9.53-16.86M697.683 588.987L680.76 587.9M821.662 728.782l-12.69 5.59M812.608 735.722l9.053-6.94M814.8 740.906l-2.192-5.185M800.555 747.445l14.245-6.54M790.314 739.51l10.24 7.935M808.97 734.373l-18.656 5.138M513.96 358.854l-4.63-3.434M502.237 356.333l11.724 2.52M509.33 355.42l-7.093.914M515.427 361.7l1-7.754M511.965 352.9l3.463 8.794M516.424 353.944l-4.46-1.04M492.2 353.67l2.5 1.47M491.332 352.033l.868 1.636M494.7 355.14l-3.365-3.106M517.476 353.67l5.978-1.414M520.13 350.578l-2.653 3.09M523.454 352.256l-3.324-1.678M495.588 351.26l1.575 1.323M497.392 350.388l-1.8.872M497.163 352.584l.23-2.2M489.8 354.363l-3.77-4.723M483.84 350.244l5.962 4.12M486.03 349.64l-2.19.6M498.07 353.565l1.014 3.088M501.686 347.6l-3.617 5.964M499.084 356.653l2.6-9.052M552.178 349.055l5.034 2.474M553.08 344.41l-.9 4.645M557.212 351.53l-4.132-7.12M466.646 340.547l1.4 2.946M467.973 341.3l-1.327-.75M468.044 343.493l-.07-2.2M499.434 348.516l-.508-8.553M495.576 350.73l3.857-2.214M490.907 349.416l4.67 1.313M490.444 347.18l.462 2.236M488.918 346.838l1.526.342M487.444 344.787l1.474 2.05M486.28 341.05l1.164 3.737M484.448 339.558l1.83 1.492M485.437 338.575l-.99.983M486.31 338.4l-.873.173M487.553 339.4l-1.244-1M493.03 336.74l-5.477 2.658M495.317 341.017l-2.286-4.278M497.22 336.686l-1.9 4.33M498.926 339.963l-1.707-3.277M524.112 334.84l-.36 3.47M525.093 337.372l-.98-2.53M523.75 338.31l1.343-.94M495.98 333.164l1.394-2.4M495.926 327.964l.053 5.2M497.373 330.762l-1.447-2.8M518.49 340.05l5.095-12.348M522.157 344.63l-3.666-4.58M516.882 352.15l5.275-7.522M505.712 346.686l11.17 5.465M500.663 333.966l5.05 12.72M512.713 328.367l-12.05 5.6M516.683 335.867l-3.97-7.5M514.006 328.32l2.677 7.547M523.586 327.7l-9.58.618M509.186 310.223l.846.91M511.145 309.84l-1.96.384M510.032 311.134l1.113-1.294M472.15 310.607l2.135-5.6M468.67 309.387l3.48 1.22M474.285 305.01l-5.617 4.377M493.06 303.454l-4.57-2.25M492.97 309.23l.09-5.775M487.03 311.64l5.94-2.41M501.874 316.816l-14.843-5.176M492.18 323.182l9.693-6.366M488.74 334.627l3.44-11.445M482.748 334.607l5.993.02M486.392 337.032l-3.643-2.426M484.835 338.794l1.556-1.762M483.267 341.408l1.568-2.614M484.624 346.752l-1.357-5.344M481.52 348.483l3.104-1.73M485.7 353.977l-4.18-5.494M481.332 355.522l4.368-1.545M470.764 353.46l10.568 2.062M470.214 341.27l.55 12.19M462.95 338.37l7.264 2.9M463.492 327.863l-.54 10.506M467.146 329.99l-3.654-2.127M463.236 327.083l3.91 2.908M464.007 311.565l-.77 15.518M471.627 315.768l-7.62-4.2M476.327 307.762l-4.7 8.006M479.658 314.706l-3.33-6.943M477.716 305.074l1.942 9.632M479.493 302.94l-1.776 2.133M488.49 301.205l-9 1.736M502.34 297.423l2.684-2.19M500.4 296.43l1.936.993M505.024 295.233l-4.62 1.2M493.4 303.2l1.3-15.043M488.93 300.75l4.47 2.45M478.605 303.1l10.324-2.35M476.868 301.677l1.737 1.423M470.85 304.35l6.018-2.672M467.4 310.954l3.452-6.605M469.774 310.757l-2.377.2M469.28 313.307l.494-2.55M465.022 310.237l4.26 3.07M470.124 299.96l-5.1 10.277M497.582 284.51l-27.458 15.45M494.693 288.154l2.89-3.645M814.24 860l-.21-.856M812.556 858.72l1.684 1.28M814.03 859.147l-1.475-.428M787.182 802.316l.06.233M787.28 802.39l-.1-.074M787.242 802.55l.038-.16M803.747 801.41l2.842 1.23M805.56 801.942l-1.813-.532M806.59 802.64l-1.03-.7M803.675 801.415l-.895-.28M801.514 801.222l2.162.193M799.822 802.153l1.692-.932M801.438 801.138l-1.617 1.015M802.78 801.134h-1.34M723.41 798.88l-27.264-2M746.94 807.627l-23.53-8.746M773.444 795.3l-26.505 12.326M785.54 796.423l-12.1-1.123M789.377 800.228l-3.837-3.8M785.25 796.4l4.127 3.824M783.543 800.518l1.707-4.114M788.54 803.642l-5-3.124M789.453 800.258l-.913 3.384M796.31 804.3l-6.858-4.042M801.65 801.762l-5.34 2.538M802.164 803.207l-.515-1.445M802.08 803.892l.084-.685M805.694 802.37l-3.613 1.523M807.35 802.966l-1.655-.6M810.206 802.707l-2.857.26M816.6 799.7l-6.4 3.007M817.294 801.39l-.694-1.69M825.905 828.524l-8.61-27.133M817.116 855.63l8.79-27.106M803.424 842.954l13.693 12.676M794.385 820.44l9.038 22.514M791.216 826.81l3.17-6.37M807.7 853.266l-16.486-26.458M829.083 904.045l-21.383-50.78M691.83 832.217l.05 108.924M687.89 817.885l3.94 14.332M693.913 794.563l-6.023 23.322M696.146 796.88l-2.233-2.317M813.6 870.53l.09.645M813.13 869.946l.47.585M813.69 871.175l-.56-1.23M221.87 391.428l.925 1.037M222.735 391.158l-.865.27M222.8 392.465l-.06-1.307M218.754 377.556l-.124-3.264M214.51 375.3l4.244 2.26M218.63 374.29l-4.12 1M237.81 351.13l.384 1.126M238.575 351.535l-.763-.406M238.195 352.256l.38-.72M243.056 364.49l10.192-11.978M251.177 371.792l-8.12-7.3M258.33 365.05l-7.154 6.742M268.67 372.418l-10.34-7.367M272.107 398.71l-3.437-26.292M267.4 415.8l4.71-17.088M258.82 413.473l8.58 2.327M228.51 431.064l30.31-17.59M220.615 431.824l7.9-.76M224.43 425.19l-3.815 6.635M216.35 428.61l8.08-3.42M223.863 422.515l-7.512 6.095M213.562 424.47l10.3-1.954M221.423 416.437l-7.86 8.033M211.907 415.7l9.516.742M234.138 404.968l-22.23 10.732M219.006 407.414l15.133-2.446M232.476 391.516l-13.47 15.9M215.765 388.26l16.712 3.256M224.08 377.945l-8.315 10.316M218.95 377.78l5.13.165M221.017 376.056l-2.068 1.723M218.062 369.666l2.955 6.39M216.46 372.5l1.6-2.832M216.626 369.41l-.166 3.09M238.83 368.392l-22.2 1.017M236.168 366.64l2.662 1.752M242.665 360.017l-6.5 6.622M234.375 358.66l8.29 1.358M240.917 348.838l-6.542 9.82M249.85 344.913l-8.933 3.925M249.526 352.63l.323-7.718M253.418 342.415l-3.89 10.215M259.674 345.83l-6.256-3.416M255.33 349.744l4.343-3.914M253.248 352.512l2.083-2.768M239.278 352.466l.023.255M239.07 352.472l.208-.007M239.3 352.72l-.23-.248M677.618 274.03l.583 1.21M678.625 274.144l-1.007-.115M678.2 275.24l.424-1.1M669.294 266.447l-4.628-4.046M651.177 279.768l18.118-13.32M653.98 274.094l-2.8 5.674M648.98 264.807l5 9.287M664.666 262.4l-15.685 2.407M665.572 262.126l4.158 2.033M668.14 260.5l-2.567 1.63M669.73 264.16l-1.59-3.66M666.29 251.242l2.252 1.62M670.09 251.943l-3.8-.7M668.543 252.862l1.55-.92M665.4 256.18l-4-4.29M651.827 253.467l13.576 2.714M661.4 251.892l-9.576 1.576M732.678 239.226l-30.258-4.014M734.77 243.714l-2.09-4.488M724.7 256.777l10.073-13.063M730.07 281.013l-5.37-24.236M723.965 289.582l6.1-8.57M712.316 289.822l11.65-.24M695.853 275.638l16.463 14.184M682.588 281.065l13.264-5.427M685.844 269.4l-3.256 11.664M674.652 268.277l11.192 1.125M671.5 259.893l3.154 8.383M676.633 257.952l-5.136 1.94M671.328 256.87l5.3 1.082M671.073 246.452l.256 10.42M702.42 235.212l-31.347 11.24M552.456 492.174l-11.73-3.94M556.862 483.184l-4.406 8.99M582.854 491.4l-25.99-8.22M585.834 503.748l-2.98-12.345M584.31 509.862l1.524-6.114M576.146 510.09l8.166-.228M579.71 513.186l-3.564-3.1M576.958 523.9l2.752-10.717M571.56 526.618l5.4-2.715M550.354 535.73l21.206-9.112M539.17 533.39l11.184 2.34M521.87 530.154l17.3 3.235M517.638 524l4.233 6.15M495.217 526.586l22.42-2.586M483.407 522.768l11.81 3.818M482.526 518.573l.88 4.195M482.975 513.255l-.45 5.318M491.185 518.57l-8.21-5.315M495.31 512.222l-4.125 6.347M503.667 516.145l-8.358-3.923M525.864 510.37l-22.2 5.775M529.67 514.66l-3.8-4.29M526.172 501.492l3.5 13.17M540.726 488.234l-14.554 13.258M540.726 488.234l11.73 3.94M525.037 474.768l15.69 13.466M517.177 455.918l7.86 18.85M547.17 440.3l-29.993 15.62M554.19 444.334l-7.02-4.034M574.675 448.715l-20.486-4.38M572.833 453.767l1.842-5.052M578.736 460.45l-5.9-6.682M583.612 458.154l-4.876 2.295M582.1 453.437l1.515 4.717M593.365 455.978l-11.265-2.54M592.485 460.455l.88-4.477M604.93 464.532l-12.445-4.078M608.638 472.845l-3.71-8.312M582.854 491.4l25.785-18.558M556.862 483.184l25.99 8.22M552.456 492.174l4.406-8.99M665.772 226.544l-3.233-.142M663.674 227.97l2.1-1.426M662.538 226.4l1.135 1.568M656.02 223.408l1.176 1.927M657.218 223.257l-1.2.15M657.2 225.335l.023-2.078M644.29 222.134l1.525.43M646.594 221l-2.3 1.132M645.816 222.564l.778-1.564M647.406 220.253l.45 1.95M649.7 220.412l-2.3-.16M647.857 222.2l1.846-1.79M642.936 220.97l.154-.6M641.353 220.117l1.583.854M643.09 220.374l-1.737-.257M650.41 220.608l.857 1.1M652.08 219.686l-1.67.923M651.267 221.71l.812-2.025M702.83 219.678l.516.235M703.7 219.49l-.872.188M703.346 219.913l.357-.424M657.61 225.222l4.8-6.172M657.343 219.292l.267 5.93M659.21 219.723l-1.868-.43M662.414 219.05l-3.2.674M654.2 219.285l.33 1.02M655.24 218.467l-1.037.818M654.534 220.306l.707-1.84M652.188 217.92l3.7-.393M652.557 216.85l-.368 1.07M655.888 217.527l-3.33-.675M655.658 216.115l.786 1.268M657.71 216.42l-2.052-.3M656.444 217.383l1.267-.964M648.413 215.08l2.61 1.323M648.65 212.53l-.237 2.55M651.023 216.4l-2.372-3.874M646.985 212.88l.91-1.25M647.6 211.026l-.617 1.854M648.053 210.965l-.45.06M647.895 211.63l.158-.666M643.575 212.415l.688-1.39M642.078 210.4l1.5 2.016M644.263 211.026l-2.184-.627M641.454 212.187l.718-.084M640.793 210.14l.662 2.046M642.172 212.1l-1.38-1.963M641.635 209.895l.015-1.4M640.62 208.287l1.015 1.608M641.65 208.494l-1.03-.207M641.16 198.88l.994 2.274M642.556 199.91l-1.395-1.03M642.154 201.154l.4-1.245M643.5 134.16l-4.7-2.54M641.063 135.725l2.44-1.566M638.808 131.62l2.256 4.1M651.808 130.85l1.895 1.255M653.86 130.4l-2.052.452M653.7 132.106l.158-1.706M640.86 130.29l1.237 1.1M642.88 129.82l-2.02.47M642.1 131.387l.782-1.566M660.343 116.037l2.737-.17M662.166 113.5l-1.823 2.532M663.08 115.866l-.914-2.362M685.792 77.47l2.48 2.578M692.334 77.114l-6.542.356M688.273 80.048l4.06-2.934M684.24 53.257l.34.192M685.134 52.9l-.895.357M684.58 53.45l.554-.55M747.014 15.28l12.907-28.015M761.35 54.923L747.013 15.28M757.082 57.087l4.267-2.164M754.616 80.572l2.466-23.485M767.357 102.85l-12.74-22.278M759.443 117.593l7.914-14.742M781.04 142.6l-21.6-25M729.863 210.307L781.04 142.6M712.124 213.04l17.74-2.733M714.316 207.52l-2.192 5.52M704.312 218.656l10-11.136M663.57 230.485l40.742-11.83M669.37 224.68l-5.8 5.8M663.09 221.273l6.28 3.407M665.967 215.78l-2.876 5.493M665.546 215.606l.42.175M660.226 219.186l5.32-3.58M659.038 219.5l1.188-.318M657.31 218.58l1.728.924M659.813 214.55l-2.5 4.03M642.575 207.35l17.238 7.2M646.763 182.33l-4.188 25.022M638.6 151.535l8.166 30.8M647.007 139.3l-8.41 12.23M644.458 133.767l2.55 5.538M655.82 131.855l-11.362 1.912M653.8 126.135l2.02 5.72M669.106 112.9L653.8 126.135M682.972 93.393l-13.866 19.5M685.664 84.573l-2.692 8.82M697.913 79.72l-12.25 4.853M696.067 61.743l1.846 17.977M687.382 57.04l8.685 4.7M687.653 49.08l-.27 7.962M680.586 51.794l7.067-2.716M673.75 35.175l6.836 16.62M678.43 18.56l-4.68 16.615M672.528 6.236l5.9 12.325M675.182-2.858l-2.654 9.094M699.454 218l1.572.84M699.954 219.58l-.5-1.583M701.026 218.838l-1.07.742M672.077 226.3l2.267.893M669.8 227.617l2.278-1.32M674.344 227.19l-4.545.427M482 607.96l-.12-.216M481.5 607.228l.5.73M481.88 607.744l-.38-.516M482.794 616.9l-1.444-10.325M477.752 630.518l5.042-13.62M472.45 627.026l5.3 3.492M469.563 612l2.887 15.03M479.282 606.635l-9.72 5.365M480.083 600.574l-.8 6.06M481.35 606.573l-1.267-6M334.52 542.713l2.8 4.438M336.8 544.386l-2.282-1.673M337.325 547.152l-.523-2.766M332.472 538.915l3.955 1.733M333.536 538.7l-1.064.212M336.427 540.647l-2.89-1.945M321.5 530.01l1.26.094M321.212 529.468l.286.543M322.757 530.1l-1.545-.636M324.46 525.9l-.7-2.21M322.57 523.628l1.89 2.275M323.757 523.694l-1.188-.066M309.966 518.015l2.02-.083M309.387 516.545l.58 1.47M311.985 517.932l-2.6-1.387M283.995 494.69l1.08.084M284.942 494.184l-.947.5M285.074 494.774l-.132-.59M305.1 487.435l-.015.177M305.263 487.515l-.165-.08M305.083 487.612l.18-.1M409.864 456.755l-21.97-17.263M409.65 463.188l.214-6.433M418.9 459.176l-9.248 4.012M419.447 466.993l-.55-7.817M432.1 472.267l-12.653-5.274M439.6 474.052l-7.5-1.785M464.83 484.308l-25.23-10.256M456.07 501.576l8.76-17.27M456.2 512.372l-.127-10.8M448.107 514.122l8.09-1.75M434.25 539.61l13.857-25.49M445.41 535.206l-11.16 4.4M448.75 545.024l-3.34-9.818M445.514 547.964l3.236-2.94M449.964 558.065l-4.45-10.1M443.088 560.9l6.876-2.835M448.663 566.233l-5.575-5.333M447.915 576.627l.748-10.395M457.2 578.768l-9.283-2.14M455.382 585.957l1.816-7.19M454.18 586.54l1.2-.583M453.867 586.3l.314.244M453.483 586.707l.383-.41M453.535 587.1l-.052-.394M436.937 599.71l16.6-12.61M421.59 590.3l15.347 9.413M407.153 590.593l14.437-.3M395.2 599.36l11.956-8.767M396.5 611.022l-1.3-11.66M376.82 609.69l19.68 1.332M377.607 608.577l-.786 1.112M373.06 607.99l4.547.587M345.882 604.685l27.178 3.3M329.388 593.966l16.494 10.72M339.468 569.208l-10.08 24.758M336.57 569.45l2.9-.242M338.822 552.152l-2.252 17.3M346.228 565.007l-7.406-12.855M342.98 554.148l3.248 10.86M336.7 549.5l6.282 4.652M339.04 545.473l-2.34 4.027M338.406 537.513l.634 7.96M324.652 527.24l13.754 10.273M326.637 523.352l-1.985 3.887M324.11 521.52l2.526 1.832M324.606 518.5l-.5 3.016M330.1 519.843l-5.49-1.34M326.377 517.683l3.718 2.16M322.51 519.284l3.868-1.6M319.11 518.132l3.4 1.152M321.535 513.982l-2.425 4.15M316.974 511.313l4.56 2.67M311.448 514.622l5.527-3.31M294.394 507.955l17.054 6.668M289.525 503.18l4.87 4.775M296.834 497.915l-7.31 5.265M288.826 493.645l8.008 4.27M309.9 486.24l-21.073 7.4M317.147 493.8l-7.25-7.563M334.964 490.9l-17.817 2.9M327.212 468.53l7.752 22.37M336.382 469.36l-9.17-.83M338.416 476.01l-2.034-6.65M359.24 474.213l-20.825 1.8M354.5 472.65l4.745 1.564M373.268 460.115L354.5 472.65M375.486 444.078l-2.218 16.037M387.893 439.492l-12.407 4.587M894.92 593.606l19.3 11.878M898.31 589.814l-3.39 3.79M470.954 510.185l.43-.07M470.845 509.828l.11.357M471.383 510.116l-.537-.288M444.81 384.792l.8-.956M443.61 384.2l1.2.59M445.614 383.836l-2 .367M446.562 382.282l.853.02M449.43 381.965l-2.87.318M447.415 382.3l2.015-.336M450.073 381.463l1.444.038M452.93 381.12l-2.856.343M451.517 381.5l1.414-.38M463.394 381.3l.962-.267M463.7 380.835l-.308.47M464.356 381.038l-.654-.2M454.566 380.847l2.09-.49M454.81 380.288l-.243.56M456.657 380.358l-1.846-.07M457.228 380.192l1.278.025M459.236 379.874l-2.008.318M458.506 380.218l.73-.343M467.34 375.743l.185.632M467.928 375.57l-.587.172M467.526 376.375l.4-.8M541.974 374.3l.2-.154M542.09 374.08l-.116.218M542.17 374.144l-.08-.064M470.857 372.927l.327.846M471.154 372.818l-.3.11M471.184 373.773l-.03-.954M546.03 376.362l-3.03-3.148M545.94 377.73l.09-1.368M540.588 378.082l5.352-.35M543.736 375.068l-3.148 3.013M539.718 371.03l4.018 4.04M543 373.214l-3.277-2.185M502.614 365.923l-.52-.007M502.415 366l.2-.077M502.1 365.916l.32.084M472.8 363.117l1.056.906M474.77 362.69l-1.97.427M473.857 364.023l.914-1.334M502.46 364.03l4.147 1.273M504.866 362.67l-2.406 1.36M506.607 365.3l-1.74-2.633M469.77 362.49l.97.783M471.39 361.932l-1.62.557M470.74 363.273l.65-1.34M530.752 361.024l-.312 2.376M531.492 360.738l-.74.286M530.44 363.4l1.053-2.664M539.335 368.347l-4.707-8.453M531.045 367l8.29 1.347M533.064 365.87l-2.02 1.13M531.432 362.073l1.63 3.8M536.252 363.3l-4.82-1.224M532.755 361.757l3.5 1.54M534.628 359.894l-1.872 1.863M465.755 359.244l.947 1.247M466.56 358.19l-.8 1.054M466.7 360.492l-.143-2.3M467.142 358.138l2.312.67M469.23 357.2l-2.088.938M469.454 358.81l-.226-1.61M499.918 377.248l2.178-11.332M523.04 363.74l-23.122 13.51M528.417 364.838l-5.376-1.1M520.913 368.6l7.5-3.76M529.767 365.47l-8.854 3.128M535.613 372.5l-5.846-7.033M539.166 370.8l-3.553 1.7M540.448 378.276l-1.282-7.472M546.71 381.624l-6.262-3.348M545 400.557l1.712-18.932M551.644 407.043L545 400.557M551.09 423.69l.554-16.647M557.005 435.293l-5.914-11.6M554.19 444.334l2.815-9.042M547.17 440.3l7.02 4.035M517.177 455.918L547.17 440.3M525.037 474.768l-7.86-18.85M540.726 488.234l-15.69-13.466M526.172 501.492l14.554-13.258M529.67 514.66l-3.5-13.168M525.864 510.37l3.8 4.29M503.667 516.145l22.2-5.775M495.31 512.222l8.357 3.923M491.185 518.57l4.124-6.348M482.975 513.255l8.21 5.314M469.432 507.9l13.543 5.357M469.57 512.234l-.14-4.335M457.672 513.2l11.9-.964M456.2 512.372l1.475.825M456.07 501.576l.127 10.8M464.83 484.308l-8.76 17.27M439.6 474.052l25.228 10.255M441.8 466.754l-2.2 7.3M436.52 460.037l5.278 6.718M440.09 455.9l-3.57 4.132M434.86 446.66l5.23 9.245M432.87 440.46l1.99 6.2M437.708 431.384l-4.84 9.077M434.193 423.927l3.515 7.457M445.92 420.467l-11.727 3.46M449.122 411.19l-3.2 9.277M444.024 407.562l5.1 3.63M448.934 405.458l-4.91 2.1M451.055 392l-2.12 13.458M448.445 388.1l2.61 3.9M452.24 381.94l-3.795 6.164M461.882 381.374l-9.643.565M468.578 389.477l-6.7-8.1M470.778 377.16l-2.2 12.317M486.572 385.336l-15.794-8.176M473.947 376.08l12.625 9.256M473.73 367.922l.217 8.16M469.883 367l3.846.922M475.534 363.176l-5.65 3.824M469.627 354.523l5.906 8.652M465.574 357.364l4.053-2.84M467.093 350.158l-1.52 7.205M470.764 353.46l-3.67-3.3M481.332 355.522l-10.568-2.063M488.47 357.03l-7.137-1.508M487.083 364.2l1.387-7.167M502.1 365.916l-15.017-1.716M508.987 374.19l-.4 1.425M507.434 374.982l1.553-.793M508.588 375.615l-1.154-.633M510.663 372.31l-.924 1M509.292 373.6l1.37-1.29M509.74 373.305l-.448.295M525.42 364.806l.365.27M525.195 365.038l.226-.233M525.785 365.077l-.59-.04M680.066 743.39v-.79M678.93 742.712l1.135.678M680.066 742.6l-1.135.11M717.55 733.28l.033 1.014M719.2 733.1l-1.65.18M717.583 734.293l1.617-1.193M709.327 738.068l-32.916-6.48M688.514 741.19l20.813-3.12M671.844 735.468l16.67 5.722M673 730.064l-1.154 5.4M676.41 731.59l-3.41-1.526M719.824 730.2l1.237 2.647M722.016 726.512l-2.192 3.69M721.06 732.85l.956-6.338M668.486 725.283l.8 1.248M669.2 725.747l-.714-.464M669.287 726.53l-.086-.783M663.835 717.247l1.624 4.07M666.242 719.524l-2.406-2.277M665.46 721.318l.782-1.794M701.744 717.41l1.47.365M702.3 716.87l-.553.54M703.214 717.775l-.917-.906M697.157 716.766l.105.234M697.364 716.724l-.207.042M697.262 717l.1-.27M728.67 720.83l.907 4.61M735.52 716.01l-6.85 4.82M729.577 725.44l5.944-9.43M722.96 715.818l1.387 1.546M724.963 716.757l-2-.94M724.347 717.364l.617-.607M696.894 715.682l1.162 2.335M698.443 716.766l-1.55-1.084M698.056 718.018l.387-1.25M708.947 713.675l1.08 1.437M711.628 713.567l-2.68.108M710.026 715.112l1.6-1.544M729.283 713.956l1.214.8M730.565 712.686l-1.282 1.27M730.5 714.76l.068-2.073M689.706 712.54l1.48 1.153M691.025 712.982l-1.32-.44M691.187 713.694l-.162-.712M693.243 711.96l-.17 1M694.4 711.566l-1.158.394M693.074 712.963l1.327-1.4M648.21 711.885l.147-.66M647.88 711.636l.33.248M648.015 710.92l-.135.717M648.357 711.224l-.342-.305M683.05 711.07l.873 1.448M685.743 710.843l-2.692.225M683.923 712.518l1.82-1.674M695.593 710.473l1.485 2.19M697.37 711.547l-1.777-1.075M697.078 712.663l.293-1.116M686.578 710.524l.718.52M687.33 710.557l-.753-.033M687.3 711.045l.034-.488M647.255 710.215l-.08.97M647.58 710.28l-.324-.066M647.176 711.186l.4-.906M685.378 709.754l.508.817M685.938 709.336l-.56.418M685.886 710.57l.053-1.234M697.556 709.618l.53.164M698.278 708.988l-.722.63M698.086 709.782l.192-.794M701.834 710.42l1.214.08M705.08 708.9l-3.246 1.517M703.05 710.5l2.03-1.6M719.8 709.5l-1.33 2.656M723.7 708.937l-3.906.564M718.467 712.157l5.237-3.22M700.1 708.692l.97.146M700.684 708.363l-.58.33M701.075 708.838l-.39-.475M692.18 706.788l.717.8M693 706.053l-.816.735M692.9 707.587l.1-1.534M687 706.057l.96 2.358M688.683 707.48L687 706.056M687.96 708.415l.723-.936M717.452 705.478l1.147 2.575M719.583 706.88l-2.132-1.4M718.6 708.053l.985-1.172M702.45 704.738l.7.457M703.034 704.644l-.583.094M703.154 705.2l-.12-.552M693.19 706.307l2.058.325M695.5 704.422l-2.3 1.885M695.247 706.632l.248-2.21M715.8 703.78l1.59 1.354M717.012 703.7l-1.207.08M717.4 705.134l-.383-1.434M696.477 705.5l1.628 2.636M699.233 703.412l-2.756 2.09M698.1 708.138l1.128-4.725M685.217 704.86l.35-1.184M683.938 704.615l1.278.245M685.566 703.677l-1.628.94M715.846 703.266l-.064.335M716.053 703.26h-.207M715.782 703.6l.27-.34M666.1 702.062l.808.633M666.828 702.142l-.726-.08M666.91 702.695l-.082-.553M669.85 701.684l.5-.02M672.686 700.587l-2.835 1.1M670.35 701.665l2.336-1.078M684.318 698.584l-.857 3M684.867 700.01l-.55-1.426M683.46 701.58l1.407-1.57M696.108 698.475l.613 1.368M698.135 698.788l-2.026-.313M696.72 699.844l1.415-1.056M690.3 700.6l.92-.374M690.367 698.058l-.067 2.542M691.217 700.222l-.85-2.164M670.648 697.816l.88.375M671.862 697.86l-1.214-.044M671.528 698.19l.335-.33M691.533 695.273l3.418 2.41M695.093 696.19l-3.56-.917M694.95 697.684l.143-1.494M682.363 695.624v2.2M683.66 695.31l-1.3.314M682.367 697.82l1.293-2.51M706.316 696.018l-.64 2.007M710.282 695.083l-3.967.936M705.677 698.025l4.606-2.942M670.55 693.785l1.184 1.215M672.423 693.78h-1.872M671.734 695l.688-1.217M713.132 694.332l6.737.32M715.527 692.948l-2.395 1.384M719.87 694.65l-4.343-1.7M635.435 695.772l.906-2.72M632.6 692.1l2.83 3.67M636.34 693.053l-3.74-.953M691.322 695.1l-2.282-5.36M687.98 691.9l3.342 3.206M689.04 689.74l-1.06 2.156M670.712 689.956l.338 1.84M672.084 689.956h-1.372M671.05 691.8l1.034-1.84M634.913 688.677l-2.436-5.753M628.807 686.665l6.106 2.012M632.476 682.924l-3.67 3.74M632.912 682.857l1.23 1.52M632.97 681.09l-.057 1.767M634.142 684.377l-1.173-3.286M703.522 679.648l2.218 7.02M707.553 680.326l-4.03-.678M705.74 686.67l1.812-6.343M636.356 679.946l.053.36M636.894 679.273l-.538.673M636.41 680.307l.484-1.034M699.022 679.37l.96 1.172M700.16 679.538l-1.138-.168M699.98 680.543l.18-1M631.736 677.91l1.162 1.782M633.68 675.293l-1.945 2.618M632.9 679.692l.782-4.4M685.814 676.446l1.756-.516M684.53 673.066l1.285 3.38M687.57 675.93l-3.042-2.864M680.408 678.556l-9.365-3.587M685.96 689.932l-5.552-11.376M662.49 675.39l23.47 14.542M671.043 674.97l-8.553.42M672.787 668.852l1.974 2.264M675.438 670.253l-2.65-1.4M674.76 671.116l.678-.862M670.1 669.764l1.572-.13M671.035 668.784l-.932.98M671.674 669.633l-.64-.85M626.036 668.92l.835.456M625.86 668.294l.176.626M626.87 669.376l-1.01-1.082M677.7 667.36l-1.233 2.675M678.028 667.876l-.33-.515M676.464 670.035l1.564-2.16M713.71 672.2l-3.21-4.557M703.124 669.216l10.587 2.984M710.5 667.643l-7.376 1.572M691.946 662.568l-.188 1.7M692.585 663.138l-.64-.57M691.758 664.268l.827-1.13M622.11 661.06l1.076-2.557M625.7 666.078l-3.587-5.02M619.333 659.383l6.365 6.695M623.186 658.5l-3.854.88M615.78 657.2l.342.44M616.48 657.215l-.7-.02M616.122 657.637l.357-.42M696.676 658.645l1.162-3.852M692.6 657.338l4.08 1.307M697.838 654.793l-5.24 2.545M697.868 646.44l2.132 1.383M701.263 646.613l-3.395-.173M700 647.823l1.26-1.21M685.22 643.193l3.572.47M687.06 640.7l-1.84 2.5M688.792 643.664l-1.733-2.966M710.282 624.255l-.906.054M713.974 630.7l-3.692-6.448M706 641.8l7.974-11.1M693.728 636.873L706 641.8M674.742 641.462l18.986-4.59M683.716 652.19l-8.974-10.728M674.64 648.667l9.077 3.522M677.408 655.882l-2.767-7.215M669.576 650.535l7.83 5.347M674.4 656.43l-4.824-5.9M664 643.684l10.4 12.748M659.256 646.425l4.744-2.74M659.31 654.66l-.054-8.235M669.46 669.313l-10.15-14.652M663.948 666.156l5.512 3.156M665.775 671.774l-1.827-5.618M658.34 674.9l7.436-3.128M679.325 686.325L658.34 674.9M678.79 695.68l.535-9.355M671.768 689.016l7.023 6.665M664.674 691.762l7.094-2.747M671.742 699.474l-7.068-7.712M661.08 697.105l10.662 2.37M667.475 716.365l-6.4-19.26M659.84 710.083l7.635 6.282M657.873 717.135l1.966-7.052M653.324 706.406l4.55 10.73M647.255 709.9l6.068-3.494M646.515 699.26l.74 10.64M639.16 692.21l7.355 7.05M649.338 683.845l-10.177 8.365M663 690.776l-13.666-6.93M667.85 687.08l-4.845 3.7M656.715 681.993l11.136 5.088M639.72 684.477l16.995-2.484M637.578 678.152l2.143 6.326M634.1 675.877l3.48 2.275M639.75 672.384l-5.654 3.493M634.093 673.245l5.658-.86M624.322 660.32l9.77 12.924M633.28 653.143l-8.958 7.177M637.5 639.658l-4.217 13.485M663.92 630.925l-26.42 8.733M681.9 626.8l-17.978 4.125M695.717 632.71L681.9 626.8M707.29 630.7l-11.573 2.012M706.29 624.5l1 6.2M709.376 624.31l-3.087.19M581.063 604.93l1.218.774M582.766 604.926l-1.7.005M582.28 605.7l.486-.778M587.936 604.562l5.73 1.77M588.988 604.383l-1.053.18M593.665 606.333l-4.677-1.95M586.067 602.15l-4.914-.764M578.616 601l7.452 1.156M581.153 601.386l-2.538-.39M592.378 602.7l-4.75-2.18M603.283 608.653l-10.905-5.953M603.927 610.79l-.645-2.137M583.64 599.782l20.288 11.008M587.627 600.518l-3.99-.735M570.732 599.48l2.136.755M573.457 599.3l-2.726.175M572.867 600.235l.59-.93M586.155 598.31l-8.5-1.944M575.1 597.047l11.058 1.264M577.654 596.366l-2.558.68M575.525 594.528l6.05 1.126M580.24 593.913l-4.715.615M581.574 595.654l-1.335-1.74M572.732 593l2.6 1.47M574.465 593.328l-1.733-.328M575.333 594.47l-.868-1.142M564.724 588.085l1.094.826M565.476 588.257l-.752-.17M565.818 588.91l-.342-.654M561.61 586.195l-.41-.618M559.558 584.373l2.053 1.822M561.2 585.577l-1.643-1.2M560.043 581.86l2.515 2.246M561.614 582.588l-1.572-.726M562.558 584.107l-.944-1.52M557.36 579.025l2.544 2.648M559.8 580.988l-2.444-1.963M559.9 581.673l-.1-.685M559.577 583.846l-5.023-5.162M558.374 583.934l1.2-.09M554.554 578.684l3.82 5.25M552.9 568.774l1.433 1.685M559.88 575.8l-6.984-7.028M554.33 570.46l5.55 5.342M547.952 570.825l2.09 2.2M547.546 568.54l.406 2.284M550.042 573.03l-2.5-4.49M554.69 568.61l-1.462-1.85M551.9 566.932l2.788 1.678M553.228 566.76l-1.327.172M549.655 570.518l-.518-5.78M546.96 564.784l2.7 5.735M548.4 564.63l-1.437.153M547.245 559.655l1.15 4.975M549.137 564.737l-1.892-5.082M548.783 561.51l4.425 2.62M550.275 558.417l-1.493 3.092M553.208 564.13l-2.933-5.713M578.275 534.38l-.48.02M592.643 546.91l-14.368-12.53M608.175 545.393l-15.532 1.516M610.385 555.738l-2.21-10.345M616.39 558.68l-6-2.94M611.19 565.66l5.2-6.98M600.527 560.348l10.662 5.312M567.16 559.714l33.367.634M571.984 578.228l-4.824-18.514M591.412 601.685l-19.43-23.458M582.018 593.162l9.394 8.523M569.89 591.272l12.128 1.89M549.512 557.04l20.377 34.232M546.94 556.77l2.573.268M541.613 567.32l5.327-10.55M537.452 553.75l4.16 13.57M551.118 550.007l-13.665 3.743M558.874 554.83l-7.756-4.822M565.957 546.73l-7.083 8.1M565.374 539.415l.583 7.316M577.8 534.4l-12.422 5.016M592.643 546.91l15.532-1.517M578.275 534.38l14.368 12.53M571.56 526.618l6.715 7.762M576.958 523.9l-5.4 2.715M579.71 513.186l-2.752 10.714M576.146 510.09l3.564 3.1M584.31 509.862l-8.165.23M585.834 503.748l-1.523 6.114M586.988 503.5l-1.154.253M605.986 508.872l-19-5.377M633.127 492.543l-27.14 16.33M653.305 495.635l-20.18-3.092M663.367 504.92l-10.06-9.285M651.7 513.46l11.67-8.54M640.112 537.925L651.7 513.46M634.025 540.273l6.087-2.348M627.72 541.46l6.305-1.187M608.175 545.393l19.544-3.935M155.63 45.814l-6.118-4.977M152.524 54.52l3.105-8.707M159.45 52.817l-6.926 1.7M156.377 62.27l3.072-9.453M169.265 61.78l-12.888.49M169.822 69.922l-.556-8.142M163.536 72.066l6.286-2.144M170.78 76.053l-7.244-3.988M157.088 84.732l13.693-8.68M156.708 97.083l.38-12.35M151.486 101.52l5.222-4.437M145.283 98.153l6.2 3.366M100.257 128.31l45.026-30.158M68.537 111.41l31.72 16.9M46.4 115.7l22.137-4.286M46.21 107.214l.19 8.486M64.353 97.744l-18.144 9.47M54.34 99.95l10.013-2.206M62.386 89.548l-8.046 10.4M53.416 95.584l8.97-6.037M50.216 84.255l3.2 11.33M27.853 81.758l22.364 2.5M57.95 77.3l-30.1 4.458M48.13 72.774l9.82 4.526M59.807 63.764l-11.677 9.01M21.32 62.18l38.488 1.584M31.29 61.108l-9.97 1.07M27.226 52.038l4.064 9.07M39.13 54.182l-11.9-2.144M30.377 50.054l8.752 4.128M39.306 51.02l-8.93-.966M31.11 45.185l8.2 5.834M37.17 46.072l-6.06-.887M33.185 41.923l3.985 4.15M35.783 38.975l-2.6 2.948M49.98 50.688l-14.2-11.713M42.57 38.23l7.41 12.46M49.852 36.67l-7.283 1.56M39.64 33.91l10.21 2.76M43.04 29.965l-3.4 3.945M63.856 44.722L43.04 29.965M61.1 47.18l2.756-2.458M64.69 54.456L61.1 47.18M58.736 53.385l5.955 1.07M68.12 73.158l-9.384-19.773M70.248 59.2L68.12 73.158M76.752 62.27l-6.5-3.07M77.053 42.86l-.3 19.41M80.372 41.31l-3.32 1.55M90.22 54.7L80.37 41.31M90.2 43.75l.02 10.95M99.253 39.245L90.2 43.75M108.927 57.415l-9.674-18.17M105.814 39.795l3.113 17.62M128.887 42.59l-23.073-2.8M129.793 28.552l-.906 14.04M145.3 40.864l-15.507-12.312M154.385 33.32l-9.085 7.544M149.512 40.836l4.872-7.517M830.613 792.318l.11.013M830.576 791.986l.038.332M830.722 792.33l-.147-.344M835.99 777.96l-.342-9.04M834.686 782.634l1.3-4.673M831.03 780.666l3.656 1.97M825.65 798.62l5.38-17.954M833.68 796.94l-8.03 1.68M826.936 827.605l6.743-30.665M825.905 828.524l1.03-.918M817.294 801.39l8.61 27.134M818.2 800.707l-.9.684M820.312 795.372l-2.117 5.336M828.572 771.38l-8.26 23.992M835.648 768.92l-7.076 2.46M521.87 530.154L517.64 524M539.17 533.39l-17.3-3.236M534.628 537.892l4.542-4.5M538.5 540.235l-3.872-2.343M535.94 543.482l2.56-3.247M541.884 550.74l-5.944-7.257M539.147 551.54l2.737-.8M532.06 548.015l7.087 3.525M519.717 554.014l12.343-6M518.09 557.947l1.627-3.933M523.206 563.754l-5.117-5.807M519.232 568.436l3.974-4.682M520.894 577.336l-1.662-8.9M537.857 590.35l-16.964-13.014M543.2 606.737l-5.346-16.388M552.99 617.445l-9.79-10.708M571.97 620.567l-18.98-3.12M569.134 628.472l2.835-7.905M597.275 643.436l-28.14-14.964M604.05 652.46l-6.775-9.024M601.846 658.547l2.2-6.088M595.21 649.855l6.637 8.692M582.413 646.98l12.8 2.876M576.634 658.978l5.78-12M585.627 665.607l-8.993-6.63M585.872 673.056l-.244-7.45M578.1 675.88l7.77-2.824M570.893 691.014l7.207-15.133M565.062 689.512l5.83 1.5M573.06 673.97l-8 15.542M565.536 654.332l7.523 19.638M503.712 611.824l61.824 42.508M490.294 581.845l13.418 29.978M471.906 573.882l18.388 7.963M455.382 585.957l16.524-12.075M457.2 578.768l-1.816 7.19M447.915 576.627l9.283 2.14M448.663 566.233l-.748 10.395M443.088 560.9l5.575 5.333M449.964 558.065l-6.876 2.835M445.514 547.964l4.45 10.1M448.75 545.024l-3.236 2.94M459.817 545.275l-11.067-.25M467.676 534.633l-7.86 10.642M475.8 546.855l-8.125-12.222M479.12 533.994l-3.32 12.86M490.6 539.263l-11.478-5.268M489.52 533.126l1.08 6.137M495.136 533l-5.617.126M495.217 526.586l-.08 6.414M517.638 524l-22.42 2.583M522.81 582.232l-.687 1.707M521.536 582.777l1.275-.545M522.123 583.94l-.587-1.162M522.09 620.8l-.158-.03M522.022 620.68l.068.118M521.933 620.768l.09-.09M520.288 556.408l1.342-1.477M520.96 554.786l-.672 1.622M521.63 554.93l-.668-.145M486.226 600.466l.5-.458M486.188 599.463l.038 1M486.56 599.247l-.37.216M486.73 600.01l-.17-.763M494.565 606.02l.244-2.5M490.22 604.85l4.345 1.17M494.81 603.52l-4.592 1.328M489.948 607.677l.086.858M490.215 608.142l-.267-.465M490.035 608.536l.18-.393M500.565 612.455l.67.61M500.72 611.915l-.154.54M501.235 613.065l-.515-1.15M492.805 612.612l.32.6M493.253 612.735l-.447-.122M493.125 613.208l.128-.473M486.482 645.545l-4.23-11.1M483.008 669.793l3.474-24.248M475.552 667.77l7.455 2.022M473.4 674.52l2.154-6.75M467.277 673.138l6.12 1.382M469.3 657.24l-2.026 15.9M464.375 638.625l4.925 18.615M482.252 634.444l-17.877 4.18M464.683 637.21l1.677-1.255M466.116 634.9l-1.432 2.313M466.36 635.955l-.244-1.058M528.77 638.55l.188.607M529.282 638.306l-.51.244M528.958 639.157l.323-.85M541 641.825l1.32.6M542.275 641.686l-1.275.14M542.32 642.42l-.045-.734M546.523 645.02l-.7-.088M545.647 645.357l.876-.336M545.828 644.93l-.18.427M464.8 669.545l.925 1.24M465.868 669.1l-1.068.44M465.725 670.786l.143-1.682M559.088 676.06l.316.347M559.75 675.79l-.662.27M559.4 676.407l.346-.617M531.64 677.38l.15.42M532.128 677.434l-.49-.053M531.79 677.8l.337-.366M553.734 679.922l1 .63M554.734 679.744l-1 .178M554.73 680.552v-.808M555.325 680.807l.583 1.23M556.024 680.792l-.7.014M555.907 682.036l.117-1.244M555.716 682.833l.647.61M555.956 682.286l-.24.547M556.362 683.442l-.406-1.156M557.686 698.622l5.985-11.264M560.8 706.622l-3.113-8M557.614 712.705l3.184-6.083M521.623 693.21l35.99 19.5M533.73 685.957l-12.107 7.253M539.85 690.218l-6.12-4.26M563.67 687.358l-23.82 2.86M516.315 689.937l.594.572M516.71 689.9l-.396.038M516.91 690.51l-.2-.612M519.582 690.8l1.12.52M520.5 690.838l-.917-.033M520.7 691.324l-.2-.486M514.972 709.656l1.15 1.544M516.563 710.21l-1.59-.554M516.123 711.2l.44-.99M884.01 786.464l16.465 3.3M878.567 766.784l5.442 19.68M908.468 749.8l-29.9 16.99M826.936 827.605l-.252 2.874M833.68 796.94l-6.744 30.665M834.686 782.634l-1.007 14.306M835.99 777.96l-1.3 4.674M852.08 783.926l-16.09-5.964M878.567 766.784l-26.486 17.142M884.01 786.464l-5.443-19.68M854.348 796.81l29.66-10.345M867.83 812.623l-13.482-15.813M861.08 820.488l6.75-7.865M850.806 822.635l10.275-2.147M841.69 833.148l9.116-10.513M826.685 830.48l15 2.668M828.572 771.38l7.076-2.46M840.373 746.048l-11.8 25.332M846.968 746.25l-6.595-.2M849.184 753.31l-2.216-7.06M835.648 768.92l13.536-15.61M638.447 307.047l.2 9.865M647.646 288.54l-9.2 18.507M659.516 284l-11.87 4.54M675.426 303.728L659.516 284M683.84 296.59l-8.413 7.138M682.588 281.065l1.252 15.524M695.853 275.638l-13.264 5.427M712.316 289.822l-16.463-14.184M723.965 289.582l-11.65.24M730.584 295.45l-6.62-5.868M728.426 305.107l2.158-9.658M734.738 323.872l-6.312-18.766M713.694 335.35l21.044-11.478M691.86 320.333l21.834 15.018M653.143 317.2l38.717 3.13M638.42 325.64l14.723-8.437M638.65 316.912l-.23 8.73M734.738 323.872l-21.044 11.48M772.07 337.084l-37.332-13.212M773.47 350.388l-1.4-13.3M770.11 356.27l3.36-5.882M784.494 373.235L770.11 356.27M783.412 379.254l1.082-6.02M796.634 387.005l-13.222-7.75M776.68 396.92l19.953-9.915M783.678 417.332l-7-20.412M772.3 418.086l11.38-.755M767 436.022l5.3-17.936M702.36 421.047L767 436.022M683.694 422.2l18.667-1.152M672.974 430.04l10.72-7.84M673.434 417.962l-.46 12.077M667.03 413.485l6.4 4.477M677.524 403.48l-10.5 10.004M671.612 375.938l5.912 27.54M702.488 371.016l-30.876 4.922M699.27 367.026l3.218 3.99M702.537 354.467l-3.267 12.56M716.49 344.754l-13.953 9.713M711.564 343.32l4.925 1.434M713.694 335.35l-2.13 7.97M637.515 344.863l.807-1.185M636.947 344.61l.568.252M638.94 334.267l-1.993 10.343M638.323 343.678l.617-9.41M713.694 335.35l-21.834-15.017M711.564 343.32l2.13-7.97M716.49 344.754l-4.926-1.433M702.537 354.467l13.952-9.713M699.27 367.026l3.267-12.56M702.488 371.016l-3.218-3.99M671.612 375.938l30.876-4.922M661.892 366.3l9.72 9.633M662.66 353.84l-.768 12.46M643.56 345.447l19.1 8.392M641.293 345.517l2.266-.07M638.42 325.64l2.874 19.877M653.143 317.2l-14.722 8.437M691.86 320.333l-38.717-3.133M585.834 503.748l1.154-.253M582.854 491.4l2.98 12.345M608.638 472.845L582.854 491.4M617.088 471.12l-8.45 1.724M625.194 479.95l-8.106-8.83M646.1 474.53l-20.9 5.42M658.81 481.934l-12.712-7.4M653.305 495.635l5.5-13.7M633.127 492.543l20.18 3.092M605.986 508.872l27.14-16.33M586.988 503.5l19 5.377M483.407 522.768l-.88-4.195M481.728 522.895l1.678-.127M482.526 518.573l-.8 4.322M485.677 829.44l2.463 24.724M479.417 818.607l6.26 10.833M482.574 816.855l-3.157 1.752M491.73 809.058l-9.156 7.8M492.727 793.812l-1 15.245M510.055 781.865l-17.328 11.948M509.494 770.127l.56 11.738M558.757 782.564l-49.263-12.437M566.822 798.713l-8.064-16.15M588.6 803.524l-21.78-4.81M610.67 816.345l-22.07-12.82M625.006 807.1l-14.336 9.248M625.33 785.988l-.324 21.112M646.13 773.962l-20.8 12.026M666.313 778.81l-20.182-4.848M668.136 785.484l-1.823-6.675M691.506 789.418l-23.37-3.934M693.913 794.563l-2.406-5.145M687.89 817.885l6.023-23.322M691.83 832.217l-3.94-14.332M691.88 941.14l-.05-108.923M480.7 879.547l11.557 23.183M487.1 874.1l-6.406 5.45M488.14 854.164L487.1 874.1M630.856 631.124l4.444 7.586M632.167 621.148l-1.31 9.975M656.2 613.09l-24.033 8.06M664.99 623.327l-8.79-10.237M663.92 630.925l1.07-7.6M637.5 639.658l26.42-8.733M635.3 638.71l2.2.95M260.873 756.356l-29.913 20.808M273.383 727.11l-12.51 29.246M280.464 725.01l-7.08 2.1M281.137 726.257l-.673-1.247M289.935 736.78l-8.8-10.523M313.606 734.787l-23.67 1.994M313.9 735.823l-.293-1.036M314.042 735.708l-.143.115M323.588 738.817l-9.546-3.11M329.844 744.407l-6.256-5.59M330.915 768.67l-1.07-24.263M339.818 780.8l-8.9-12.133M337.513 787.174l2.3-6.37M314.865 787.53l22.648-.356M301.812 793.79l13.053-6.26M304.406 805.28l-2.594-11.49M286.893 812.562l17.512-7.283M278.532 822.045l8.36-9.484M257.072 826.186l21.46-4.14M236.183 840.563l20.89-14.378M236.19 856.577l-.007-16.013M175.172 856.572h61.02M198.41 846.34l-23.238 10.232M216.276 829.435l-17.866 16.9M223.013 817.894l-6.737 11.542M220.727 797.744l2.286 20.15M230.96 777.164l-10.232 20.58M288.442 896.85l-25.13-16.938M191.068 881.858v37.936M236.187 881.854h-45.12M236.19 862.316v19.538M263.313 879.912l-27.124-17.6M548.053 726.16l2.534.454M547.4 723.964l.658 2.2M550.587 726.614l-3.192-2.65M545.43 722.593l1.168.828M547.595 723.044l-2.166-.45M546.6 723.42l1-.377M411.046 433.352l.677 2.425M421.726 430.93l-10.68 2.422M432.66 438.084l-10.934-7.153M429.84 444.894l2.82-6.81M434.86 446.66l-5.02-1.766M440.09 455.9l-5.23-9.245M436.52 460.037l3.57-4.132M435.056 458.91l1.464 1.127M432.1 472.267l2.956-13.358M419.447 466.993l12.653 5.274M418.9 459.176l.55 7.817M409.65 463.188l9.25-4.012M409.864 456.755l-.213 6.433M387.893 439.492l21.97 17.263M399.116 433.38l-11.223 6.112M410.864 433.888l-11.75-.508M411.723 435.777l-.86-1.89M259.253 180.277l4.162 6.517M262.478 181.58l-3.226-1.3M263.415 186.794l-.936-5.213M263.456 176.75l.65-2.258M259.99 172.108l3.465 4.642M264.106 174.492l-4.117-2.384M256.02 168.83l2.056-1.42M252.86 165.312l3.16 3.517M258.076 167.41l-5.215-2.1M255.606 164.378l7.11 6.787M255.9 161.118l-.29 3.26M262.715 171.166l-6.82-10.047M257.933 160.277l5.45 6.417M264.148 163.67l-6.215-3.393M263.384 166.694l.763-3.025M263 162.274l.89.444M262.527 159.76l.473 2.514M263.892 162.717l-1.365-2.958M264.535 163.242l2.083.806M264.51 159.22l.025 4.022M266.618 164.048l-2.11-4.828M265.783 160.738l1 .388M264.9 158.138l.88 2.6M266.787 161.126l-1.884-2.988M376.82 609.69l.786-1.113M373.06 607.99l3.76 1.7M377.607 608.577l-4.546-.588M281.24 721.733l.05-.844M281 720.876l.238.857M281.29 720.888l-.29-.012M294.56 365.213l-5.734 8.227M294.014 370.418l.545-5.206M288.826 373.44l5.188-3.022M436.52 460.037l-1.465-1.128M441.8 466.754l-5.28-6.718M439.6 474.052l2.2-7.3M432.1 472.267l7.5 1.785M435.056 458.91l-2.956 13.357M453.535 587.1l.645-.562M453.483 586.707l.052.394M453.867 586.3l-.383.41M454.18 586.54l-.313-.244M817.294 801.39l.9-.683M816.6 799.7l.69 1.69M820.312 795.372L816.6 799.7M818.2 800.707l2.117-5.336M834.686 782.634l-3.655-1.97M833.68 796.94l1.006-14.306M825.65 798.62l8.03-1.68M831.03 780.666l-5.38 17.955M830.722 792.33l-.11-.012M830.576 791.986l.147.345M830.613 792.318l-.038-.332M606.59 595.907l-3.307 12.746M613.748 591.108l-7.157 4.8M628.908 602.747l-15.16-11.638M625.153 608.743l3.755-6M619.393 607.693l5.76 1.05M615.63 621.75l3.762-14.058M603.927 610.79l11.7 10.962M603.283 608.653l.645 2.137M624.175 223.724l2.865 2.04M626.965 223.5l-2.79.226M627.04 225.763l-.075-2.265M627.1 221.447l.744 2.217M628.14 221.824l-1.037-.377M627.848 223.664l.293-1.84M617.562 220.465l2.248.5M618.8 218.27l-1.237 2.195M619.81 220.963l-1.01-2.693M629.14 218l.422 1.923M630.157 218.345L629.14 218M629.563 219.928l.594-1.582M627.942 217.77l-2.61-2.08M623.427 224.063l4.515-6.294M619.427 218.247l4 5.816M625.333 215.69l-5.906 2.558M399.116 433.38l5.323.62M410.864 433.888l-11.75-.508M404.44 434l6.424-.112M428.922 411.585l2.583-1.047M428.4 413.46l.526-1.875M426.967 413.885l1.43-.424M423 411.314l3.966 2.57M429.877 406.405l-6.877 4.91M432.745 407.673l-2.87-1.268M432.745 408.823v-1.15M431.5 410.538l1.24-1.715M421.866 411.007l5.03-5.388M421.7 405.68l.166 5.327M426.9 405.62l-5.2.06M417.293 396.213l.688 1.48M419.586 393.325l-2.293 2.888M417.98 397.694l1.606-4.37M419.54 392.64l1.046-.527M422.605 390.63l-3.064 2.01M420.586 392.113l2.02-1.484M451.055 392l-4.557-3.928M448.934 405.458l2.12-13.458M444.024 407.562l4.91-2.1M449.122 411.19l-5.1-3.628M445.92 420.467l3.2-9.276M434.193 423.927l11.726-3.46M437.708 431.384l-3.515-7.457M432.87 440.46l4.838-9.076M434.86 446.66l-1.99-6.2M429.84 444.894l5.02 1.766M432.66 438.084l-2.82 6.81M421.726 430.93l10.933 7.154M411.047 433.352l10.68-2.42M400.063 429.862l10.984 3.49M411.5 431.758l-11.44-1.9M403.4 426.07l8.1 5.688M409.9 426.6l-6.5-.527M405.81 423.77l4.09 2.828M415.54 409.51l-9.73 14.258M426.91 414.23l-11.37-4.72M428.388 413.818l-1.478.412M429.62 411.893l-1.232 1.925M431.644 410.76l-2.023 1.133M433.05 408.446l-1.406 2.314M432.738 406.276l.312 2.17M429.28 405.123l3.458 1.153M429.275 402.908v2.215M430.888 401.11l-1.613 1.8M426.155 400.22l4.734.89M426.858 398.275l-.7 1.945M426.094 395.894l.763 2.38M422.523 398.643l3.572-2.75M425.282 404.044l-2.76-5.4M421.617 405.668l3.666-1.624M421.55 411.413l.067-5.744M415.48 409.286l6.07 2.127M417.567 398.474l-2.087 10.81M446.5 388.072l-28.93 10.4M423.45 389.03l.6.542M429.042 387.352l-5.59 1.678M424.05 389.572l4.992-2.22M434.106 387.01h-3.478M429.734 387.49l4.373-.48M430.628 387.01l-.895.48M436.715 386.222l-.188 1M439.317 386.1l-2.6.12M436.527 387.22l2.79-1.118M471.61 267.193l.225.08M471.75 266.62l-.142.574M472.075 266.576l-.323.043M472.075 266.97v-.394M471.834 267.272l.24-.3M433.956 252.483l.23.138M434.144 252.315l-.188.168M434.185 252.62l-.04-.305M428.587 248.454l2.41 1.384M430.49 248.49l-1.9-.036M431 249.838l-.508-1.347M433.478 244.658l.583 1.213M435.5 245.01l-2.023-.352M434.06 245.87l1.44-.86M423.267 248.022l1.793-1.9M423.65 241l-.382 7.02M425.06 246.12l-1.41-5.12M423.18 236.49l1.55-5.833M422.62 228.884l.56 7.606M424.73 230.657l-2.11-1.773M424.906 226.116l1.85 5.8M427.5 228.292l-2.6-2.176M426.756 231.92l.748-3.628M426.05 225.432l2.22 2.672M430.072 223.182l-4.023 2.25M428.27 228.1l1.8-4.923M423.44 224.372l1.353.715M423.5 221.922l-.064 2.45M424.794 225.086l-1.29-3.164M433.674 221.28l.414 1.518M434.93 221.243l-1.256.038M434.087 222.8l.842-1.554M423.87 218.4l.232.25M424.324 218.3l-.455.1M424.1 218.648l.222-.348M420.447 218.452l2.233 1.726M420.387 213.574l.06 4.878M422.68 220.177l-2.292-6.6M421.177 210.728l2.632 3.356M423.594 212.057l-2.417-1.33M423.808 214.084l-.214-2.028M420.177 208.685l3.5 2.73M422.812 209.436l-2.635-.75M423.673 211.416l-.86-1.98M426.038 210.927l2.572 2.54M430.313 206.538l-4.275 4.39M428.61 213.467l1.7-6.93M419.2 205.17l4.113 4.166M420.895 205.662l-1.7-.492M423.308 209.336l-2.414-3.674M416.17 197.547l.886.543M416.13 195.932l.04 1.615M417.056 198.09l-.925-2.157M418.522 196.492l2.46-1.68M418.3 193.637l.226 2.855M420.98 194.813l-2.683-1.176M418.515 173.95l1.76 1.9M424.17 173.807l-5.656.143M420.274 175.852l3.895-2.045M421.3 168.973l.79 2.608M422.887 169.582l-1.59-.61M422.087 171.58l.8-2M428.016 162.87l1.917 1.073M432.1 161.458l-4.087 1.413M429.933 163.943l2.17-2.485M432.06 158.722l.482 3.7M434.4 157.432l-2.335 1.29M432.542 162.42l1.854-4.987M435.012 156.718l3.124 1.282M439.216 157.367l-4.2-.65M438.136 158l1.08-.633M443.494 149.5l1.177.418M447.145 148.678l-3.65.82M444.67 149.915l2.475-1.237M445.2 144.643l1.5 2.032M447.43 144.675l-2.23-.033M446.7 146.675l.733-2M453.183 140.158l2.474 1.43M457.87 139.976l-4.687.182M455.656 141.59l2.214-1.615M457.43 138.376l1.764.98M460.623 137.687l-3.192.69M459.194 139.354l1.43-1.667M460.773 134.91l1.812.907M464.292 135.475l-3.52-.566M462.585 135.817l1.707-.34M465.42 132.08l1.643 3.213M467.69 131.545l-2.27.535M469.567 134.384l-1.876-2.84M467.063 135.292l2.5-.908M467.6 130.1l1.094.385M470.917 129.653l-3.312.444M468.7 130.483l2.218-.83M458.77 127.866l5.2 1.343M463.01 126.025l-4.24 1.84M463.965 129.21l-.955-3.185M465.56 126.084l2.9 1.1M477.692 123.05l-12.132 3.034M468.458 127.186l9.234-4.137M472.522 119l.188-3.452M465.424 119.57l7.1-.567M472.71 115.55l-7.286 4.02M504.75 93.918l3.763-.227M502.9 90.075l1.853 3.843M508.513 93.69l-5.613-3.615M506.58 91.09l.55-1.683M504.757 89.583l1.823 1.51M507.13 89.407l-2.372.176M500.005 83.22l5.91-1.265M503.81 79.862l-3.8 3.36M505.915 81.955l-2.105-2.093M498.738 82.734l5.136-3.37M499.366 80.865l-.628 1.87M503.874 79.365l-4.508 1.5M509.566 76.32l1.425-.142M512.833 74.625l-3.267 1.7M510.99 76.178l1.843-1.553M515.66 75.82l2.365.8M518.394 71.573l-2.733 4.248M520.176 74.74l-1.782-3.167M519.766 75.562l.41-.82M518.025 76.624l1.74-1.062M519.4 59.618l-2.474 11.856M522.713 65.625l-3.313-6.007M516.927 71.474l5.786-5.85M512.64 58.28l2.918-.328M514.48 55.407l-1.838 2.873M515.56 57.953l-1.08-2.546M521.525 49.162l1.726-.11M523.676 45.277l-2.15 3.884M528.14 45.342l-4.464-.064M523.25 49.05l4.89-3.708M523.533 38.35l-2.854 6.53M524.8 42.136l-1.27-3.786M520.68 44.88l4.123-2.743M525.6 37.352l1.094 1.11M527.695 36.344l-2.1 1.01M526.69 38.463l1-2.12M528.507 38.062l.756-.062M531.586 36.344l-3.08 1.718M529.263 38l2.323-1.652M545.576 11.7l.89-4.64M542.858 8.953l2.718 2.747M546.467 7.06l-3.61 1.893M424.912 181.164l.814-.136M425.84 181.21l-.928-.046M425.726 181.028l.114.183M420.327 178.646l5.4 2.382M445.035 173.16l-24.708 5.486M423.17 172.467l21.865.694M426.628 168.9l-3.46 3.566M423.2 163.234l3.43 5.667M439.535 167.77l-16.335-4.536M433.59 163.12l5.945 4.65M438.85 158.584l-5.26 4.537M441.983 166.34l-3.132-7.756M439.956 158.64l2.026 7.7M446.558 157.32l-6.6 1.32M448.818 166.87l-2.26-9.55M453.86 162.637l-5.043 4.235M445.276 155.466l8.583 7.17M438.182 156.328l7.094-.862M443.5 154.878l-5.314 1.45M438.043 152.638l5.453 2.24M463.736 149.244l-25.693 3.394M447.678 148.284l16.057.96M448.727 141.02l-1.05 7.265M469.19 150.308l-20.463-9.29M460.134 139.736l9.057 10.573M468.954 144.766l-8.82-5.03M463.924 136.457l5.03 8.31M474.47 133.867l-10.546 2.59M468.236 131.253l6.233 2.614M472.1 129.7l-3.87 1.557M470.6 127.765l1.5 1.93M475.372 126l-4.767 1.766M481.094 128.74l-5.722-2.74M477.33 125.495l3.764 3.245M484.068 121.248l-6.737 4.246M492.313 132.23l-8.245-10.98M489.478 127.858l2.835 4.373M501.16 126.5l-11.682 1.362M497.757 123.5l3.4 3M508.543 116.258l-10.786 7.242M503.6 113.462l4.944 2.8M509.043 109.113l-5.444 4.35M506.69 108.718l2.354.395M507.224 106.293l-.534 2.425M506.513 106.113l.71.18M504.814 109.465l1.7-3.352M496.61 115.713l8.2-6.248M501.077 112.975l-4.466 2.738M503.42 114.716l-2.343-1.74M501.588 117.763l1.83-3.047M489.486 125.133l12.1-7.37M485.986 120.07l3.5 5.062M490.17 117.032l-4.184 3.04M482.666 116.98l7.5.052M491.407 111.855l-8.74 5.126M488.6 110l2.808 1.85M495.543 96.528L488.6 110M502 90.943l-6.455 5.585M505.374 99.9L502 90.943M512.228 91.626l-6.854 8.274M508.307 87.473l3.92 4.153M518.946 80.28l-10.64 7.193M506.4 81.99l12.55-1.71M515.57 76.16l-9.17 5.83M516.172 77.434l-.6-1.274M516.55 76.48l-.38.954M517.924 77.016l-1.372-.535M524.364 73.98l-6.44 3.036M528.627 68.34l-4.263 5.64M519.277 70.918l9.35-2.58M524.544 64.75l-5.267 6.168M520.792 57.27l3.752 7.48M526.582 57.643l-5.79-.374M524.943 48.388l1.64 9.255M531.812 50.633l-6.87-2.245M531.094 47.613l.718 3.02M528.522 46.46l2.572 1.153M528.894 44.222l-.372 2.238M525.03 43.4l3.864.824M544.963 34.857L525.03 43.4M529.812 39.413l15.15-4.556M536.7 35.465l-6.89 3.948M529.037 28.2l7.666 7.262M539.263 25.357L529.037 28.2M532.53 21.58l6.734 3.777M542.854 19.143L532.53 21.58M536.846 14.217l6.008 4.926M566.525 5.684l-29.68 8.533M547.873 3.54l18.652 2.144M557-8.32l-9.127 11.86M565.175 2.4L557-8.32M563.836-5.005l1.34 7.405M574.837 11.064L571.21-2.7M561.423 29.5l13.414-18.44M562.848 36.13l-1.425-6.63M549.813 41.208l13.035-5.08M549.65 68.168l.163-26.96M538.41 91.53l11.24-23.362M544.553 95.06l-6.143-3.53M542.82 109.156l1.733-14.095M528.6 108.065l14.215 1.09M517.8 122.458l10.8-14.393M515.048 131.9l2.748-9.44M519.913 161.79l-4.865-29.89M517.593 177.155l2.32-15.366M527.5 187.555l-9.9-10.4M518.75 197.664l8.746-10.11M523.954 211.118l-5.2-13.454M522.6 222.21l1.357-11.092M513.418 229.378l9.18-7.17M512.54 249.516l.878-20.138M508.183 252.216l4.357-2.7M499.633 246.98l8.55 5.236M496.388 232.538l3.245 14.442M498.968 228.277l-2.58 4.26M495.98 228.592l2.988-.315M496.392 237.507l-.414-8.915M491.847 232.568l4.545 4.938M495.828 243.686l-3.98-11.118M491.967 250.876l3.86-7.19M482.624 248.872l9.343 2M484.685 252.337l-2.06-3.465M480.846 256.05l3.84-3.713M477.89 260.826l2.956-4.776M475.248 262.386l2.643-1.56M471.415 266.44l3.833-4.054M471.135 268.112l.28-1.672M468.676 270.868l2.46-2.757M465.127 272.625l3.55-1.757M464.627 274.84l.5-2.215M442.79 276l21.837-1.16M445.084 271.69L442.79 276M427.36 258.583l17.724 13.107M428.647 251.03l-1.286 7.553M436.982 256.29l-8.335-5.26M443.137 250.533l-6.155 5.757M432.892 249.992l10.245.54M441.046 237.18l-8.155 12.81M428.083 244.636l12.963-7.456M423.575 238.433l4.508 6.2M438.847 229.453l-15.272 8.98M430.617 229.737l8.23-.284M437.47 217.185l-6.853 12.552M443.37 214.046l-5.9 3.14M441.753 223.144l1.617-9.1M449.7 211.744l-7.944 11.4M437.69 213.985l12.007-2.24M431.28 225.583l6.41-11.6M431.106 214.686l.173 10.9M426.73 221.7l4.376-7.018M423.09 215.8l3.64 5.908M430.674 212.835l-7.584 2.965M430.65 206.23l.024 6.6M424.7 210.124l5.948-3.893M420.2 203.33l4.5 6.794M427.034 208.08l-6.83-4.75M424.365 204.023l2.67 4.056M428.388 201.286l-4.023 2.738M421.27 196.694l7.118 4.592M426.843 197.02l-5.572-.326M433.63 194.29l-6.787 2.73M439.738 196l-6.11-1.71M442.693 193.5l-2.955 2.5M449.776 201.626l-7.083-8.13M448.246 195.046l1.53 6.58M454.036 192.655l-5.79 2.39M452.348 189.475l1.688 3.18M456.01 184.246l-3.662 5.23M452.42 187.555l3.59-3.31M451.93 189.913l.49-2.358M453.025 192.413l-1.094-2.5M452 193.294l1.026-.88M447.633 194.657l4.367-1.363M442.336 191.617l5.3 3.04M444.223 186.456l-1.887 5.16M441.744 190.833l2.48-4.377M441.445 194.09l.3-3.257M431.305 193.458l10.14.63M426.542 195.816l4.763-2.358M420.534 190.484l6.008 5.332M429.75 187.61l-9.216 2.874M420.474 186.134l9.275 1.476M432.06 185l-11.586 1.132M422.936 182.907l9.125 2.1M424.872 182.023l-1.936.884M423.177 181.02l1.7 1M425.726 181.028l-2.55-.008M431.384 253.037l.316.233M431.463 253.314l-.08-.277M431.7 253.27l-.237.044M604.93 464.532l3.708 8.312M592.485 460.455l12.444 4.078M593.365 455.978l-.88 4.477M582.1 453.437l11.268 2.54M583.612 458.154l-1.515-4.717M578.736 460.45l4.876-2.296M572.833 453.767l5.9 6.68M574.675 448.715l-1.842 5.052M554.19 444.334l20.485 4.38M557.005 435.293l-2.816 9.042M551.09 423.69l5.915 11.6M551.644 407.043l-.553 16.647M545 400.557l6.647 6.486M546.708 381.624L545 400.557M551.29 378.94l-4.58 2.685M545.94 377.73l5.35 1.21M546.03 376.362l-.09 1.37M596.02 355.492l-49.99 20.87M601.65 355.257l-5.63.235M607.133 358.81l-5.482-3.552M602.6 357.455l4.53 1.354M605 364.644l-2.4-7.19M608.437 366.55l-3.433-1.9M619.14 363.992l-10.7 2.557M619.464 364.166l-.323-.173M613.72 367.117l5.744-2.95M621.44 364.59l-7.72 2.527M661.892 366.3l-40.454-1.714M671.612 375.938l-9.72-9.633M677.524 403.48l-5.912-27.542M667.03 413.485l10.5-10.005M673.434 417.962l-6.4-4.477M672.974 430.04l.46-12.078M679.833 450.724l-6.86-20.685M660.47 471.694l19.363-20.97M663.248 483.514l-2.778-11.82M658.81 481.934l4.44 1.58M646.1 474.53l12.71 7.4M625.194 479.95l20.9-5.42M617.088 471.12l8.106 8.83M608.638 472.845l8.45-1.724M127.25 776.777l-5.236-1.037M124.165 778.73l3.087-1.953M122.014 775.74l2.15 2.99M131.515 772.268l1.553-.9M132.53 771.146l-1.015 1.122M133.068 771.37l-.538-.223M12.41 707.013l2.492.273M13.955 706.373l-1.545.64M14.9 707.286l-.947-.913M3.42 692.277l3.786.41M13.36 692.943l-9.94-.666M7.206 692.686l6.155.257M264.242 619.85l-21.8 1.434M269.75 626.634l-5.508-6.785M259.674 636.753l10.076-10.12M258.516 660.605l1.158-23.852M251.54 660.7l6.975-.1M259.36 671.958l-7.82-11.258M254.4 681.97l4.958-10.012M259.572 686.65l-5.17-4.68M252.7 694.864l6.873-8.214M252.9 702.475l-.2-7.61M231.81 706.382l21.094-3.907M236.1 682.583l-4.29 23.8M229.19 682.483l6.91.1M231.89 673.327l-2.7 9.156M225.123 677.458l6.767-4.13M236.27 642.673l-11.147 34.785M235.13 619.87l1.14 22.8M242.49 616.22l-7.36 3.65M242.443 621.284l.047-5.065M640.112 537.925l-6.087 2.348M651.7 513.46l-11.583 24.465M663.367 504.92l-11.667 8.54M690.77 509.817l-27.4-4.9M713.99 498.786l-23.22 11.03M734.084 526.92l-20.1-28.134M735.372 554.388l-1.287-27.467M754.99 558.948l-19.618-4.56M753.435 566.445l1.555-7.5M744.217 564.1l9.22 2.345M740.358 586.722l3.858-22.623M719.422 579.21l20.936 7.513M697.683 588.987l21.74-9.776M680.76 587.9l16.923 1.084M663.1 584.946l17.66 2.957M665.388 580.554l-2.286 4.393M660.48 577.75l4.908 2.8M657.446 573.025l3.033 4.725M661.608 571.42l-4.163 1.606M657.74 568.54l3.868 2.878M653.237 572.934l4.5-4.393M643.14 567.2l10.1 5.737M644.673 560.114l-1.533 7.086M627.72 541.46l16.952 18.654M634.025 540.273l-6.306 1.186M713.99 498.786l20.1 28.135M729.156 494.83l-15.166 3.956M747.92 504.282l-18.764-9.452M748.5 515.206l-.575-10.924M758.857 527.717l-10.357-12.51M761.116 536.15l-2.26-8.432M745.923 534.34l15.193 1.81M745.62 543.57l.3-9.232M735.372 554.388l10.247-10.82M734.084 526.92l1.287 27.468M619.464 364.166l.632-.55M619.14 363.992l.324.173M622.808 360.2l-3.667 3.8M620.1 363.616l2.713-3.42M662.66 353.84l-19.1-8.393M661.892 366.3l.766-12.465M621.44 364.59l40.453 1.715M629.668 358.952l-8.23 5.64M622.463 359.855l7.2-.9M623.773 352.413l-1.31 7.442M636.947 344.61l-13.175 7.8M637.515 344.862l-.568-.253M631.47 352.6l6.046-7.74M640.732 353.016l-9.264-.412M641.293 345.517l-.56 7.5M643.56 345.447l-2.266.07M739.923 215.712l1.92 2.23M742.14 216.753l-2.217-1.04M741.844 217.944l.3-1.19M838.772 97.092l1.85 2.5M841.385 98.665l-2.613-1.574M840.62 99.594l.764-.93M894.538 88.37l6.722 3.686M900.464 89.293l-5.925-.922M834.31 73.167l3.6 5.958M838.5 72.863l-4.192.3M837.91 79.125l.59-6.262M844.813 71.806l-3.237.35M839.975 72.424l4.84-.618M841.576 72.156l-1.6.27M894.92 593.606l3.39-3.79M878.1 576.89l16.82 16.716M848.528 559.47l29.572 17.42M853.743 557.733l-5.215 1.735M851.987 554.62l1.756 3.114M864.254 557.268l-12.268-2.65M862.28 550.933l1.975 6.336M867 543.2l-4.722 7.737M875.586 541.95L867 543.2M864.224 530.58l11.362 11.37M875.684 530.943l-11.46-.362M873.372 527.443l2.312 3.5M885.406 522.508l-12.035 4.935M871 521.862l14.4.646M871.917 512.89l-.917 8.972M879.365 506.812l-7.448 6.08M892.125 506.885l-12.76-.073M894.866 497.97l-2.74 8.915M890.237 491.452l4.628 6.52M895.918 486.15l-5.68 5.3M890.775 483.35l5.143 2.8M897.14 478.432l-6.365 4.918M896.772 471.1l.368 7.334M871.977 461.176l24.8 9.923M868.14 464.77l3.837-3.6M860.484 453.43l7.656 11.34M835.418 454.923l25.066-1.492M832.24 440.56l3.178 14.363M818.845 435.767l13.4 4.794M815 427.29l3.846 8.477M819.353 423.9L815 427.29M811.492 411.75l7.86 12.152M805.79 411.865l5.7-.114M783.678 417.332l22.113-5.466M776.68 396.92l7 20.41M796.634 387.005l-19.952 9.914M783.412 379.254l13.222 7.75M784.494 373.235l-1.082 6.02M770.11 356.27l14.383 16.965M773.47 350.388l-3.36 5.88M772.07 337.084l1.4 13.3M734.738 323.872l37.332 13.212M728.426 305.107l6.312 18.765M730.584 295.45l-2.158 9.657M723.965 289.582l6.62 5.867M730.07 281.013l-6.1 8.57M724.7 256.777l5.373 24.236M734.77 243.714l-10.07 13.063M732.678 239.226l2.09 4.488M733.55 230.717l-.87 8.51M762.86 225.89l-29.31 4.826M740.61 214.754l22.25 11.137M741.758 205.078l-1.147 9.676M729.863 210.307l11.895-5.23M781.04 142.6l-51.177 67.71M759.443 117.593l21.6 25M767.357 102.85l-7.914 14.743M754.616 80.572l12.74 22.28M757.082 57.087l-2.466 23.485M761.35 54.923l-4.268 2.164M747.014 15.28l14.336 39.642M759.92-12.735L747.015 15.28M895.873 36.334L911.39 17.28M876.037 43.89l19.836-7.555M784.64 6.333l91.4 37.556M810.052 31.4L784.64 6.333M804.37 35.044l5.682-3.64M825.143 48.913l-20.772-13.87M826.715 54.97l-1.572-6.057M823.023 52.13l3.692 2.84M822.9 63.7l.124-11.57M818.785 66.068L822.9 63.7M826.342 83.433l-7.557-17.365M824.335 92.633l2.008-9.2M859.893 115.747l-35.558-23.114M868.86 109.182l-8.967 6.566M867.525 99.88l1.335 9.3M856.235 97l11.29 2.884M846.693 80.1l9.542 16.9M854.713 71.573l-8.02 8.53M873.342 82.78l-18.63-11.207M868.447 89.688l4.895-6.91M901.727 93.026l-33.28-3.338M891.516 60.446l10.21 32.58M898.655 80l-.06 2.288M897.72 78.512l.935 1.488M898.6 82.292l-.876-3.78M854.76 897.405l.606.058M854.84 896.9l-.08.506M855.367 897.463l-.526-.564M837.463 865.565l-.04-.27M837.04 864.78l.424.785M837.422 865.294l-.383-.515M820.334 851.534l1.372 1.332M821.07 851.5l-.736.038M821.707 852.867l-.635-1.37M857.465 894.126l2.79 12.09M829.38 850.606l28.085 43.52M821.41 850.112l7.97.494M826.685 830.48l-5.275 19.632M841.69 833.148l-15-2.668M850.806 822.635l-9.117 10.513M861.082 820.488l-10.275 2.148M867.83 812.623l-6.75 7.865M854.348 796.81l13.482 15.813M884.01 786.464l-29.662 10.346M900.475 789.764l-16.466-3.3M550.354 535.73l-11.184-2.34M571.56 526.618l-21.205 9.112M578.275 534.38l-6.714-7.762M577.8 534.4l.48-.02M565.374 539.415L577.8 534.4M565.957 546.73l-.583-7.315M558.874 554.83l7.083-8.1M551.118 550.007l7.756 4.82M537.452 553.75l13.665-3.742M539.147 551.54l-1.695 2.21M541.884 550.74l-2.737.8M535.94 543.482l5.944 7.256M538.5 540.235l-2.56 3.247M534.628 537.892l3.872 2.343M539.17 533.39l-4.542 4.5M110.1 857.022l.947-2.05M107.558 855.5l2.542 1.524M111.047 854.97l-3.49.528M140.963 849.08l2.008 6.133M145.523 851.317l-4.56-2.237M142.97 855.213l2.554-3.9M119.112 848.833l1.92 2.382M122.022 849.408l-2.91-.576M121.033 851.215l.99-1.807M127.85 851.717l4.47-5.93M124.582 846.233l3.267 5.484M134.812 842.68l-10.23 3.554M132.32 845.79l2.492-3.11M165.77 839.916l-6.193 10.848M165.047 847.65l.722-7.734M159.577 850.764l5.47-3.113M111.16 838.4l.98 6.1M113.705 840l-2.545-1.6M112.14 844.5l1.565-4.5M166.006 837.52l3.282-.308M171.55 832.484l-5.544 5.037M169.288 837.212l2.263-4.728M313.606 734.786l.293 1.036M314.042 735.708l-.436-.92M313.9 735.823l.143-.115M281.137 726.257l.357-.59M280.464 725.01l.673 1.247M281.495 725.668l-1.03-.658M312.2 725.018l.2.05M312.52 724.874l-.324.144M312.4 725.07l.12-.196M372.31 678.614l2.537-.77M372.21 677.275l.1 1.34M374.847 677.843l-2.636-.568M369.9 674.187l4.327-.933M374.06 670.355l-4.165 3.832M374.223 673.254l-.162-2.9M400.59 659.97l-3.14-.416M394.957 667.818l5.632-7.848M385.49 662.7l9.467 5.12M393.93 656.446l-8.44 6.253M397.45 659.554l-3.52-3.108M411.372 658.292l-.04-2.734M404.882 654.572l6.49 3.72M411.33 655.558l-6.448-.986M258.142 591.534l-10.973-5.04M329.388 593.966l-71.246-2.432M345.882 604.685l-16.494-10.72M373.06 607.99l-27.177-3.3M376.82 609.69l-3.76-1.7M396.5 611.022l-19.68-1.333M396.468 621.415l.032-10.394M366.545 636.49l29.923-15.074M354.154 654.238l12.392-17.75M348.916 664.808l5.237-10.57M356.3 677.073l-7.38-12.264M346.567 684.118l9.73-7.045M343.807 696.446l2.76-12.328M331.246 700.44l12.56-3.994M324.674 711.317l6.572-10.877M293.962 711.472l30.713-.155M281.29 720.888l12.672-9.416M281 720.876l.288.013M271.776 720.59l9.224.286M267.47 709.13l4.3 11.46M252.9 702.475l14.567 6.654M252.7 694.864l.2 7.61M259.572 686.65l-6.873 8.214M254.4 681.97l5.17 4.68M259.36 671.958l-4.96 10.01M251.54 660.7l7.82 11.255M258.516 660.605l-6.974.1M259.674 636.753l-1.158 23.852M269.75 626.634l-10.076 10.12M264.242 619.85l5.508 6.784M242.443 621.284l21.8-1.435M242.49 616.22l-.046 5.064M235.13 619.87l7.36-3.65M233.052 617.035l2.08 2.834M237.368 612.582l-4.316 4.453M233.45 614.417l3.918-1.835M235.477 606.26l-2.026 8.157M231.12 609.332l4.356-3.07M228.845 597.815l2.275 11.516M247.17 586.493l-18.326 11.322M259.113 703.2l.65.67M259.37 703.714l-.257-.51M259.764 703.875l-.395-.16M575.743 322.39l5.628-15.11M585.01 294.292l-9.267 28.1M581.37 307.28l3.64-12.988M598.73 289.7l1.177 15.48M610.715 280.13l-11.985 9.57M599.906 305.175l10.81-25.047M612.358 281.882l2.82-2.957M611.118 280.32l1.24 1.562M615.178 278.925l-4.06 1.395M509.167 276.86l1.252 2.66M512.334 276.73l-3.166.13M510.42 279.52l1.913-2.79M580.586 275.225l.515-.4M580.89 274.642l-.3.584M581.1 274.827l-.21-.185M507.8 274.464l5.485.25M511.544 270.446l-3.74 4.018M513.288 274.713l-1.744-4.267M613.178 267.746l.68 1.4M615.133 268.4l-1.955-.653M613.86 269.144l1.274-.745M592.233 252.65l.707 1.42M592.73 250.452l-.5 2.2M592.94 254.072l-.21-3.62M601.952 250.97l.658.293M603.6 248.733l-1.65 2.24M602.61 251.264l.993-2.53M602.388 244.378l2 1.61M605.377 245.187l-2.99-.81M604.388 245.99l.99-.8M591.778 240.875l2.455 2.818M594.056 242.042l-2.278-1.167M594.233 243.693l-.177-1.65M594.647 244.562l-1.12-.486M592.01 243.833l2.636.73M590.624 240.83l1.387 3M593.526 244.076l-2.9-3.246M584.53 239.736l2.658 2.264M587.2 240.143l-2.666-.407M587.188 242l.007-1.854M604.835 237.952l.07 2.08M607.227 237.455l-2.39.5M604.907 240.032l2.32-2.578M602.546 215.28l2.286 1.57M602.18 211.59l.366 3.69M604.832 216.85l-2.65-5.26M588.552 155.66l1.92 3.168M589.973 156.05l-1.42-.39M590.474 158.828l-.5-2.776M597.647 147.9l.293 1.91M599.188 148.1l-1.54-.2M597.94 149.81l1.248-1.714M635.53 116.684l.642.663M636.755 116.684h-1.226M636.172 117.347l.583-.663M672.528 6.236l2.654-9.094M678.43 18.56l-5.9-12.324M673.75 35.175l4.68-16.614M680.586 51.795l-6.836-16.62M659.982 48.766l20.6 3.03M655.71 51.276l4.272-2.51M656.75 60.954l-1.04-9.678M648.1 54.813l8.647 6.14M653.95 60.627l-5.85-5.814M641.248 67.393l12.7-6.766M646.13 73.7l-4.883-6.31M638.21 83.875l7.92-10.175M645.64 96.03l-7.43-12.155M634.713 113.743L645.64 96.03M616.445 123.514l18.268-9.77M599.94 146.626l16.5-23.112M593.01 140.29l6.93 6.335M597.767 151.854l-4.756-11.563M588.034 155.213l9.734-3.36M592.444 162.677l-4.41-7.464M588.315 170.942l4.128-8.265M590.334 179.8l-2.02-8.86M585.48 177.41l4.855 2.392M585.62 199.267l-.14-21.86M611.76 231.7l-26.14-32.433M596.32 243.03l15.44-11.33M593.93 241.3l2.39 1.727M595.023 237.774l-1.094 3.53M593.29 234.29l1.732 3.483M591.6 234.483l1.692-.194M592.357 234.222l-.76.26M592.436 232.822l-.08 1.4M591.624 230.433l.812 2.39M589.6 233.947l2.023-3.514M590.934 236.706l-1.332-2.76M590.526 233.135l.407 3.572M591.95 232.464l-1.424.67M591.177 234.152l.774-1.688M594.23 237.7l-3.053-3.547M593.477 240.18l.752-2.48M588.774 234.512l4.7 5.668M570.322 238.79l18.452-4.277M582.093 241.76l-11.77-2.97M579.424 239.418l2.67 2.343M581.42 238.937l-2 .48M588.67 245.364l-7.25-6.427M588.33 243.325l.338 2.04M595.05 244.915l-6.72-1.59M601.034 242.153l-5.985 2.763M603.433 243.17l-2.4-1.018M603 240.424l.436 2.746M605.783 242.942L603 240.424M600.87 243.686l4.913-.744M601.33 248.4l-.46-4.717M595.692 255.592l5.64-7.19M592.568 247.457l3.124 8.135M588.32 258.38l4.247-10.923M572.668 261.628l15.65-3.248M582.75 265.347l-10.082-3.72M575.642 265.59l7.11-.244M581.21 272.69l-5.568-7.1M578.356 278.13l2.854-5.44M580.477 280.744l-2.12-2.613M576.755 278.166l3.722 2.578M579.53 284.41l-2.776-6.244M575.713 280.518l3.818 3.892M579.43 291.256l-3.717-10.738M568.228 325.28l11.2-34.024M552.407 323.606l15.82 1.673M545.918 331.613l6.49-8.007M545.6 342.255l.32-10.642M529.2 341.91l16.395.344M530.252 334.914l-1.05 7M522.022 320.278l8.23 14.635M526.917 321.862l-4.9-1.584M524.33 317.49l2.587 4.372M527.92 311.934l-3.59 5.555M511.833 285.5l16.088 26.436M514.367 272.368l-2.534 13.13M513.175 269.63l1.192 2.738M505.1 267.538l8.076 2.093M503.908 251.8l1.192 15.74M508.183 252.216l-4.275-.42M512.54 249.516l-4.357 2.7M513.418 229.378l-.878 20.138M522.6 222.21l-9.18 7.168M523.954 211.118l-1.354 11.09M518.75 197.664l5.2 13.454M527.5 187.555l-8.745 10.11M517.593 177.155l9.9 10.4M519.913 161.79l-2.32 15.365M515.048 131.9l4.865 29.892M517.8 122.458l-2.748 9.44M528.6 108.065l-10.8 14.393M542.82 109.156l-14.22-1.09M544.553 95.06l-1.733 14.096M538.41 91.53l6.143 3.53M549.65 68.168L538.41 91.53M549.813 41.208l-.162 26.96M562.848 36.13l-13.035 5.078M561.423 29.5l1.425 6.626M574.837 11.064L561.423 29.5M571.21-2.7l3.627 13.766M878.567 766.784l29.9-16.99M852.08 783.926l26.487-17.142M835.99 777.96l16.09 5.965M835.648 768.92l.342 9.04M849.184 753.31l-13.536 15.61M846.968 746.25l2.216 7.06M840.373 746.048l6.595.2M837.14 730.59l3.233 15.458M839.692 724.832l-2.552 5.76M850.084 719.655l-10.392 5.177M849.674 709.588l.41 10.067M884.46 712.433l-34.786-2.845M905.314 704.77l-20.855 7.663M469.57 512.234l-11.9.964M469.432 507.9l.14 4.335M482.975 513.255l-13.543-5.355M482.526 518.573l.45-5.318M481.728 522.895l.8-4.322M483.407 522.768l-1.678.127M495.217 526.586l-11.81-3.818M495.136 533l.08-6.414M489.52 533.126l5.617-.126M490.6 539.263l-1.08-6.137M479.12 533.994l11.478 5.268M475.8 546.855l3.32-12.86M467.676 534.633l8.125 12.222M459.817 545.275l7.86-10.642M448.75 545.024l11.067.25M445.41 535.206l3.34 9.818M434.25 539.61l11.16-4.4M448.107 514.122L434.25 539.61M456.2 512.372l-8.09 1.75M457.672 513.2l-1.475-.825M470.845 509.828l.537.288M470.954 510.185l-.11-.357M471.383 510.116l-.43.07M500.547 762.547l1.74-1.812M498.667 758.6l1.88 3.943M502.287 760.735l-3.62-2.13M502.848 746.542l.4-.38M501.847 745.92l1 .62M503.25 746.162l-1.4-.242M505.5 743.19l-1.267 2.4M506.464 743.482l-.966-.293M504.23 745.59l2.234-2.108M499.558 704.63l.226.117M499.866 704.648l-.308-.02M499.783 704.747l.083-.1M492.257 703.61l-5.512.8M494.01 711.453l-1.753-7.843M503.29 705.9l-9.282 5.55M495 721.546l8.29-15.644M504.118 736.334L495 721.546M488.918 753.932l15.2-17.6M493.332 761.544l-4.414-7.613M503.032 762.9l-9.7-1.355M504.69 769.484l-1.658-6.585M509.494 770.127l-4.8-.642M510.055 781.865l-.56-11.738M492.727 793.812l17.328-11.948M491.73 809.058l1-15.245M482.574 816.855l9.156-7.8M476.052 787.343l6.522 29.512M466.488 780.4l9.565 6.94M454.9 758.5l11.588 21.9M465.176 746.1L454.9 758.5M464.255 714.812l.92 31.286M470.19 707.766l-5.935 7.046M484.406 701.03l-14.218 6.736M486.745 704.41l-2.338-3.38M473.9 697.83l.293.257M474.556 697.622l-.658.21M474.19 698.087l.366-.465M705.056 657.877l1.395.817M706.42 657.705l-1.364.172M706.45 658.694l-.03-.99M700.845 652.64l2.173.463M705.58 652.09l-4.734.552M703.02 653.1l2.56-1.013M726.118 643.367l1.03 1.357M728.88 643.614l-2.762-.248M727.148 644.724l1.733-1.11M834.06 625.578l-5.54-5.875M841.433 624.6l-7.373.976M846.55 632.715l-5.117-8.113M872.7 638.7l-26.152-5.985M896.91 638.506l-24.21.194M915.61 627.644l-18.7 10.862M884.46 712.433l20.854-7.662M849.674 709.588l34.785 2.845M850.084 719.655l-.41-10.067M839.692 724.832l10.392-5.177M837.817 718.373l1.875 6.46M843.69 712.607l-5.874 5.766M841.04 708.02l2.65 4.587M831.81 714.56l9.23-6.54M822.6 710.07l9.21 4.49M813.518 718.955l9.08-8.887M797.55 723.183l15.968-4.228M773.7 709.327l23.85 13.856M767.97 709.3l5.73.028M765.04 720.2l2.93-10.9M755.165 721.63l9.877-1.43M738.61 708.782l16.555 12.848M732.246 714.33l6.365-5.55M734.066 710.153l-1.82 4.177M724.065 712.17l10-2.016M736.912 706.1l-12.847 6.07M722.347 707.324l14.565-1.224M726.986 702.827l-4.64 4.5M721.554 700.814l5.433 2.013M722.554 690.476l-1 10.338M709.128 685.162l13.426 5.313M710.4 678.29l-1.275 6.872M714.628 684.42l-4.226-6.13M721.12 682.065l-6.492 2.355M715.286 678.57l5.835 3.495M719.8 674.6l-4.515 3.968M714.12 667.828l5.68 6.772M718.275 662.753l-4.154 5.075M706.3 663.976l11.97-1.223M714.967 648.055l-8.667 15.92M745.8 648.553l-30.833-.5M743.228 645.095l2.572 3.46M758.7 642.018l-15.467 3.077M747.75 638.61l10.945 3.408M748.247 633l-.5 5.605M776.2 635.482L748.247 633M804.657 618.635L776.2 635.482M828.52 619.7l-23.863-1.067M732.64 619.328l-8.364-.47M733.69 625.7l-1.05-6.37M746.53 636.05l-12.84-10.35M725.828 637.37l20.7-1.32M707.846 654.076l17.982-16.706M716.587 644.328l-8.74 9.75M706 641.8l10.587 2.523M713.974 630.7L706 641.8M710.282 624.255l3.692 6.448M724.276 618.858l-13.994 5.4M267.986 464.515l.36.064M268.29 464.124l-.3.39M268.347 464.58l-.056-.456M332.242 448.727l6.906-.575M335.938 446.346l-3.7 2.38M339.15 448.152l-3.212-1.806M339.653 446.05l1.14.177M340.352 445.085l-.7.964M340.792 446.227l-.44-1.142M290.24 437.976l.293.042M290.345 437.25l-.105.726M290.533 438.018l-.188-.768M289.96 390.673l1.66 1.42M290.94 390.22l-.98.453M291.62 392.094l-.68-1.874M293.91 394.64l3.368-2.25M291.65 388.71l2.26 5.932M297.278 392.39l-5.628-3.682M276.506 355.975l-9-10.192M273.524 360.693l2.98-4.718M280 363.52l-6.478-2.827M268.67 372.418l11.332-8.9M258.33 365.05l10.34 7.368M251.177 371.792l7.155-6.74M243.056 364.49l8.12 7.3M253.248 352.512l-10.192 11.977M255.33 349.744l-2.082 2.768M267.5 345.783l-12.17 3.96M269.734 345.262l.21-.792M268.46 344.49l1.275.772M269.945 344.47l-1.485.02M280.66 335.5l3.756 5.5M283.65 335.247l-2.99.253M284.416 341l-.767-5.757M271.246 335.947l-.61-5.506M265.392 335.174l5.854.773M270.637 330.44l-5.245 4.733M283.025 329.944l2.572 4.275M285.326 331.432l-2.3-1.487M285.6 334.22l-.27-2.788M268.723 326.64l.936.167M270.513 324.584l-1.79 2.055M269.66 326.807l.852-2.223M271.216 329.8l1.784 1.82M276.42 323.943l-5.2 5.853M273 331.62l3.418-7.677M276.68 322.856l-.81.824M276.67 323.4l.01-.547M275.87 323.68l.8-.277M277.13 321.192l.162 1.542M277.61 321.335l-.48-.142M277.29 322.735l.32-1.4M277.08 320.2l.392.786M277.915 319.743l-.835.454M277.472 320.983l.444-1.24M266.377 319.966l.43.17M267.114 319.227l-.737.74M266.806 320.136l.308-.908M277.863 318.046l.6.156M278.916 317.51l-1.053.537M278.46 318.2l.456-.693M268.764 315.775l1.275.422M269.366 315.387l-.6.388M270.04 316.2l-.674-.81M260.2 316.837l2.08-1.893M258.873 315.47l1.327 1.367M262.28 314.944l-3.407.525M277.043 316.9l-1.83-1.79M274.874 319.8l2.17-2.892M267.328 320.007l7.546-.21M272.043 318.4l-4.715 1.608M269.663 318.725l2.38-.326M272.246 315.475l-2.583 3.25M267.952 312.8l4.294 2.674M275.212 315.114l-7.26-2.312M262.824 313.37h1.485M266.133 310.757l-3.308 2.61M264.31 313.37l1.822-2.612M269.4 305.3l.925.915M270.746 304.666l-1.346.634M270.325 306.215l.42-1.55M266.17 302.838l1.816 1.786M268.742 302.05l-2.572.788M267.986 304.624l.756-2.574M251.17 303.976l1.258.483M252.8 301.636l-1.628 2.34M252.43 304.46l.367-2.824M264.13 301.836l1.4-.145M264.847 301.3l-.718.54M265.527 301.69l-.68-.393M272.043 295.212l1.064.842M273.178 295.212h-1.135M273.107 296.054l.07-.842M253.587 300.287l2.143-5.722M253 293.442l.59 6.845M255.73 294.564l-2.73-1.122M253.248 291.382l1.86 1.64M255.978 291.466l-2.73-.084M255.11 293.023l.867-1.557M271.223 293.142l.7 1.645M272.554 290.585l-1.33 2.557M271.92 294.787l.634-4.2M270.562 295.35l-.226-6.586M276.833 297.88l-6.27-2.53M272.122 302.437l4.71-4.556M261.647 291.836l10.474 10.6M270.336 288.764l-8.69 3.072M272.408 289.45l.312.456M272.8 288.59l-.395.86M272.72 289.906l.083-1.317M256.666 290.242l-.47-4.49M251.395 288.19l5.27 2.052M256.2 285.75l-4.8 2.438M255.782 285.23l.3.142M256.79 284.83l-1.008.4M256.087 285.372l.7-.542M237.33 282.92l.368-.3M236.8 282.313l.526.607M237.7 282.616l-.895-.3M257.7 280.857l.966-.035M258.835 279.874l-1.14.983M258.662 280.822l.173-.948M265.87 279.32l3.65-10.664M257.083 282.447l8.786-3.125M261.046 280.327l-3.963 2.12M258.2 271.818l2.846 8.508M269.52 268.656l-11.32 3.162M260.24 271.326l1.185 1.27M260.52 272.575l-.278-1.25M261.426 272.6l-.906-.022M316.914 389.654l-19.637 2.735M311.433 384.988l5.482 4.665M315.41 369.576l-3.978 15.412M309.827 372.446l5.583-2.87M304.3 362.858l5.523 9.588M312.576 352.105l-8.276 10.753M294.033 353.578l18.543-1.473M294.112 359.036l-.08-5.458M287.818 354.506l6.294 4.53M286.615 359.66l1.2-5.154M283.46 351.4l3.155 8.262M291.052 339.658l-7.59 11.74M287.446 329.06l3.606 10.6M292.834 329.42l-5.388-.36M288.138 324.77l4.7 4.65M281.713 331.124l6.425-6.353M285.382 321.87l-3.67 9.254M275.295 344.384l10.087-22.515M278.055 319.62l-2.76 24.765M284.36 315.142l-6.3 4.48M280.422 315.855l3.937-.714M284.194 307.534l-3.772 8.32M276.656 315.482l7.538-7.948M272.17 311.954l4.486 3.528M278.416 310.614l-6.245 1.34M269.1 309.942l9.313.67M280.408 300.356l-11.308 9.586M277.026 298.965l3.382 1.39M279.724 292.486l-2.7 6.48M274.73 293.9l4.994-1.416M278.934 289.6l-4.2 4.3M274.765 282.34l4.17 7.265M284.427 281.6l-9.662.74M279.656 275.844l4.77 5.755M285.754 261.736l-6.1 14.108M312.542 261.108l-26.787.63M310.064 269.988l2.478-8.88M294.044 280.214l16.02-10.225M302.425 281.592l-8.38-1.38M293.454 288.59l8.97-7M325.4 285.442l-31.946 3.147M329.49 291.536l-4.09-6.094M319.287 313.4l10.2-21.867M309.124 318.82l10.162-5.417M318.535 321l-9.41-2.183M303.07 326.848L318.536 321M317.88 326.188l-14.81.66M331.378 337.6l-13.5-11.416M335.93 356.973L331.38 337.6M352.477 372.14l-16.546-15.167M355.09 384.7l-2.613-12.56M343.762 381.61l11.328 3.09M356.68 388.45l-12.918-6.84M358.116 395.318l-1.436-6.868M353.492 400.18l4.624-4.862M370.846 399.1l-17.354 1.076M377.17 409.637l-6.324-10.537M370.053 423.9l7.117-14.265M362.962 425.858l7.09-1.956M366.357 428.325l-3.395-2.467M358.673 431.716l7.685-3.39M372.245 433.078l-13.572-1.363M366.688 442.916l5.557-9.838M356.77 447.07l9.918-4.154M350.04 445.18l6.73 1.89M342.713 447.344l7.328-2.164M340.946 444.9l1.767 2.444M337.863 444.8l3.083.1M320.542 451.26l17.32-6.46M313.907 447.2l6.636 4.058M303.188 458.37l10.72-11.17M294.21 455.04l8.978 3.33M283.205 463.674l11-8.633M276.175 461.6l7.03 2.07M296.29 437.376L276.174 461.6M312.5 437.01l-16.215.366M321.28 425.07l-8.78 11.94M308.2 433.277l13.076-8.208M282.476 425.622l25.727 7.655M297.582 412.324l-15.106 13.3M297.545 399.4l.038 12.926M289.055 402.21l8.49-2.812M297.278 392.39l-8.223 9.82M365.793 432.445l-.056 1.277M363.44 432.632l2.354-.187M365.737 433.722l-2.3-1.09M312.388 256.66l1.605 2.248M314.425 256.3l-2.038.363M313.993 258.91l.432-2.612M307.23 254.407l2.525 3.364M311.064 257.11l-3.835-2.7M309.756 257.77l1.308-.66M310.248 254.224l5.44-1.056M308.132 249.09l2.117 5.134M315.69 253.168l-7.558-4.077M318.9 243.892l-1.7 2.838M321.14 244.422l-2.237-.53M317.2 246.73l3.94-2.308M314.546 245.864l-.17-1.765M311.854 243.14l2.692 2.724M314.377 244.1l-2.523-.958M339.453 213.117l-3.5-1.29M336.322 229.243l3.132-16.126M336.013 218.664l.308 10.58M330.577 217.618l5.436 1.046M335.95 211.828l-5.374 5.79M337.652 210.835l1.906.863M338.622 205.24l-.97 5.6M339.56 211.7l-.937-6.46M340.423 206.4l1.974-.023M341.6 202.065l-1.18 4.334M343.232 202.806l-1.628-.74M342.4 206.377l.835-3.57M796.882 543l3.8.482M799.668 542.735l-2.786.26M800.683 543.477l-1.015-.742M815.81 541.738l.94.754M816.774 540.034l-.962 1.7M816.75 542.492l.024-2.457M780.975 538.752l7.9 2.1M779.85 536.53l1.125 2.222M788.874 540.854l-9.023-4.323M811.492 411.75l-5.7.115M819.353 423.9l-7.86-12.15M815 427.29l4.354-3.387M818.845 435.767L815 427.29M832.24 440.562l-13.4-4.794M835.418 454.923l-3.177-14.362M860.484 453.43l-25.066 1.493M868.14 464.77l-7.657-11.34M871.977 461.176l-3.838 3.6M896.772 471.1l-24.8-9.923M897.14 478.432l-.368-7.334M890.775 483.35l6.365-4.918M895.918 486.15l-5.143-2.8M890.237 491.452l5.68-5.3M894.866 497.97l-4.628-6.518M892.125 506.885l2.74-8.914M879.364 506.812l12.76.073M871.917 512.89l7.448-6.078M871 521.862l.914-8.97M839.486 530.937L871 521.862M827.008 542.22l12.478-11.283M829.888 535.026l-2.88 7.194M827.925 538.66l1.963-3.634M823.18 540.268l4.745-1.608M821.274 543.99l1.906-3.722M819.11 543.428l2.165.563M821.015 540.04l-1.906 3.39M809.232 539.388l11.783.652M822.244 544.835l-13.012-5.447M819.906 548.225l2.34-3.39M828.92 556.75l-9.015-8.525M831.85 556.627l-2.93.123M827.887 551.2l3.963 5.43M824 543.4l3.887 7.8M822.7 541.874l1.3 1.526M824.868 542.345l-2.17-.47M827.936 550.422l-3.068-8.077M831.425 555.653l-3.49-5.232M833.64 557.424l-2.214-1.77M849.366 555.787l-15.727 1.636M846.693 561.755l2.673-5.968M834.18 560.785l12.513.97M813.07 574.793l21.11-14.007M805.1 571.036l7.967 3.757M807.473 560.865l-2.37 10.17M793.107 555.407l14.366 5.458M810.586 545.246l-17.48 10.16M808.413 540.827l2.173 4.42M783.787 538.17l24.626 2.657M787.4 535.96l-3.617 2.21M779.94 532.344l7.464 3.615M795.363 531.134l-15.422 1.21M786.87 531.364l8.493-.23M783.212 519l3.658 12.368M785.35 530.98L783.213 519M770.8 532.962l14.546-1.98M762.94 546.1l7.865-13.138M756.108 551.088l6.83-4.99M754.574 547.18l1.534 3.91M754.99 558.948l-.416-11.77M735.372 554.388l19.618 4.56M745.62 543.57l-10.248 10.818M745.923 534.34l-.3 9.23M761.116 536.15l-15.193-1.81M758.857 527.717l2.26 8.432M748.5 515.206l10.362 12.51M747.92 504.282l.575 10.924M729.156 494.83l18.764 9.452M713.99 498.786l15.165-3.956M690.77 509.817l23.22-11.03M663.367 504.92l27.4 4.9M653.305 495.635l10.06 9.285M658.81 481.934l-5.5 13.7M663.248 483.514l-4.44-1.58M660.47 471.694l2.78 11.82M679.833 450.724l-19.362 20.97M672.974 430.04l6.86 20.684M683.694 422.2l-10.72 7.84M702.36 421.047l-18.666 1.153M767 436.022l-64.636-14.975M772.3 418.086l-5.3 17.936M783.678 417.332l-11.38.755M805.79 411.865l-22.112 5.466M522.81 582.232l-1.274.545M522.123 583.94l.688-1.707M521.536 582.777l.587 1.162M157.505 879.28l-5.7 22.226M169.77 870.805l-12.265 8.474M175.172 856.572l-5.4 14.233M236.19 856.577h-61.018M236.19 862.316v-5.74M236.187 881.854v-19.538M191.068 881.858h45.12M191.07 919.794v-37.936M628.908 602.747l-3.755 6M613.748 591.108l15.16 11.638M617.565 588l-3.817 3.112M613.86 581.78l3.705 6.22M619.05 581.075l-5.19.7M612.065 575.27l6.984 5.8M615.678 565.13l-3.613 10.14M611.19 565.66l4.488-.53M616.39 558.68l-5.2 6.98M610.385 555.738l6 2.94M608.175 545.393l2.21 10.345M627.72 541.46l-19.545 3.934M644.673 560.114L627.72 541.46M643.14 567.2l1.532-7.083M653.237 572.934l-10.1-5.737M657.74 568.54l-4.5 4.394M661.608 571.42l-3.867-2.878M657.446 573.025l4.163-1.607M660.48 577.75l-3.034-4.724M656.226 585.238l4.253-7.487M664.858 597.073l-8.632-11.835M657.24 603.942l7.618-6.87M656.2 613.09l1.04-9.148M632.167 621.148l24.033-8.058M625.153 608.743l7.014 12.4M522.022 620.68l-.09.088M522.09 620.8l-.07-.12M521.933 620.768l.157.03M317.35 474.577l1.075.243M319.632 473.044l-2.282 1.533M318.426 474.82l1.207-1.776M323.644 479.836l2.575-.69M323.076 478.34l.568 1.5M326.22 479.146l-3.144-.806"/><g class="cls-2"><path class="cls-1" d="M530.9 512.582l17.813-280M530.9 512.582L107.123 77.38M530.9 512.582l172.113-381.317M530.9 512.582l164.137-255.6M415.347 447.753l133.37-215.173M415.347 447.753l60-237.567M590.2 574.756l112.813-443.49M561.63 465.186L548.717 232.58M561.63 465.186L107.123 77.38M561.63 465.186L695.04 256.98M492.04 334.064l-16.694-123.878M492.04 334.064L107.123 77.38M492.04 334.064l210.974-202.8M492.04 334.064l203-77.086M695.04 256.98L307.834 357.01M695.04 256.98L298 653.43M695.04 256.98L615.47 487.5M695.04 256.98L245.4 652.89M695.04 256.98L609.69 416.16M695.04 256.98l-219.694-46.794M695.04 256.98l-21.41 84.5M695.04 256.98L244.18 399.105M695.04 256.98L107.124 77.38M695.04 256.98l-78.85 262.045M695.04 256.98l-45.1 414.04M695.04 256.98l7.973-125.715M703.013 131.265L615.47 487.5M703.013 131.265l-227.667 78.92M703.013 131.265L427.09 413.067M703.013 131.265L673.63 341.48M703.013 131.265L523.723 605.92M703.013 131.265L244.18 399.105M703.013 131.265l-86.823 387.76M703.013 131.265L377.74 530.48M377.74 530.48l170.977-297.9M377.74 530.48l97.607-320.3M493.26 438.26l55.456-205.68M493.26 438.26l-17.914-228.074M649.944 671.02l-174.6-460.834M649.944 671.02L107.124 77.38M616.19 519.025l-140.844-308.84M616.19 519.025L107.123 77.38M107.123 77.38l200.71 279.632M107.123 77.38L298 653.43M107.123 77.38L615.47 487.5M107.123 77.38L609.69 416.162M107.123 77.38l368.223 132.806M107.123 77.38l566.508 264.1M107.123 77.38L244.18 399.106M244.18 399.106l231.166-188.92M825.917 805.373l-277.2-572.793M825.917 805.373l-350.57-595.187M523.724 605.92l24.993-373.34M523.724 605.92l-48.378-395.734M673.63 341.48L475.347 210.187M435.144 465.205L548.717 232.58M435.144 465.205l40.2-255.02M427.09 413.067L548.717 232.58M427.09 413.067l48.256-202.88M475.346 210.186L307.833 357.012M475.346 210.186l73.37 22.394M475.346 210.186L298 653.43M475.346 210.186L615.47 487.5M475.346 210.186L630.34 577.7M475.346 210.186L686.3 542.59M475.346 210.186L245.4 652.892M475.346 210.186L609.69 416.162M686.3 542.59L548.717 232.58M630.34 577.7l-81.623-345.12M530.9 512.582l-223.067-155.57M530.9 512.582L244.18 399.106M415.347 447.753l-107.514-90.74M590.2 574.756L307.833 357.012M590.2 574.756l-346.02-175.65M697.122 606.492l-389.29-249.48M697.122 606.492l-452.94-207.386M582.432 550.757l-274.6-193.745M561.63 465.186l-317.45-66.08M492.04 334.064l-184.207 22.948M492.04 334.064l-247.86 65.042M703.013 131.265L107.123 77.38M377.74 530.48l-69.907-173.47M377.74 530.48L244.18 399.107M493.26 438.26l-249.08-39.154M649.944 671.02L244.18 399.106M616.19 519.025l-372.01-119.92M107.123 77.38L245.4 652.892M244.18 399.106L298 653.43M244.18 399.106l1.22 253.786M244.18 399.106l190.964 66.1M244.18 399.106l429.45-57.625M244.18 399.106L523.725 605.92M523.724 605.92l-215.89-248.908M673.63 341.48l-365.8 15.532M427.09 413.067l-119.257-56.055M615.47 487.5L307.833 357.012M548.175 545.933l-240.342-188.92M530.9 512.582L298 653.43M530.9 512.582l84.57-25.082M530.9 512.582l99.44 65.118M530.9 512.582l155.4 30.008M530.9 512.582l-285.5 140.31M530.9 512.582l78.786-96.42M530.9 512.582l-103.81-99.515M530.9 512.582l-95.76-47.377M530.9 512.582l142.726-171.1M530.9 512.582l-7.18 93.34M530.9 512.582l295.017 292.79M530.9 512.582l85.286 6.444M530.9 512.582L649.944 671.02M530.9 512.582l-37.64-74.322M530.9 512.582l-153.165 17.9M530.9 512.582l-38.86-178.518M530.9 512.582l-115.553-64.83M415.347 447.753l132.828 98.18M415.347 447.753L630.34 577.7M415.347 447.753L686.3 542.59M415.347 447.753l194.343-31.59M415.347 447.753l11.743-34.686M415.347 447.753l19.8 17.452M415.347 447.753L523.724 605.92M415.347 447.753l410.57 357.62M415.347 447.753l200.843 71.272M415.347 447.753L377.74 530.48M415.347 447.753l167.085 103M415.347 447.753l281.775 158.74M590.2 574.756l-163.11-161.69M590.2 574.756l-155.056-109.55M590.2 574.756l-28.57-109.57M697.122 606.492L435.144 465.205M697.122 606.492L493.26 438.26M697.122 606.492L561.63 465.186M582.432 550.757l-89.173-112.5M582.432 550.757l-20.8-85.57M561.63 465.186l-13.455 80.747M561.63 465.186l53.84 22.314M561.63 465.186L630.34 577.7M561.63 465.186L686.3 542.59M561.63 465.186l-126.486.02M561.63 465.186l112-123.705M561.63 465.186l264.287 340.187M561.63 465.186l-69.59-131.122M492.04 334.064L298 653.43M492.04 334.064L615.47 487.5M492.04 334.064L245.4 652.892M492.04 334.064l117.65 82.1M492.04 334.064l124.15 184.96M492.04 334.064l157.9 336.956M377.74 530.48l237.73-42.98M377.74 530.48l115.52-92.22M493.26 438.26l54.915 107.673M493.26 438.26L630.34 577.7M493.26 438.26L686.3 542.59M493.26 438.26l116.43-22.1M493.26 438.26l-66.17-25.193M493.26 438.26l-58.116 26.945M493.26 438.26l30.464 167.66M493.26 438.26l332.657 367.113M493.26 438.26l122.93 80.765M649.944 671.02L427.09 413.067M825.917 805.373L427.09 413.067M825.917 805.373L435.144 465.205M673.63 341.48L298 653.43M673.63 341.48L245.4 652.893M435.144 465.205L615.47 487.5M435.144 465.205L630.34 577.7M435.144 465.205L686.3 542.59M435.144 465.205l174.546-49.043M435.144 465.205l-8.054-52.138M427.09 413.067L298 653.43M427.09 413.067L630.34 577.7M427.09 413.067L686.3 542.59M427.09 413.067L245.4 652.892M427.09 413.067l182.6 3.1M609.69 416.162l-61.515 129.77M245.4 652.892L615.47 487.5M615.47 487.5L298 653.43M590.2 574.756L298 653.43M590.2 574.756l-344.8 78.136M697.122 606.492l-319.383-76.01M582.432 550.757l27.258-134.595M492.04 334.064l181.59 7.416M377.74 530.48L298 653.43M377.74 530.48l252.6 47.22M377.74 530.48l308.56 12.11M377.74 530.48L245.4 652.893M377.74 530.48l448.177 274.893M377.74 530.48l272.204 140.54M616.19 519.025L298 653.43M616.19 519.025L245.4 652.892M523.724 605.92L298 653.43M523.724 605.92L245.4 652.893M673.63 341.48l-63.94 74.682M590.2 574.756l59.742 96.264M590.2 574.756l106.92 31.736M697.122 606.492l-148.947-60.56M697.122 606.492L615.47 487.5M697.122 606.492l-173.4-.57M697.122 606.492l-80.932-87.467M697.122 606.492l-114.69-55.735M649.944 671.02L615.47 487.5M649.944 671.02l23.686-329.54M649.944 671.02l-126.22-65.1M649.944 671.02L616.19 519.025M825.917 805.373L630.34 577.7M825.917 805.373L686.3 542.59M825.917 805.373L523.724 605.92M582.432 550.757l-34.257-4.824M616.19 519.025l-68.015 26.908M616.19 519.025l57.44-177.545M523.724 605.92L686.3 542.59M673.63 341.48L615.47 487.5M686.3 542.59l-55.96 35.11M590.2 574.756l25.27-87.256M523.724 605.92L615.47 487.5M523.724 605.92L630.34 577.7"/><path class="cls-3" d="M530.9 512.582l-55.558-302.4M561.63 465.186l-86.284-255M561.63 465.186l141.383-333.92M703.013 131.265l-395.18 225.747M703.013 131.265L298 653.43M703.013 131.265L245.4 652.892M703.013 131.265l-93.323 284.9M703.013 131.265l-53.07 539.755M493.26 438.26l-185.427-81.248M649.944 671.02l-342.11-314.008M616.19 519.025L307.833 357.012M244.18 399.106l63.653-42.094M244.18 399.106L615.47 487.5M244.18 399.106l365.51 17.056M245.4 652.892l62.436-295.88M298 653.43l9.833-296.418M530.9 512.582l30.726-47.4M415.347 447.753l77.912-9.493M415.347 447.753l146.283 17.433M561.63 465.186L298 653.43M561.63 465.186L245.4 652.892M561.63 465.186l-134.54-52.12M561.63 465.186L523.724 605.92M561.63 465.186l54.56 53.84M561.63 465.186l88.314 205.834M561.63 465.186l-68.37-26.926M561.63 465.186l-183.89 65.3M377.74 530.48l231.95-114.318M377.74 530.48l49.35-117.413M377.74 530.48l57.404-65.275M523.724 605.92l85.966-189.758M523.724 605.92L427.09 413.068M523.724 605.92l-88.58-140.715M609.69 416.162L298 653.43M609.69 416.162L245.4 652.892M590.2 574.756l19.49-158.594M590.2 574.756L377.74 530.48M697.122 606.492l-87.432-190.33M649.944 671.02L298 653.43M649.944 671.02L245.4 652.892M649.944 671.02L609.69 416.162M616.19 519.025l-6.5-102.863M609.69 416.162l5.78 71.34M590.2 574.756l-66.478 31.165M245.4 652.892l52.6.538"/><path class="cls-4" d="M561.63 465.186l-253.8-108.174M609.69 416.162l-301.857-59.15M561.63 465.186l48.06-49.023M377.74 530.48l145.984 75.44"/></g><g><circle class="cls-5" cx="530.904" cy="512.582" r="21.44"/><circle class="cls-5" cx="415.347" cy="447.753" r="10.492"/><circle class="cls-5" cx="590.202" cy="574.756" r="9.123"/><circle class="cls-5" cx="697.122" cy="606.492" r="9.123"/><circle class="cls-5" cx="582.432" cy="550.757" r="10.492"/><circle class="cls-5" cx="561.63" cy="465.186" r="24.177"/><circle class="cls-5" cx="492.04" cy="334.064" r="9.123"/><circle class="cls-5" cx="695.041" cy="256.979" r="9.123"/><circle class="cls-5" cx="703.013" cy="131.265" r="10.492"/><circle class="cls-5" cx="377.739" cy="530.481" r="20.071"/><circle class="cls-5" cx="493.259" cy="438.26" r="26.914"/><circle class="cls-5" cx="649.944" cy="671.02" r="11.86"/><circle class="cls-5" cx="616.19" cy="519.025" r="9.123"/><circle class="cls-5" cx="107.123" cy="77.38" r="9.123"/><circle class="cls-5" cx="244.181" cy="399.106" r="13.229"/><circle class="cls-5" cx="825.917" cy="805.373" r="9.123"/><circle class="cls-5" cx="523.724" cy="605.921" r="28.282"/><circle class="cls-5" cx="673.631" cy="341.481" r="9.123"/><circle class="cls-5" cx="435.144" cy="465.205" r="9.123"/><circle class="cls-5" cx="427.09" cy="413.067" r="13.229"/><circle class="cls-5" cx="475.346" cy="210.186" r="11.86"/><circle class="cls-5" cx="609.69" cy="416.162" r="11.86"/><circle class="cls-5" cx="245.397" cy="652.892" r="11.86"/><circle class="cls-5" cx="686.298" cy="542.59" r="10.492"/><circle class="cls-5" cx="630.339" cy="577.7" r="7.755"/><circle class="cls-5" cx="615.47" cy="487.503" r="10.492"/><circle class="cls-5" cx="548.175" cy="545.933" r="7.755"/><circle class="cls-5" cx="298" cy="653.43" r="15.966"/><circle class="cls-5" cx="548.717" cy="232.58" r="7.755"/><circle class="cls-5" cx="463.598" cy="526.629" r="7.755"/><circle class="cls-5" cx="824.881" cy="671.721" r="7.755"/><circle class="cls-5" cx="307.833" cy="357.012" r="31.019"/></g><g id="node-labels"><text class="cls-6" transform="translate(505.75 518.28)">A<tspan x="8.274" y="0">USTR</tspan><tspan x="39.832" y="0">I</tspan><tspan x="43.735" y="0">A</tspan></text><text class="cls-6" transform="translate(387.553 451.982)">BE<tspan x="15.008" y="0">L</tspan><tspan x="21.431" y="0">GIUM</tspan></text><text class="cls-6" transform="translate(568.712 574.985)">BOSN<tspan x="32.993" y="0">I</tspan><tspan x="36.896" y="0">A</tspan><tspan x="5.063" y="12.4">HERZ.</tspan></text><text class="cls-6" transform="translate(667.474 610.72)">BU<tspan x="16.156" y="0">L</tspan><tspan x="22.58" y="0">GAR</tspan><tspan x="47.386" y="0">I</tspan><tspan x="51.289" y="0">A</tspan></text><text class="cls-6" transform="translate(556.538 558.456)">CR<tspan x="16.109" y="0">O</tspan><tspan x="24.572" y="0">A</tspan><tspan x="32.243" y="0">T</tspan><tspan x="39.967" y="0">I</tspan><tspan x="43.87" y="0">A</tspan></text><text class="cls-6" transform="translate(512.585 469.403)">CZECH REPUBLIC</text><text class="cls-6" transform="translate(462.02 337.832)">DEN<tspan x="23.921" y="0">M</tspan><tspan x="34.838" y="0">ARK</tspan></text><text class="cls-6" transform="translate(666.83 261.678)">ES<tspan x="14.727" y="0">T</tspan><tspan x="22.287" y="0">ON</tspan><tspan x="39.645" y="0">I</tspan><tspan x="43.548" y="0">A</tspan></text><text class="cls-6" transform="translate(677.243 135.032)">FIN<tspan x="19.445" y="0">L</tspan><tspan x="26.354" y="0">AND</tspan></text><text class="cls-6" transform="translate(353.303 534.157)">FRANCE</text><text class="cls-6" transform="translate(460.273 442.433)">GER<tspan x="23.482" y="0">M</tspan><tspan x="34.399" y="0">A</tspan><tspan x="42.773" y="0">N</tspan><tspan x="51.382" y="0">Y</tspan></text><text class="cls-6" transform="translate(627.696 674.72)">GREECE</text><text class="cls-6" transform="translate(587.936 523.176)">HUNGA<tspan x="42.598" y="0">R</tspan><tspan x="50.274" y="0">Y</tspan></text><text class="cls-6" transform="translate(81.678 81.148)">ICE<tspan x="19" y="0">L</tspan><tspan x="25.909" y="0">AND</tspan></text><text class="cls-6" transform="translate(219.737 402.873)">IRE<tspan x="18.806" y="0">L</tspan><tspan x="25.716" y="0">AND</tspan></text><text class="cls-6" transform="translate(808.965 809.14)">ISRAEL</text><text class="cls-6" transform="translate(508.275 610.162)">I<tspan x="3.628" y="0">T</tspan><tspan x="10.648" y="0">A</tspan><tspan class="cls-7" x="19.023" y="0">L</tspan><tspan x="24.187" y="0">Y</tspan></text><text class="cls-6" transform="translate(641.53 346.248)">L<tspan x="6.798" y="0">I</tspan><tspan x="10.426" y="0">TH</tspan><tspan x="26.929" y="0">U</tspan><tspan x="34.998" y="0">AN</tspan><tspan x="52.145" y="0">I</tspan><tspan x="56.049" y="0">A</tspan></text><text class="cls-6" transform="translate(383.644 469.434)">L<tspan x="6.657" y="0">UXEMBOURG</tspan></text><text class="cls-6" transform="translate(373.444 416.834)">N<tspan x="8.772" y="0">E</tspan><tspan x="15.94" y="0">THER</tspan><tspan x="47.45" y="0">L</tspan><tspan x="54.36" y="0">ANDS</tspan></text><text class="cls-6" transform="translate(449.182 214.337)">NOR<tspan x="25.316" y="0">W</tspan><tspan x="35.858" y="0">A</tspan><tspan x="43.354" y="0">Y</tspan></text><text class="cls-6" transform="translate(586.04 419.93)">PO<tspan x="16.625" y="0">L</tspan><tspan x="23.535" y="0">AND</tspan></text><text class="cls-6" transform="translate(211.015 657.12)">PO<tspan x="16.625" y="0">R</tspan><tspan x="24.291" y="0">TUGAL</tspan></text><text class="cls-6" transform="translate(657.65 547.29)">RO<tspan x="16.543" y="0">M</tspan><tspan x="27.461" y="0">AN</tspan><tspan x="44.607" y="0">I</tspan><tspan x="48.511" y="0">A</tspan></text><text class="cls-6" transform="translate(627.268 581.467)">SERB<tspan x="30.644" y="0">I</tspan><tspan x="34.547" y="0">A</tspan></text><text class="cls-6" transform="translate(586.926 491.27)">S<tspan x="7.677" y="0">L</tspan><tspan x="14.1" y="0">O</tspan><tspan x="22.557" y="0">V</tspan><tspan x="30.263" y="0">AK</tspan><tspan x="46.554" y="0">I</tspan><tspan x="50.457" y="0">A</tspan></text><text class="cls-6" transform="translate(519.5 547.7)">S<tspan x="7.677" y="0">L</tspan><tspan x="14.1" y="0">O</tspan><tspan x="22.557" y="0">VEN</tspan><tspan x="46.524" y="0">I</tspan><tspan x="50.428" y="0">A</tspan></text><text class="cls-6" transform="translate(283.742 657.58)">S<tspan x="7.677" y="0">P</tspan><tspan x="14.674" y="0">AIN</tspan></text><text class="cls-6" transform="translate(523.767 236.348)">SWEDEN</text><text class="cls-6" transform="translate(421.403 530.397)">SW<tspan x="18.471" y="0">I</tspan><tspan x="22.099" y="0">TZER</tspan><tspan x="52.403" y="0">L</tspan><tspan x="59.312" y="0">AND</tspan></text><text class="cls-6" transform="translate(802.098 675.962)">TURKEY</text><text class="cls-6" transform="translate(255.32 361.24)">UN<tspan x="16.971" y="0">I</tspan><tspan x="20.599" y="0">TED KINGDOM</tspan></text></g></svg>