<?xml version="1.0" encoding="UTF-8" standalone="no"?>
<svg width="618px" height="650px" viewBox="0 0 618 650" version="1.1" xmlns="http://www.w3.org/2000/svg" xmlns:xlink="http://www.w3.org/1999/xlink">
    <!-- Generator: Sketch 3.7.2 (28276) - http://www.bohemiancoding.com/sketch -->
    <title>Network 2</title>
    <desc>Created with Sketch.</desc>
    <defs></defs>
    <g id="Page-1" stroke="none" stroke-width="1" fill="none" fill-rule="evenodd">
        <g id="Desktop-HD" transform="translate(-264.000000, -3312.000000)">
            <g id="Network-2" transform="translate(265.000000, 3310.000000)">
                <g id="edges" transform="translate(0.000000, 67.000000)" stroke="#4D4D4D" opacity="0.4">
                    <path d="M37.436134,259.874487 C29.845718,176.906113 142.912647,41.067917 225.88102,33.477493" id="Shape" stroke-width="1.5"></path>
                    <path d="M37.436134,259.874487 C79.795525,227.897308 191.300369,243.470627 223.27755,285.830018" id="Shape" stroke-width="3"></path>
                    <path d="M37.436134,259.874487 C147.413773,270.580235 296.321594,451.605316 285.615845,561.582947" id="Shape" stroke-width="1.5"></path>
                    <path d="M37.436134,259.874487 C138.438999,286.339611 250.24559,477.541565 223.780464,578.544434" id="Shape" stroke-width="1.5"></path>
                    <path d="M37.436134,259.874487 C129.110462,241.225128 294.595978,350.762596 313.245331,442.43692" id="Shape" stroke-width="1.5"></path>
                    <path d="M37.436134,259.874487 C58.881378,206.270599 171.455048,158.032654 225.058929,179.477898" id="Shape" stroke-width="1.5"></path>
                    <path d="M37.436134,259.874487 C50.377243,173.766205 198.95134,64.015472 285.059616,76.956573" id="Shape" stroke-width="1.5"></path>
                    <path d="M37.436134,259.874487 C123.513245,257.12882 256.747406,382.125961 259.493073,468.203079" id="Shape" stroke-width="1.5"></path>
                    <path d="M37.436134,259.874487 C139.666355,219.341522 353.811127,311.887405 394.344086,414.11763" id="Shape" stroke-width="1.5"></path>
                    <path d="M37.436134,259.874487 C122.608601,288.300444 207.728363,458.698074 179.302402,543.870544" id="Shape" stroke-width="1.5"></path>
                    <path d="M37.436134,259.874487 C86.427757,258.759449 161.587746,330.574318 162.702785,379.565941" id="Shape" stroke-width="1.5"></path>
                    <path d="M37.436134,259.874487 C-2.226273,227.222569 -12.742004,118.751083 19.909904,79.088669" id="Shape" stroke-width="1.5"></path>
                    <path d="M37.436134,259.874487 C49.859589,224.107071 122.145894,189.091133 157.913309,201.514587" id="Shape" stroke-width="1.5"></path>
                    <path d="M37.436134,259.874487 C110.400883,299.482224 160.436386,468.340942 120.82865,541.305695" id="Shape" stroke-width="1.5"></path>
                    <path d="M37.436134,259.874487 C20.80896,221.886303 52.850471,139.963257 90.838654,123.336075" id="Shape" stroke-width="1.5"></path>
                    <path d="M37.436134,259.874487 C36.602333,205.629074 116.719755,123.010254 170.965164,122.176453" id="Shape" stroke-width="1.5"></path>
                    <path d="M37.436134,259.874487 C58.12085,266.027174 79.918888,306.283276 73.766201,326.967991" id="Shape" stroke-width="3"></path>
                    <path d="M37.436134,259.874487 C96.348286,221.53828 242.220818,252.402195 280.557022,311.314346" id="Shape" stroke-width="1.5"></path>
                    <path d="M37.436134,259.874487 C106.803272,256.018946 216.637283,354.286346 220.492828,423.653488" id="Shape" stroke-width="1.5"></path>
                    <path d="M37.436134,259.874487 C2.911537,207.060509 30.345619,76.052628 83.159599,41.528046" id="Shape" stroke-width="1.5"></path>
                    <path d="M37.436134,259.874487 C-9.076202,213.278893 -8.951324,73.616989 37.644272,27.104645" id="Shape" stroke-width="1.5"></path>
                    <path d="M37.436134,259.874487 C91.678825,279.957235 142.918737,391.445389 122.835989,445.68808" id="Shape" stroke-width="1.5"></path>
                    <path d="M37.436134,259.874487 C110.473944,240.096043 249.698318,319.985077 269.476761,393.022888" id="Shape" stroke-width="1.5"></path>
                    <path d="M37.436134,259.874487 C1.6297,193.458115 47.544601,40.123917 113.960976,4.317474" id="Shape" stroke-width="1.5"></path>
                    <path d="M37.436134,259.874487 C114.311235,213.840446 298.674957,260.102039 344.709,336.977142" id="Shape" stroke-width="1.5"></path>
                    <path d="M225.88102,33.477493 C281.05072,29.807251 369.310638,107.056412 372.980881,162.226105" id="Shape" stroke-width="1.5"></path>
                    <path d="M225.88102,33.477493 C297.804642,12.460724 437.21524,88.821014 458.231995,160.744644" id="Shape" stroke-width="1.5"></path>
                    <path d="M225.88102,33.477493 C275.830841,84.468689 274.268738,235.880207 223.27755,285.830018" id="Shape" stroke-width="3"></path>
                    <path d="M225.88102,33.477493 C254.916679,62.84198 254.423431,150.442238 225.058929,179.477898" id="Shape" stroke-width="1.5"></path>
                    <path d="M225.88102,33.477493 C246.412552,30.337585 281.919708,56.425034 285.059616,76.956573" id="Shape" stroke-width="3"></path>
                    <path d="M225.88102,33.477493 C335.70166,75.912918 436.77951,304.296986 394.344086,414.11763" id="Shape" stroke-width="1.5"></path>
                    <path d="M225.88102,33.477493 C193.809029,83.793961 70.22636,111.16066 19.909904,79.088669" id="Shape" stroke-width="1.5"></path>
                    <path d="M225.88102,33.477493 C245.894897,80.678452 205.114273,181.50071 157.913309,201.514587" id="Shape" stroke-width="1.5"></path>
                    <path d="M225.88102,33.477493 C216.844261,78.457672 135.818842,132.372833 90.838654,123.336075" id="Shape" stroke-width="1.5"></path>
                    <path d="M225.88102,33.477493 C232.637642,62.200455 199.688126,115.41983 170.965164,122.176453" id="Shape" stroke-width="1.5"></path>
                    <path d="M225.88102,33.477493 C254.156158,122.598572 162.887272,298.692852 73.766201,326.967991" id="Shape" stroke-width="1.5"></path>
                    <path d="M225.88102,33.477493 C292.383591,78.109665 325.189194,244.811779 280.557022,311.314346" id="Shape" stroke-width="1.5"></path>
                    <path d="M225.88102,33.477493 C198.946838,63.631882 113.313996,68.462219 83.159599,41.528046" id="Shape" stroke-width="1.5"></path>
                    <path d="M225.88102,33.477493 C186.959095,69.850281 74.017056,66.026566 37.644272,27.104645" id="Shape" stroke-width="1.5"></path>
                    <path d="M225.88102,33.477493 C287.25354,8.489746 416.793945,63.06691 441.781708,124.439438" id="Shape" stroke-width="1.5"></path>
                    <path d="M225.88102,33.477493 C197.665009,50.02951 130.512982,32.533478 113.960976,4.317474" id="Shape" stroke-width="1.5"></path>
                    <path d="M225.88102,33.477493 C310.346558,70.411835 381.643341,252.511612 344.709,336.977142" id="Shape" stroke-width="1.5"></path>
                    <path d="M298.796295,237.051781 C298.668076,207.249725 343.178833,162.354324 372.980881,162.226105" id="Shape" stroke-width="1.5"></path>
                    <path d="M298.796295,237.051781 C293.448196,261.911177 248.136948,291.178119 223.27755,285.830018" id="Shape" stroke-width="1.5"></path>
                    <path d="M298.796295,237.051781 C342.763123,275.239 351.432556,398.470085 313.245331,442.43692" id="Shape" stroke-width="1.5"></path>
                    <path d="M298.796295,237.051781 C272.534058,240.284477 228.291626,205.74015 225.058929,179.477898" id="Shape" stroke-width="3"></path>
                    <path d="M298.796295,237.051781 C337.165909,291.142684 313.583969,429.833466 259.493073,468.203079" id="Shape" stroke-width="1.5"></path>
                    <path d="M298.796295,237.051781 C300.080429,292.773315 218.424316,378.281815 162.702785,379.565941" id="Shape" stroke-width="1.5"></path>
                    <path d="M298.796295,237.051781 C263.512253,258.120941 178.982468,236.798622 157.913309,201.514587" id="Shape" stroke-width="3"></path>
                    <path d="M298.796295,237.051781 C234.461632,255.900169 109.68704,187.670753 90.838654,123.336075" id="Shape" stroke-width="1.5"></path>
                    <path d="M298.796295,237.051781 C250.255005,239.642941 173.55632,170.717743 170.965164,122.176453" id="Shape" stroke-width="1.5"></path>
                    <path d="M298.796295,237.051781 C310.000946,255.552147 299.057388,300.109688 280.557022,311.314346" id="Shape" stroke-width="3"></path>
                    <path d="M298.796295,237.051781 C320.455948,290.032816 273.473862,401.993835 220.492828,423.653488" id="Shape" stroke-width="1.5"></path>
                    <path d="M298.796295,237.051781 C305.331497,313.971104 199.75531,439.152878 122.835989,445.68808" id="Shape" stroke-width="1.5"></path>
                    <path d="M298.796295,237.051781 C324.126602,274.109907 306.534882,367.692574 269.476761,393.022888" id="Shape" stroke-width="1.5"></path>
                    <path d="M298.796295,237.051781 C327.963913,247.854313 355.511536,307.809528 344.709,336.977142" id="Shape" stroke-width="1.5"></path>
                    <path d="M298.796295,237.051781 C330.795441,224.998432 396.874176,254.917122 408.927521,286.916264" id="Shape" stroke-width="1.5"></path>
                    <path d="M372.980881,162.226105 C389.734802,144.879593 440.885468,143.990723 458.231995,160.744644" id="Shape" stroke-width="1.5"></path>
                    <path d="M372.980881,162.226105 C367.760986,216.887554 277.938995,291.049907 223.27755,285.830018" id="Shape" stroke-width="1.5"></path>
                    <path d="M372.980881,162.226105 C346.846848,195.260849 258.093689,205.611938 225.058929,179.477898" id="Shape" stroke-width="1.5"></path>
                    <path d="M372.980881,162.226105 C338.342712,162.756447 285.589966,111.594742 285.059616,76.956573" id="Shape" stroke-width="1.5"></path>
                    <path d="M372.980881,162.226105 C427.631836,208.331772 440.449738,359.466675 394.344086,414.11763" id="Shape" stroke-width="1.5"></path>
                    <path d="M372.980881,162.226105 C374.393234,247.749695 248.226379,378.153595 162.702785,379.565941" id="Shape" stroke-width="1.5"></path>
                    <path d="M372.980881,162.226105 C337.825073,213.097313 208.784515,236.670403 157.913309,201.514587" id="Shape" stroke-width="1.5"></path>
                    <path d="M372.980881,162.226105 C308.774429,210.876541 139.489092,187.542519 90.838654,123.336075" id="Shape" stroke-width="1.5"></path>
                    <path d="M372.980881,162.226105 C384.313751,210.528526 328.859436,299.98147 280.557022,311.314346" id="Shape" stroke-width="3"></path>
                    <path d="M372.980881,162.226105 C379.644302,268.947487 229.557373,439.024658 122.835989,445.68808" id="Shape" stroke-width="1.5"></path>
                    <path d="M372.980881,162.226105 C379.183731,140.9086 420.464203,118.236603 441.781708,124.439438" id="Shape" stroke-width="1.5"></path>
                    <path d="M372.980881,162.226105 C402.276703,202.830688 385.313568,307.681313 344.709,336.977142" id="Shape" stroke-width="1.5"></path>
                    <path d="M458.231995,160.744644 C436.258179,232.752605 295.285507,307.803829 223.27755,285.830018" id="Shape" stroke-width="1.5"></path>
                    <path d="M458.231995,160.744644 C406.839905,178.621506 302.936478,128.348663 285.059616,76.956573" id="Shape" stroke-width="1.5"></path>
                    <path d="M458.231995,160.744644 C496.128998,224.196823 457.796265,376.220612 394.344086,414.11763" id="Shape" stroke-width="1.5"></path>
                    <path d="M458.231995,160.744644 C452.810944,226.393578 346.205948,316.735405 280.557022,311.314346" id="Shape" stroke-width="1.5"></path>
                    <path d="M458.231995,160.744644 C447.680878,156.773659 437.81073,134.99054 441.781708,124.439438" id="Shape" stroke-width="1.5"></path>
                    <path d="M458.231995,160.744644 C470.773895,218.69574 402.660095,324.435242 344.709,336.977142" id="Shape" stroke-width="1.5"></path>
                    <path d="M223.27755,285.830018 C290.895798,328.512943 328.298767,493.964691 285.615845,561.582947" id="Shape" stroke-width="1.5"></path>
                    <path d="M223.27755,285.830018 C281.921021,344.272316 282.222763,519.90097 223.780464,578.544434" id="Shape" stroke-width="1.5"></path>
                    <path d="M223.27755,285.830018 C272.592484,299.157845 326.573151,393.121979 313.245331,442.43692" id="Shape" stroke-width="3"></path>
                    <path d="M223.27755,285.830018 C202.363403,264.203319 203.432228,200.392044 225.058929,179.477898" id="Shape" stroke-width="3"></path>
                    <path d="M223.27755,285.830018 C193.859276,231.698914 230.928513,106.374847 285.059616,76.956573" id="Shape" stroke-width="3"></path>
                    <path d="M223.27755,285.830018 C266.99527,315.061523 288.724579,424.485367 259.493073,468.203079" id="Shape" stroke-width="3"></path>
                    <path d="M223.27755,285.830018 C283.148376,277.274235 385.7883,354.246796 394.344086,414.11763" id="Shape" stroke-width="3"></path>
                    <path d="M223.27755,285.830018 C266.090637,346.233154 239.705536,501.057465 179.302402,543.870544" id="Shape" stroke-width="1.5"></path>
                    <path d="M223.27755,285.830018 C229.909782,316.692154 193.564926,372.933708 162.702785,379.565941" id="Shape" stroke-width="1.5"></path>
                    <path d="M223.27755,285.830018 C141.255753,285.155273 19.235168,161.110458 19.909904,79.088669" id="Shape" stroke-width="1.5"></path>
                    <path d="M223.27755,285.830018 C193.341614,282.039781 154.123074,231.450523 157.913309,201.514587" id="Shape" stroke-width="3"></path>
                    <path d="M223.27755,285.830018 C253.882904,357.414932 192.413567,510.700333 120.82865,541.305695" id="Shape" stroke-width="1.5"></path>
                    <path d="M223.27755,285.830018 C164.290977,279.819012 84.827648,182.322647 90.838654,123.336075" id="Shape" stroke-width="1.5"></path>
                    <path d="M223.27755,285.830018 C180.084358,263.561782 148.69693,165.369644 170.965164,122.176453" id="Shape" stroke-width="3"></path>
                    <path d="M223.27755,285.830018 C201.602867,323.959885 111.896067,348.64267 73.766201,326.967991" id="Shape" stroke-width="3"></path>
                    <path d="M223.27755,285.830018 C239.830307,279.470989 274.197998,294.761585 280.557022,311.314346" id="Shape" stroke-width="4.5"></path>
                    <path d="M223.27755,285.830018 C250.285294,313.951656 248.614471,396.645737 220.492828,423.653488" id="Shape" stroke-width="3"></path>
                    <path d="M223.27755,285.830018 C146.393566,264.993214 62.3228,118.412033 83.159599,41.528046" id="Shape" stroke-width="1.5"></path>
                    <path d="M223.27755,285.830018 C134.405819,271.211597 23.025848,115.976379 37.644272,27.104645" id="Shape" stroke-width="1.5"></path>
                    <path d="M223.27755,285.830018 C235.160858,337.889946 174.895916,433.804779 122.835989,445.68808" id="Shape" stroke-width="1.5"></path>
                    <path d="M223.27755,285.830018 C234.700256,209.851074 365.80275,113.016724 441.781708,124.439438" id="Shape" stroke-width="1.5"></path>
                    <path d="M223.27755,285.830018 C253.955971,298.028749 281.675491,362.344467 269.476761,393.022888" id="Shape" stroke-width="3"></path>
                    <path d="M223.27755,285.830018 C145.111721,251.390823 79.521782,82.483292 113.960976,4.317474" id="Shape" stroke-width="1.5"></path>
                    <path d="M223.27755,285.830018 C257.793274,271.773153 330.652145,302.461428 344.709,336.977142" id="Shape" stroke-width="4.5"></path>
                    <path d="M223.27755,285.830018 C260.624786,248.917278 372.014786,249.569025 408.927521,286.916264" id="Shape" stroke-width="1.5"></path>
                    <path d="M285.615845,561.582947 C276.641068,577.342316 239.539833,587.519196 223.780464,578.544434" id="Shape" stroke-width="1.5"></path>
                    <path d="M285.615845,561.582947 C267.312531,532.227859 283.890228,460.740234 313.245331,442.43692" id="Shape" stroke-width="1.5"></path>
                    <path d="M285.615845,561.582947 C261.715317,548.131531 246.041649,492.103607 259.493073,468.203079" id="Shape" stroke-width="1.5"></path>
                    <path d="M285.615845,561.582947 C277.868439,510.344238 343.105377,421.865036 394.344086,414.11763" id="Shape" stroke-width="1.5"></path>
                    <path d="M285.615845,561.582947 C260.810669,579.303162 197.022614,568.67572 179.302402,543.870544" id="Shape" stroke-width="1.5"></path>
                    <path d="M285.615845,561.582947 C224.629837,549.762146 150.881996,440.551956 162.702785,379.565941" id="Shape" stroke-width="1.5"></path>
                    <path d="M285.615845,561.582947 C248.602951,590.484924 149.730639,578.318573 120.82865,541.305695" id="Shape" stroke-width="1.5"></path>
                    <path d="M285.615845,561.582947 C196.322922,557.029877 69.213135,416.26091 73.766201,326.967991" id="Shape" stroke-width="1.5"></path>
                    <path d="M285.615845,561.582947 C234.550354,512.540985 231.51506,362.379837 280.557022,311.314346" id="Shape" stroke-width="1.5"></path>
                    <path d="M285.615845,561.582947 C245.005356,547.021667 205.931541,464.263977 220.492828,423.653488" id="Shape" stroke-width="1.5"></path>
                    <path d="M285.615845,561.582947 C229.880905,570.95993 132.212988,501.423019 122.835989,445.68808" id="Shape" stroke-width="1.5"></path>
                    <path d="M285.615845,561.582947 C248.676018,531.098755 238.992561,429.962708 269.476761,393.022888" id="Shape" stroke-width="1.5"></path>
                    <path d="M285.615845,561.582947 C252.513321,504.843155 287.969208,370.079666 344.709,336.977142" id="Shape" stroke-width="1.5"></path>
                    <path d="M223.780464,578.544434 C214.451935,533.429962 268.130859,451.765442 313.245331,442.43692" id="Shape" stroke-width="1.5"></path>
                    <path d="M223.780464,578.544434 C208.854721,549.333649 230.28228,483.12883 259.493073,468.203079" id="Shape" stroke-width="1.5"></path>
                    <path d="M223.780464,578.544434 C225.007828,511.546326 327.345993,412.890259 394.344086,414.11763" id="Shape" stroke-width="1.5"></path>
                    <path d="M223.780464,578.544434 C207.950073,580.505249 181.263237,559.700928 179.302402,543.870544" id="Shape" stroke-width="1.5"></path>
                    <path d="M223.780464,578.544434 C171.769226,550.964264 135.12262,431.577164 162.702785,379.565941" id="Shape" stroke-width="1.5"></path>
                    <path d="M223.780464,578.544434 C195.742355,591.687042 133.971264,569.343811 120.82865,541.305695" id="Shape" stroke-width="1.5"></path>
                    <path d="M223.780464,578.544434 C143.462322,558.231995 53.453766,407.286133 73.766201,326.967991" id="Shape" stroke-width="1.5"></path>
                    <path d="M223.780464,578.544434 C181.689751,513.743103 215.755684,353.40506 280.557022,311.314346" id="Shape" stroke-width="1.5"></path>
                    <path d="M223.780464,578.544434 C192.144745,548.223785 190.172161,455.289215 220.492828,423.653488" id="Shape" stroke-width="1.5"></path>
                    <path d="M223.780464,578.544434 C177.020294,572.162079 116.453611,492.448242 122.835989,445.68808" id="Shape" stroke-width="1.5"></path>
                    <path d="M223.780464,578.544434 C195.815414,532.300873 223.233185,420.987946 269.476761,393.022888" id="Shape" stroke-width="1.5"></path>
                    <path d="M223.780464,578.544434 C199.65271,506.045258 272.209824,361.104897 344.709,336.977142" id="Shape" stroke-width="1.5"></path>
                    <path d="M313.245331,442.43692 C243.016251,407.482407 190.104412,249.70698 225.058929,179.477898" id="Shape" stroke-width="1.5"></path>
                    <path d="M313.245331,442.43692 C307.648102,458.340607 275.396759,473.800308 259.493073,468.203079" id="Shape" stroke-width="3"></path>
                    <path d="M313.245331,442.43692 C323.801224,420.553299 372.460464,403.561745 394.344086,414.11763" id="Shape" stroke-width="1.5"></path>
                    <path d="M313.245331,442.43692 C306.743469,489.512238 226.377716,550.372406 179.302402,543.870544" id="Shape" stroke-width="1.5"></path>
                    <path d="M313.245331,442.43692 C270.562622,459.971237 180.237099,422.248642 162.702785,379.565941" id="Shape" stroke-width="1.5"></path>
                    <path d="M313.245331,442.43692 C233.994461,425.318863 140.795246,280.765459 157.913309,201.514587" id="Shape" stroke-width="1.5"></path>
                    <path d="M313.245331,442.43692 C294.535751,500.694016 179.085747,560.015259 120.82865,541.305695" id="Shape" stroke-width="1.5"></path>
                    <path d="M313.245331,442.43692 C220.737198,406.840866 135.369102,214.684578 170.965164,122.176453" id="Shape" stroke-width="1.5"></path>
                    <path d="M313.245331,442.43692 C242.255714,467.238968 98.568237,397.957611 73.766201,326.967991" id="Shape" stroke-width="1.5"></path>
                    <path d="M313.245331,442.43692 C280.483154,422.750061 260.870163,344.076523 280.557022,311.314346" id="Shape" stroke-width="3"></path>
                    <path d="M313.245331,442.43692 C290.938141,457.230743 235.286644,445.960678 220.492828,423.653488" id="Shape" stroke-width="3"></path>
                    <path d="M313.245331,442.43692 C275.81369,481.169037 161.568092,483.11972 122.835989,445.68808" id="Shape" stroke-width="1.5"></path>
                    <path d="M313.245331,442.43692 C294.60881,441.307816 268.347656,411.659409 269.476761,393.022888" id="Shape" stroke-width="3"></path>
                    <path d="M313.245331,442.43692 C298.446121,415.052231 317.32431,351.776367 344.709,336.977142" id="Shape" stroke-width="3"></path>
                    <path d="M313.245331,442.43692 C301.277649,392.196358 358.686951,298.883955 408.927521,286.916264" id="Shape" stroke-width="1.5"></path>
                    <path d="M225.058929,179.477898 C216.554802,146.973495 252.555214,85.460709 285.059616,76.956573" id="Shape" stroke-width="1.5"></path>
                    <path d="M225.058929,179.477898 C289.690796,230.336105 310.351288,403.571213 259.493073,468.203079" id="Shape" stroke-width="1.5"></path>
                    <path d="M225.058929,179.477898 C252.605309,231.966736 215.19162,352.019562 162.702785,379.565941" id="Shape" stroke-width="1.5"></path>
                    <path d="M225.058929,179.477898 C163.951279,200.429855 40.861862,140.19632 19.909904,79.088669" id="Shape" stroke-width="1.5"></path>
                    <path d="M225.058929,179.477898 C216.037148,197.314362 175.749771,210.536369 157.913309,201.514587" id="Shape" stroke-width="4.5"></path>
                    <path d="M225.058929,179.477898 C186.986511,195.09359 106.454344,161.408493 90.838654,123.336075" id="Shape" stroke-width="3"></path>
                    <path d="M225.058929,179.477898 C202.779884,178.836365 170.323631,144.455505 170.965164,122.176453" id="Shape" stroke-width="3"></path>
                    <path d="M225.058929,179.477898 C224.298401,239.234467 133.522766,327.728516 73.766201,326.967991" id="Shape" stroke-width="1.5"></path>
                    <path d="M225.058929,179.477898 C262.525833,194.745567 295.824692,273.847438 280.557022,311.314346" id="Shape" stroke-width="3"></path>
                    <path d="M225.058929,179.477898 C272.98082,229.226234 270.241165,375.731598 220.492828,423.653488" id="Shape" stroke-width="1.5"></path>
                    <path d="M225.058929,179.477898 C169.089088,180.267792 83.94949,97.497894 83.159599,41.528046" id="Shape" stroke-width="1.5"></path>
                    <path d="M225.058929,179.477898 C157.101345,186.486183 44.652557,95.062225 37.644272,27.104645" id="Shape" stroke-width="1.5"></path>
                    <path d="M225.058929,179.477898 C257.856384,253.16452 196.522614,412.890625 122.835989,445.68808" id="Shape" stroke-width="1.5"></path>
                    <path d="M225.058929,179.477898 C276.651489,213.303329 303.3022,341.430321 269.476761,393.022888" id="Shape" stroke-width="1.5"></path>
                    <path d="M225.058929,179.477898 C167.807255,166.665405 101.148479,61.569153 113.960976,4.317474" id="Shape" stroke-width="1.5"></path>
                    <path d="M225.058929,179.477898 C280.4888,187.047729 352.278839,281.547281 344.709,336.977142" id="Shape" stroke-width="1.5"></path>
                    <path d="M225.058929,179.477898 C283.320313,164.191849 393.641479,228.654869 408.927521,286.916264" id="Shape" stroke-width="1.5"></path>
                    <path d="M285.059616,76.956573 C374.348724,122.531906 439.919403,324.828522 394.344086,414.11763" id="Shape" stroke-width="1.5"></path>
                    <path d="M285.059616,76.956573 C321.110138,161.949821 247.696022,343.515434 162.702785,379.565941" id="Shape" stroke-width="1.5"></path>
                    <path d="M285.059616,76.956573 C232.4561,130.412933 73.366264,131.692184 19.909904,79.088669" id="Shape" stroke-width="1.5"></path>
                    <path d="M285.059616,76.956573 C284.541962,127.29744 208.254173,202.032242 157.913309,201.514587" id="Shape" stroke-width="1.5"></path>
                    <path d="M285.059616,76.956573 C255.491318,125.07666 138.958746,152.904373 90.838654,123.336075" id="Shape" stroke-width="1.5"></path>
                    <path d="M285.059616,76.956573 C271.284698,108.819443 202.828033,135.95137 170.965164,122.176453" id="Shape" stroke-width="1.5"></path>
                    <path d="M285.059616,76.956573 C292.803223,169.217545 166.027168,319.224388 73.766201,326.967991" id="Shape" stroke-width="1.5"></path>
                    <path d="M285.059616,76.956573 C331.030655,124.728638 328.329086,265.343309 280.557022,311.314346" id="Shape" stroke-width="1.5"></path>
                    <path d="M285.059616,76.956573 C237.593903,110.25087 116.453899,88.993759 83.159599,41.528046" id="Shape" stroke-width="1.5"></path>
                    <path d="M285.059616,76.956573 C225.606155,116.469269 77.156956,86.558105 37.644272,27.104645" id="Shape" stroke-width="1.5"></path>
                    <path d="M285.059616,76.956573 C325.900604,55.108719 419.933868,83.59845 441.781708,124.439438" id="Shape" stroke-width="1.5"></path>
                    <path d="M285.059616,76.956573 C236.312073,96.648483 133.652885,53.065033 113.960976,4.317474" id="Shape" stroke-width="1.5"></path>
                    <path d="M285.059616,76.956573 C348.993607,117.030823 384.783234,273.043149 344.709,336.977142" id="Shape" stroke-width="3"></path>
                    <path d="M259.493073,468.203079 C275.646179,430.415787 356.556793,397.964523 394.344086,414.11763" id="Shape" stroke-width="1.5"></path>
                    <path d="M259.493073,468.203079 C258.58844,499.37471 210.47403,544.775177 179.302402,543.870544" id="Shape" stroke-width="1.5"></path>
                    <path d="M259.493073,468.203079 C222.407593,469.83371 164.333416,416.651428 162.702785,379.565941" id="Shape" stroke-width="1.5"></path>
                    <path d="M259.493073,468.203079 C185.839428,435.181335 124.891567,275.168236 157.913309,201.514587" id="Shape" stroke-width="1.5"></path>
                    <path d="M259.493073,468.203079 C246.380707,510.556488 163.18206,554.41806 120.82865,541.305695" id="Shape" stroke-width="1.5"></path>
                    <path d="M259.493073,468.203079 C172.582169,416.703339 119.465424,209.087357 170.965164,122.176453" id="Shape" stroke-width="1.5"></path>
                    <path d="M259.493073,468.203079 C194.100685,477.101425 82.664558,392.360382 73.766201,326.967991" id="Shape" stroke-width="1.5"></path>
                    <path d="M259.493073,468.203079 C232.32811,432.612549 244.966492,338.479301 280.557022,311.314346" id="Shape" stroke-width="3"></path>
                    <path d="M259.493073,468.203079 C242.783104,467.093216 219.382957,440.363449 220.492828,423.653488" id="Shape" stroke-width="3"></path>
                    <path d="M259.493073,468.203079 C227.658653,491.031494 145.664406,477.522507 122.835989,445.68808" id="Shape" stroke-width="1.5"></path>
                    <path d="M259.493073,468.203079 C246.453766,451.170303 252.443985,406.062195 269.476761,393.022888" id="Shape" stroke-width="3"></path>
                    <path d="M259.493073,468.203079 C250.291069,424.914703 301.420624,346.179138 344.709,336.977142" id="Shape" stroke-width="3"></path>
                    <path d="M259.493073,468.203079 C253.122597,402.058823 342.783264,293.286736 408.927521,286.916264" id="Shape" stroke-width="1.5"></path>
                    <path d="M394.344086,414.11763 C377.286331,483.076538 248.26133,560.928314 179.302402,543.870544" id="Shape" stroke-width="1.5"></path>
                    <path d="M394.344086,414.11763 C341.105484,453.535553 202.120712,432.804535 162.702785,379.565941" id="Shape" stroke-width="1.5"></path>
                    <path d="M394.344086,414.11763 C365.078613,494.258331 200.969353,570.571167 120.82865,541.305695" id="Shape" stroke-width="1.5"></path>
                    <path d="M394.344086,414.11763 C312.798584,460.803284 120.451851,408.513489 73.766201,326.967991" id="Shape" stroke-width="1.5"></path>
                    <path d="M394.344086,414.11763 C351.026016,416.314392 282.753784,354.632416 280.557022,311.314346" id="Shape" stroke-width="3"></path>
                    <path d="M394.344086,414.11763 C361.481003,450.795044 257.170242,456.516571 220.492828,423.653488" id="Shape" stroke-width="1.5"></path>
                    <path d="M394.344086,414.11763 C346.356552,474.733337 183.451694,493.675613 122.835989,445.68808" id="Shape" stroke-width="1.5"></path>
                    <path d="M394.344086,414.11763 C345.895966,346.694466 374.358551,172.88755 441.781708,124.439438" id="Shape" stroke-width="1.5"></path>
                    <path d="M394.344086,414.11763 C365.151672,434.872147 290.231277,422.215302 269.476761,393.022888" id="Shape" stroke-width="1.5"></path>
                    <path d="M394.344086,414.11763 C368.988953,408.616547 339.207916,362.33226 344.709,336.977142" id="Shape" stroke-width="3"></path>
                    <path d="M179.302402,543.870544 C143.121559,514.329559 133.161789,415.746796 162.702785,379.565941" id="Shape" stroke-width="1.5"></path>
                    <path d="M179.302402,543.870544 C167.094681,555.052338 132.010431,553.513428 120.82865,541.305695" id="Shape" stroke-width="1.5"></path>
                    <path d="M179.302402,543.870544 C114.81465,521.597275 51.492935,391.455742 73.766201,326.967991" id="Shape" stroke-width="1.5"></path>
                    <path d="M179.302402,543.870544 C153.042088,477.108368 213.794846,337.574665 280.557022,311.314346" id="Shape" stroke-width="1.5"></path>
                    <path d="M179.302402,543.870544 C163.497078,511.58905 188.211334,439.458817 220.492828,423.653488" id="Shape" stroke-width="1.5"></path>
                    <path d="M179.302402,543.870544 C148.372623,535.527344 114.492779,476.617859 122.835989,445.68808" id="Shape" stroke-width="1.5"></path>
                    <path d="M179.302402,543.870544 C167.167747,495.666138 221.272354,405.157532 269.476761,393.022888" id="Shape" stroke-width="1.5"></path>
                    <path d="M179.302402,543.870544 C171.005047,469.410553 270.249008,345.274498 344.709,336.977142" id="Shape" stroke-width="1.5"></path>
                    <path d="M162.702785,379.565941 C126.134617,344.913567 123.260933,238.082756 157.913309,201.514587" id="Shape" stroke-width="1.5"></path>
                    <path d="M162.702785,379.565941 C186.675907,420.288727 161.551426,517.332581 120.82865,541.305695" id="Shape" stroke-width="1.5"></path>
                    <path d="M162.702785,379.565941 C97.083984,342.692795 53.965515,188.954872 90.838654,123.336075" id="Shape" stroke-width="1.5"></path>
                    <path d="M162.702785,379.565941 C134.395879,386.833664 81.033932,355.274895 73.766201,326.967991" id="Shape" stroke-width="1.5"></path>
                    <path d="M162.702785,379.565941 C172.623314,342.344772 243.335861,301.393818 280.557022,311.314346" id="Shape" stroke-width="3"></path>
                    <path d="M162.702785,379.565941 C183.078304,376.825447 217.752335,403.277977 220.492828,423.653488" id="Shape" stroke-width="1.5"></path>
                    <path d="M162.702785,379.565941 C167.953854,400.763725 144.033775,440.437012 122.835989,445.68808" id="Shape" stroke-width="3"></path>
                    <path d="M162.702785,379.565941 C186.74897,360.902534 250.813354,368.9767 269.476761,393.022888" id="Shape" stroke-width="1.5"></path>
                    <path d="M162.702785,379.565941 C190.586266,334.646938 299.789993,309.093662 344.709,336.977142" id="Shape" stroke-width="3"></path>
                    <path d="M19.909904,79.088669 C71.995773,75.973175 154.797812,149.428719 157.913309,201.514587" id="Shape" stroke-width="1.5"></path>
                    <path d="M19.909904,79.088669 C42.945137,73.752411 85.502388,100.300842 90.838654,123.336075" id="Shape" stroke-width="1.5"></path>
                    <path d="M19.909904,79.088669 C58.73851,57.495163 149.371666,83.347839 170.965164,122.176453" id="Shape" stroke-width="1.5"></path>
                    <path d="M19.909904,79.088669 C80.25703,117.89328 112.570805,266.620869 73.766201,326.967991" id="Shape" stroke-width="1.5"></path>
                    <path d="M19.909904,79.088669 C25.047722,58.926605 62.997536,36.390244 83.159599,41.528046" id="Shape" stroke-width="1.5"></path>
                    <path d="M19.909904,79.088669 C13.059975,65.144989 23.700592,33.954575 37.644272,27.104645" id="Shape" stroke-width="1.5"></path>
                    <path d="M19.909904,79.088669 C23.765884,45.324219 80.196522,0.461517 113.960976,4.317474" id="Shape" stroke-width="1.5"></path>
                    <path d="M157.913309,201.514587 C128.862675,199.293816 88.617882,152.386703 90.838654,123.336075" id="Shape" stroke-width="3"></path>
                    <path d="M157.913309,201.514587 C144.656055,183.036583 152.487167,135.433716 170.965164,122.176453" id="Shape" stroke-width="3"></path>
                    <path d="M157.913309,201.514587 C166.174568,243.434692 115.686304,318.706734 73.766201,326.967991" id="Shape" stroke-width="1.5"></path>
                    <path d="M157.913309,201.514587 C204.402008,198.945801 277.98822,264.825649 280.557022,311.314346" id="Shape" stroke-width="3"></path>
                    <path d="M157.913309,201.514587 C214.856995,233.426464 252.404701,366.709801 220.492828,423.653488" id="Shape" stroke-width="1.5"></path>
                    <path d="M157.913309,201.514587 C110.965256,184.468018 66.113029,88.476105 83.159599,41.528046" id="Shape" stroke-width="1.5"></path>
                    <path d="M157.913309,201.514587 C98.977509,190.686409 26.816086,86.040436 37.644272,27.104645" id="Shape" stroke-width="1.5"></path>
                    <path d="M157.913309,201.514587 C199.732544,257.36475 178.68615,403.868843 122.835989,445.68808" id="Shape" stroke-width="1.5"></path>
                    <path d="M157.913309,201.514587 C218.527657,217.503555 285.465729,332.408539 269.476761,393.022888" id="Shape" stroke-width="1.5"></path>
                    <path d="M157.913309,201.514587 C109.68342,170.865631 83.312019,52.547363 113.960976,4.317474" id="Shape" stroke-width="1.5"></path>
                    <path d="M157.913309,201.514587 C222.36496,191.247963 334.442383,272.525497 344.709,336.977142" id="Shape" stroke-width="1.5"></path>
                    <path d="M157.913309,201.514587 C225.196487,168.392075 375.805008,219.633087 408.927521,286.916264" id="Shape" stroke-width="1.5"></path>
                    <path d="M120.82865,541.305695 C68.548618,507.850647 40.31115,379.248024 73.766201,326.967991" id="Shape" stroke-width="1.5"></path>
                    <path d="M120.82865,541.305695 C106.776052,463.36174 202.613068,325.366947 280.557022,311.314346" id="Shape" stroke-width="1.5"></path>
                    <path d="M120.82865,541.305695 C117.231043,497.842422 177.029556,427.251099 220.492828,423.653488" id="Shape" stroke-width="1.5"></path>
                    <path d="M120.82865,541.305695 C102.106596,521.780701 103.310999,464.410126 122.835989,445.68808" id="Shape" stroke-width="1.5"></path>
                    <path d="M120.82865,541.305695 C120.901711,481.91951 210.090576,392.949821 269.476761,393.022888" id="Shape" stroke-width="1.5"></path>
                    <path d="M120.82865,541.305695 C124.73901,455.66391 259.067215,333.066776 344.709,336.977142" id="Shape" stroke-width="1.5"></path>
                    <path d="M90.838654,123.336075 C106.632032,107.078857 154.707937,106.383072 170.965164,122.176453" id="Shape" stroke-width="1.5"></path>
                    <path d="M90.838654,123.336075 C128.150547,167.476944 117.907074,289.656098 73.766201,326.967991" id="Shape" stroke-width="1.5"></path>
                    <path d="M90.838654,123.336075 C166.377987,122.988052 280.209,235.775013 280.557022,311.314346" id="Shape" stroke-width="1.5"></path>
                    <path d="M90.838654,123.336075 C72.941235,108.510284 68.333805,59.425461 83.159599,41.528046" id="Shape" stroke-width="1.5"></path>
                    <path d="M90.838654,123.336075 C60.953491,114.728653 29.036865,56.989807 37.644272,27.104645" id="Shape" stroke-width="1.5"></path>
                    <path d="M90.838654,123.336075 C161.708519,181.407005 180.906921,374.818214 122.835989,445.68808" id="Shape" stroke-width="1.5"></path>
                    <path d="M90.838654,123.336075 C71.659397,94.907883 85.532791,23.496735 113.960976,4.317474" id="Shape" stroke-width="1.5"></path>
                    <path d="M170.965164,122.176453 C192.483681,182.574547 134.164299,305.449476 73.766201,326.967991" id="Shape" stroke-width="1.5"></path>
                    <path d="M170.965164,122.176453 C230.711121,138.085663 296.466232,251.568396 280.557022,311.314346" id="Shape" stroke-width="1.5"></path>
                    <path d="M170.965164,122.176453 C241.166107,172.56633 270.882706,353.452545 220.492828,423.653488" id="Shape" stroke-width="1.5"></path>
                    <path d="M170.965164,122.176453 C137.27437,123.60788 84.591026,75.218842 83.159599,41.528046" id="Shape" stroke-width="1.5"></path>
                    <path d="M170.965164,122.176453 C125.286625,129.826279 45.29409,72.783188 37.644272,27.104645" id="Shape" stroke-width="1.5"></path>
                    <path d="M170.965164,122.176453 C244.836777,156.643417 303.943726,319.151279 269.476761,393.022888" id="Shape" stroke-width="1.5"></path>
                    <path d="M170.965164,122.176453 C135.992531,110.005493 101.790016,39.2901 113.960976,4.317474" id="Shape" stroke-width="1.5"></path>
                    <path d="M170.965164,122.176453 C248.674065,130.387817 352.92038,259.268238 344.709,336.977142" id="Shape" stroke-width="1.5"></path>
                    <path d="M170.965164,122.176453 C251.5056,107.531952 394.28302,206.375824 408.927521,286.916264" id="Shape" stroke-width="1.5"></path>
                    <path d="M73.766201,326.967991 C111.993634,282.479099 236.06813,273.086914 280.557022,311.314346" id="Shape" stroke-width="1.5"></path>
                    <path d="M73.766201,326.967991 C122.448624,316.95977 210.484604,374.971069 220.492828,423.653488" id="Shape" stroke-width="1.5"></path>
                    <path d="M73.766201,326.967991 C18.556892,268.001322 24.192932,96.73735 83.159599,41.528046" id="Shape" stroke-width="1.5"></path>
                    <path d="M73.766201,326.967991 C6.569153,274.219709 -15.104004,94.301697 37.644272,27.104645" id="Shape" stroke-width="1.5"></path>
                    <path d="M73.766201,326.967991 C107.324177,340.898048 136.76605,412.130096 122.835989,445.68808" id="Shape" stroke-width="1.5"></path>
                    <path d="M73.766201,326.967991 C126.119294,301.036858 243.545631,340.669792 269.476761,393.022888" id="Shape" stroke-width="1.5"></path>
                    <path d="M73.766201,326.967991 C17.275055,254.39893 41.391914,60.808624 113.960976,4.317474" id="Shape" stroke-width="1.5"></path>
                    <path d="M73.766201,326.967991 C129.956596,274.781258 292.522263,280.786747 344.709,336.977142" id="Shape" stroke-width="1.5"></path>
                    <path d="M280.557022,311.314346 C291.012024,345.795013 254.973495,413.198502 220.492828,423.653488" id="Shape" stroke-width="3"></path>
                    <path d="M280.557022,311.314346 C275.887558,369.733307 181.254944,450.357544 122.835989,445.68808" id="Shape" stroke-width="3"></path>
                    <path d="M280.557022,311.314346 C275.426971,241.694427 372.161789,129.569489 441.781708,124.439438" id="Shape" stroke-width="1.5"></path>
                    <path d="M280.557022,311.314346 C294.682678,329.872105 288.034515,378.897232 269.476761,393.022888" id="Shape" stroke-width="3"></path>
                    <path d="M280.557022,311.314346 C298.519974,303.61651 337.011154,319.014183 344.709,336.977142" id="Shape" stroke-width="4.5"></path>
                    <path d="M280.557022,311.314346 C301.351501,280.76063 378.373795,266.121779 408.927521,286.916264" id="Shape" stroke-width="1.5"></path>
                    <path d="M220.492828,423.653488 C205.368385,447.591782 146.774273,460.812531 122.835989,445.68808" id="Shape" stroke-width="1.5"></path>
                    <path d="M220.492828,423.653488 C224.16349,407.730591 253.553856,389.352226 269.476761,393.022888" id="Shape" stroke-width="3"></path>
                    <path d="M220.492828,423.653488 C228.000793,381.474991 302.530502,329.469173 344.709,336.977142" id="Shape" stroke-width="3"></path>
                    <path d="M220.492828,423.653488 C230.832321,358.61911 343.893143,276.576771 408.927521,286.916264" id="Shape" stroke-width="1.5"></path>
                    <path d="M83.159599,41.528046 C71.171852,47.746429 43.862656,39.092377 37.644272,27.104645" id="Shape" stroke-width="1.5"></path>
                    <path d="M83.159599,41.528046 C81.877758,27.925659 100.358585,5.599304 113.960976,4.317474" id="Shape" stroke-width="1.5"></path>
                    <path d="M37.644272,27.104645 C48.350182,7.283875 94.140202,-6.388428 113.960976,4.317474" id="Shape" stroke-width="1.5"></path>
                    <path d="M122.835989,445.68808 C141.631106,405.826889 229.61557,374.227768 269.476761,393.022888" id="Shape" stroke-width="1.5"></path>
                    <path d="M122.835989,445.68808 C145.468407,379.571289 278.592209,314.344727 344.709,336.977142" id="Shape" stroke-width="1.5"></path>
                    <path d="M441.781708,124.439438 C464.874695,186.361519 406.631073,313.88414 344.709,336.977142" id="Shape" stroke-width="1.5"></path>
                    <path d="M269.476761,393.022888 C273.314056,366.767288 318.4534,333.139847 344.709,336.977142" id="Shape" stroke-width="3"></path>
                    <path d="M269.476761,393.022888 C276.145584,343.911407 359.81604,280.247437 408.927521,286.916264" id="Shape" stroke-width="1.5"></path>
                    <path d="M344.709,336.977142 C347.540527,314.121262 386.071625,284.084735 408.927521,286.916264" id="Shape" stroke-width="1.5"></path>
                </g>
                <g id="nodes" transform="translate(13.000000, 2.000000)" fill="#F3BC4C">
                    <circle id="Oval" cx="368.589" cy="17.10074" r="5"></circle>
                    <circle id="Oval" cx="24.436134" cy="324.874487" r="16.764706"></circle>
                    <circle id="Oval" cx="212.88102" cy="98.4775" r="7.3529415"></circle>
                    <circle id="Oval" cx="285.7963" cy="302.05178" r="6.1764708"></circle>
                    <circle id="Oval" cx="359.98088" cy="227.226105" r="6.1764708"></circle>
                    <circle id="Oval" cx="518.02002" cy="89.3244" r="5"></circle>
                    <circle id="Oval" cx="445.232" cy="225.744644" r="7.3529415"></circle>
                    <circle id="Oval" cx="210.27755" cy="350.830018" r="19.117647"></circle>
                    <circle id="Oval" cx="272.61584" cy="626.58295" r="6.1764708"></circle>
                    <circle id="Oval" cx="210.780464" cy="643.54443" r="6.1764708"></circle>
                    <circle id="Oval" cx="300.24533" cy="507.43692" r="7.3529415"></circle>
                    <circle id="Oval" cx="212.05893" cy="244.4779" r="15.588236"></circle>
                    <circle id="Oval" cx="272.05962" cy="141.95657" r="21.470589"></circle>
                    <circle id="Oval" cx="246.49307" cy="533.20308" r="8.529411"></circle>
                    <circle id="Oval" cx="381.3441" cy="479.11763" r="6.1764708"></circle>
                    <circle id="Oval" cx="166.302402" cy="608.87054" r="6.1764708"></circle>
                    <circle id="Oval" cx="149.702785" cy="444.56594" r="9.705883"></circle>
                    <circle id="Oval" cx="6.909904" cy="144.08867" r="6.1764708"></circle>
                    <circle id="Oval" cx="144.91331" cy="266.51459" r="22.647058"></circle>
                    <circle id="Oval" cx="107.82865" cy="606.3057" r="6.1764708"></circle>
                    <circle id="Oval" cx="77.838654" cy="188.33607" r="6.1764708"></circle>
                    <circle id="Oval" cx="273.46289" cy="6.69647" r="6.1764708"></circle>
                    <circle id="Oval" cx="157.965164" cy="187.17645" r="9.705883"></circle>
                    <circle id="Oval" cx="60.7662" cy="391.96799" r="8.529411"></circle>
                    <circle id="Oval" cx="267.55702" cy="376.314346" r="8.529411"></circle>
                    <circle id="Oval" cx="207.49283" cy="488.65349" r="8.529411"></circle>
                    <circle id="Oval" cx="70.1596" cy="106.52805" r="7.3529415"></circle>
                    <circle id="Oval" cx="24.64427" cy="92.10464" r="5"></circle>
                    <circle id="Oval" cx="109.835989" cy="510.68808" r="7.3529415"></circle>
                    <circle id="Oval" cx="428.7817" cy="189.43944" r="5"></circle>
                    <circle id="Oval" cx="256.47676" cy="458.02289" r="12.058824"></circle>
                    <circle id="Oval" cx="100.960976" cy="69.31747" r="5"></circle>
                    <circle id="Oval" cx="558.63156" cy="166.0474" r="5"></circle>
                    <circle id="Oval" cx="452.19617" cy="44.77405" r="5"></circle>
                    <circle id="Oval" cx="331.709" cy="401.977142" r="25"></circle>
                    <circle id="Oval" cx="395.92752" cy="351.916264" r="10.882353"></circle>
                </g>
                <g id="node-labels" font-size="11.9466667" font-family="Roboto-Bold, Roboto" fill="#363633" font-weight="bold">
                    <text id="australia">
                        <tspan x="353.9415" y="21.75992">AUSTRALIA</tspan>
                    </text>
                    <text id="austria">
                        <tspan x="14.042384" y="329.431128">AUSTRIA</tspan>
                    </text>
                    <text id="belgium">
                        <tspan x="199.686853" y="103.83052">BELGIUM</tspan>
                    </text>
                    <text id="bosnia-and-herzegovina">
                        <tspan x="231.127133" y="307.404808">BOSNIA AND HERZEGOVINA</tspan>
                    </text>
                    <text id="bulgaria">
                        <tspan x="346.976297" y="232.57913">BULGARIA</tspan>
                    </text>
                    <text id="canada">
                        <tspan x="506.463353" y="93.98358">CANADA</tspan>
                    </text>
                    <text id="croatia">
                        <tspan x="434.771167" y="230.301285">CROATIA</tspan>
                    </text>
                    <text id="czech-republic">
                        <tspan x="180.120467" y="356.165956">CZECH REPUBLIC</tspan>
                    </text>
                    <text id="denmark">
                        <tspan x="257.24834" y="631.24213">DENMARK</tspan>
                    </text>
                    <text id="estonia">
                        <tspan x="198.980047" y="648.10107">ESTONIA</tspan>
                    </text>
                    <text id="finland">
                        <tspan x="290.10533" y="512.13199">FINLAND</tspan>
                    </text>
                    <text id="france">
                        <tspan x="203.469347" y="249.172966">FRANCE</tspan>
                    </text>
                    <text id="germany">
                        <tspan x="256.686287" y="146.5867">GERMANY</tspan>
                    </text>
                    <text id="greece">
                        <tspan x="236.623903" y="537.8144">GREECE</tspan>
                    </text>
                    <text id="hungary">
                        <tspan x="368.022017" y="484.48946">HUNGARY</tspan>
                    </text>
                    <text id="iceland">
                        <tspan x="154.884069" y="613.52972">ICELAND</tspan>
                    </text>
                    <text id="ireland">
                        <tspan x="139.880702" y="449.22512">IRELAND</tspan>
                    </text>
                    <text id="israel">
                        <tspan x="0.570737333" y="148.74785">ISRAEL</tspan>
                    </text>
                    <text id="italy">
                        <tspan x="142.278727" y="271.88641">ITALY</tspan>
                    </text>
                    <text id="lithuania">
                        <tspan x="93.1044828" y="610.96487">LITHUANIA</tspan>
                    </text>
                    <text id="luxembourg">
                        <tspan x="54.6065707" y="193.6891">LUXEMBOURG</tspan>
                    </text>
                    <text id="malta">
                        <tspan x="266.157473" y="11.35565">MALTA</tspan>
                    </text>
                    <text id="netherlands">
                        <tspan x="134.660581" y="191.83563">NETHERLANDS</tspan>
                    </text>
                    <text id="norway">
                        <tspan x="49.73995" y="396.598118">NORWAY</tspan>
                    </text>
                    <text id="poland">
                        <tspan x="257.171187" y="381.650284">POLAND</tspan>
                    </text>
                    <text id="portugal">
                        <tspan x="193.399913" y="494.00652">PORTUGAL</tspan>
                    </text>
                    <text id="romania">
                        <tspan x="56.3887667" y="111.08469">ROMANIA</tspan>
                    </text>
                    <text id="serbia">
                        <tspan x="16.1751033" y="96.76382">SERBIA</tspan>
                    </text>
                    <text id="slovakia">
                        <tspan x="96.2455723" y="515.34726">SLOVAKIA</tspan>
                    </text>
                    <text id="slovenia">
                        <tspan x="415.205867" y="194.09862">SLOVENIA</tspan>
                    </text>
                    <text id="spain">
                        <tspan x="249.99301" y="463.25629">SPAIN</tspan>
                    </text>
                    <text id="sweden">
                        <tspan x="88.2455593" y="73.97665">SWEDEN</tspan>
                    </text>
                    <text id="switzerland">
                        <tspan x="536.183227" y="170.70657">SWITZERLAND</tspan>
                    </text>
                    <text id="turkey">
                        <tspan x="443.912837" y="50.14587">TURKEY</tspan>
                    </text>
                    <text id="united-kingdom">
                        <tspan x="298.42025" y="407.33017">UNITED KINGDOM</tspan>
                    </text>
                    <text id="usa">
                        <tspan x="394.304603" y="355.833744">USA</tspan>
                    </text>
                </g>
            </g>
        </g>
    </g>
</svg>