<svg id="not_gruped" data-name="not gruped" xmlns="http://www.w3.org/2000/svg" viewBox="0 0 900 900">
  <defs>
    <style>
      .cls-1, .cls-2, .cls-3 {
        fill: none;
        opacity: 0.75;
      }

      .cls-1 {
        stroke: #999;
        stroke-width: 0.5px;
      }

      .cls-2 {
        stroke: #7f7f7f;
        stroke-width: 3px;
      }

      .cls-3 {
        stroke: #4d4c4c;
        stroke-width: 6px;
      }

      .cls-4 {
        fill: #f3bc4c;
      }

      .cls-5 {
        isolation: isolate;
        font-size: 12px;
        fill: #4d4d4d;
        font-family: Roboto;
        font-weight: 700;
      }

      .cls-6 {
        letter-spacing: -1px;
      }
    </style>
  </defs>
  <title>net-ver-2</title>
  <path class="cls-1" d="M599.994,724.617c-97.072,58.453-330.359.526-388.812-96.546"/>
  <path class="cls-1" d="M599.994,724.617c-46.52,51.606-193.707,59.234-245.313,12.715"/>
  <path class="cls-1" d="M599.994,724.617c-86.839-115.7-43.547-419.509,72.153-506.348"/>
  <path class="cls-1" d="M599.994,724.617C450.215,639.63,353.028,287.48,438.016,137.7"/>
  <path class="cls-1" d="M599.994,724.617c-121.508,50.7-379.82-55.514-430.519-177.022"/>
  <path class="cls-1" d="M599.994,724.617c-57.839,55.876-228.412,52.932-284.289-4.908"/>
  <path class="cls-1" d="M599.994,724.617c-146.117,32.82-414.523-137.126-447.343-283.243"/>
  <path class="cls-1" d="M599.994,724.617c-9.631,19.823-53.812,35.112-73.635,25.481"/>
  <path class="cls-1" d="M599.994,724.617c4.23-36.412,65.194-84.686,101.606-80.456"/>
  <path class="cls-1" d="M599.994,724.617c-113.156-110.454-117.209-445.868-6.755-559.023"/>
  <path class="cls-1" d="M599.994,724.617c-70.537,58.682-264.366,40.9-323.049-29.637"/>
  <path class="cls-1" d="M599.994,724.617C438.54,735.782,179.611,510.35,168.446,348.9"/>
  <path class="cls-1" d="M599.994,724.617c-9.8-76.278,89.925-205.389,166.2-215.186"/>
  <path class="cls-1" d="M599.994,724.617C466.508,768.244,200.839,633.456,157.212,499.97"/>
  <path class="cls-1" d="M599.994,724.617c-36.664,46.3-161.112,60.759-207.414,24.1"/>
  <path class="cls-1" d="M599.994,724.617c-17.126-85.9,86.041-240.447,171.944-257.573"/>
  <path class="cls-1" d="M599.994,724.617c-3.1-64.086,88.38-164.865,152.466-167.965"/>
  <path class="cls-1" d="M599.994,724.617C564.861,623.091,664.452,418.1,765.978,382.97"/>
  <path class="cls-1" d="M599.994,724.617c-169.658-41.817-361.42-359.03-319.6-528.688"/>
  <path class="cls-1" d="M599.994,724.617c4.311-20.693,41.818-45.266,62.512-40.954"/>
  <path class="cls-1" d="M599.994,724.617c1.585-50.989,80.445-125.1,131.435-123.511"/>
  <path class="cls-1" d="M599.994,724.617C442.535,650.124,318.087,302.2,392.58,144.737"/>
  <path class="cls-1" d="M599.994,724.617c-18.747,31.5-94.119,50.631-125.62,31.884"/>
  <path class="cls-1" d="M474.374,756.5c-78.324,26.952-236.24-50.105-263.192-128.43"/>
  <path class="cls-1" d="M474.374,756.5c-27.772,20.1-99.588,8.6-119.693-19.169"/>
  <path class="cls-1" d="M474.374,756.5c-8.817,8.285-34.469,7.488-42.754-1.329"/>
  <path class="cls-1" d="M474.374,756.5c-102.761,19.2-285.7-106.145-304.9-208.907"/>
  <path class="cls-1" d="M474.374,756.5c-39.092,24.375-134.293,2.3-158.669-36.792"/>
  <path class="cls-1" d="M474.374,756.5c9.116-11.678,40.307-15.52,51.985-6.4"/>
  <path class="cls-1" d="M474.374,756.5C329.262,662.857,252.061,304.722,345.705,159.61"/>
  <path class="cls-1" d="M474.374,756.5c22.977-67.913,159.313-135.317,227.226-112.34"/>
  <path class="cls-1" d="M474.374,756.5C379.966,614.547,451.285,260,593.239,165.594"/>
  <path class="cls-1" d="M474.374,756.5C331.667,736.166,148.11,491.6,168.446,348.9"/>
  <path class="cls-1" d="M474.374,756.5c8.95-107.778,184.044-256.02,291.822-247.07"/>
  <path class="cls-1" d="M474.374,756.5C476,639.1,654.534,465.423,771.938,467.044"/>
  <path class="cls-1" d="M474.374,756.5c-150.911-73.318-267.3-409.661-193.983-560.572"/>
  <path class="cls-1" d="M474.374,756.5c-38.8-143.491,118.23-416.93,261.721-455.732"/>
  <path class="cls-1" d="M474.374,756.5C323.82,712.7,163.683,421.179,207.48,270.625"/>
  <path class="cls-1" d="M711.5,261.924C684.665,435.217,384.475,654.905,211.182,628.071"/>
  <path class="cls-1" d="M711.5,261.924c-16.6-.86-40.213-27.053-39.352-43.654"/>
  <path class="cls-1" d="M711.5,261.924C631.958,291.776,467.868,217.243,438.016,137.7"/>
  <path class="cls-1" d="M711.5,261.924c-75.88,147.66-411.189,255.33-558.849,179.45"/>
  <path class="cls-1" d="M711.5,261.924c74.468,78.427,68.528,307.77-9.9,382.238"/>
  <path class="cls-1" d="M711.5,261.924c-42.918,4.386-113.874-53.412-118.26-96.33"/>
  <path class="cls-1" d="M711.5,261.924C648.251,420.39,315.678,563.218,157.212,499.97"/>
  <path class="cls-1" d="M711.5,261.924c67.138,50.754,91.714,227.591,40.96,294.729"/>
  <path class="cls-1" d="M711.5,261.924c74.549,94.147,45.153,347.19-48.994,421.739"/>
  <path class="cls-1" d="M711.5,261.924C649,276.417,533.5,204.4,519.01,141.9"/>
  <path class="cls-1" d="M711.5,261.924c-99.064,102.544-401.476,107.765-504.02,8.7"/>
  <path class="cls-1" d="M207.48,270.625c72.23,70.749,74.451,285.217,3.7,357.447"/>
  <path class="cls-1" d="M207.48,270.625C349.217,322.706,483.7,613.435,431.62,755.172"/>
  <path class="cls-1" d="M207.48,270.625C227,197.933,365.324,118.179,438.016,137.7"/>
  <path class="cls-1" d="M207.48,270.625c56.146-98.158,287.6-161.177,385.759-105.031"/>
  <path class="cls-1" d="M207.48,270.625c7.847,23.461-15.573,70.424-39.034,78.271"/>
  <path class="cls-1" d="M207.48,270.625c35.815,55.923,5.655,193.53-50.268,229.345"/>
  <path class="cls-1" d="M207.48,270.625c152.176-73.608,490.851,44.244,564.458,196.42"/>
  <path class="cls-1" d="M207.48,270.625c134.169-89.231,469.268-21.823,558.5,112.346"/>
  <path class="cls-1" d="M207.48,270.625c-0.357-29.521,43.39-74.338,72.912-74.7"/>
  <path class="cls-1" d="M207.48,270.625C244.041,182.573,430.959,105.338,519.01,141.9"/>
  <path class="cls-1" d="M207.48,270.625C319.232,170.93,636.4,189.017,736.095,300.769"/>
  <path class="cls-1" d="M736.095,300.769c-39.522,170.443-354.47,366.825-524.913,327.3"/>
  <path class="cls-1" d="M736.095,300.769c29.986,151.776-152.7,424.418-304.474,454.4"/>
  <path class="cls-1" d="M736.095,300.769C784.014,432.582,658.172,702.179,526.359,750.1"/>
  <path class="cls-1" d="M736.095,300.769c40.424,26.086,61.93,125.852,35.843,166.275"/>
  <path class="cls-1" d="M736.095,300.769c22.417,10.464,40.347,59.785,29.883,82.2"/>
  <path class="cls-1" d="M736.095,300.769C660.9,312.412,530.653,217.09,519.01,141.9"/>
  <path class="cls-1" d="M519.01,141.9c86.221,151.952-12.377,509.212-164.329,595.432"/>
  <path class="cls-1" d="M519.01,141.9C624.187,282.032,571.753,650,431.62,755.172"/>
  <path class="cls-1" d="M519.01,141.9c-17.038,15.359-65.635,12.84-80.994-4.2"/>
  <path class="cls-1" d="M519.01,141.9c11.232,151.046-198.489,394.463-349.535,405.7"/>
  <path class="cls-1" d="M519.01,141.9c74.9,156.223-47.082,502.909-203.3,577.81"/>
  <path class="cls-1" d="M519.01,141.9c19.585-10.107,64.122,4.11,74.229,23.694"/>
  <path class="cls-1" d="M519.01,141.9c62.2,159.029-83.036,490.877-242.065,553.08"/>
  <path class="cls-1" d="M519.01,141.9C641.954,165.969,790.265,386.488,766.2,509.431"/>
  <path class="cls-1" d="M519.01,141.9c-0.746,143.974-217.825,358.816-361.8,358.071"/>
  <path class="cls-1" d="M519.01,141.9c96.077,146.649,20.219,510.736-126.43,606.813"/>
  <path class="cls-1" d="M519.01,141.9c134.325,49.358,261.776,324.882,212.419,459.207"/>
  <path class="cls-1" d="M519.01,141.9c-24.718,25.853-100.576,27.556-126.43,2.838"/>
  <path class="cls-1" d="M392.58,144.737c60.387,132.947-48.452,422.947-181.4,483.334"/>
  <path class="cls-1" d="M392.58,144.737c70.62-41.207,238.36,2.912,279.567,73.532"/>
  <path class="cls-1" d="M392.58,144.737c7.68-10.494,34.941-14.716,45.435-7.036"/>
  <path class="cls-1" d="M392.58,144.737c11.341,107.313-132.616,285.3-239.929,296.637"/>
  <path class="cls-1" d="M392.58,144.737C540.408,239.053,620.676,602.27,526.359,750.1"/>
  <path class="cls-1" d="M392.58,144.737c-6.4,12.35-34.525,21.274-46.875,14.874"/>
  <path class="cls-1" d="M392.58,144.737C479.5,277.912,410.121,608.058,276.945,694.98"/>
  <path class="cls-1" d="M392.58,144.737C416.553,262.857,275.332,476,157.212,499.97"/>
  <path class="cls-1" d="M392.58,144.737c120.8,120.8,120.8,483.18,0,603.975"/>
  <path class="cls-1" d="M392.58,144.737c140.333-11.41,367.948,181.974,379.358,322.307"/>
  <path class="cls-1" d="M392.58,144.737C546.939,155.144,762.867,402.293,752.46,556.652"/>
  <path class="cls-1" d="M392.58,144.737c161.77,53.8,323.726,377.155,269.926,538.926"/>
  <path class="cls-1" d="M392.58,144.737c159.044,23.5,362.353,297.326,338.848,456.369"/>
  <path class="cls-1" d="M731.429,601.106c-98.656,109.442-410.8,125.621-520.247,26.965"/>
  <path class="cls-1" d="M731.429,601.106C643,536.4,607.436,306.693,672.147,218.269"/>
  <path class="cls-1" d="M731.429,601.106c-151.364-34-327.411-312.041-293.413-463.4"/>
  <path class="cls-1" d="M731.429,601.106c-147.7,83.809-494.969-12.03-578.778-159.732"/>
  <path class="cls-1" d="M731.429,601.106C720.213,671.919,597.171,761.313,526.359,750.1"/>
  <path class="cls-1" d="M731.429,601.106c-165.444-11.154-396.878-276.052-385.723-441.5"/>
  <path class="cls-1" d="M731.429,601.106c-72.122,109.671-344.812,166-454.483,93.874"/>
  <path class="cls-1" d="M731.429,601.106c-135.071,94.616-479.6,33.934-574.217-101.136"/>
  <path class="cls-1" d="M731.429,601.106C693.18,698.4,489.871,786.961,392.58,748.712"/>
  <path class="cls-1" d="M731.429,601.106c-18.711-34.914,5.6-115.352,40.509-134.062"/>
  <path class="cls-1" d="M731.429,601.106c-4.685-13.1,7.934-39.77,21.031-44.454"/>
  <path class="cls-1" d="M731.429,601.106c2.727,30.3-38.627,79.829-68.923,82.556"/>
  <path class="cls-1" d="M662.506,683.662C508.416,619.368,373.721,291.792,438.016,137.7"/>
  <path class="cls-1" d="M662.506,683.662c-168.17-41.45-358.251-355.882-316.8-524.052"/>
  <path class="cls-1" d="M662.506,683.662c-0.081-15.719,23.375-39.42,39.094-39.5"/>
  <path class="cls-1" d="M662.506,683.662c-74.849,79.376-306.185,86.166-385.56,11.317"/>
  <path class="cls-1" d="M662.506,683.662c-165.765,31.859-462.2-169-494.06-334.766"/>
  <path class="cls-1" d="M662.506,683.662c-137.8,64.32-440.974-45.9-505.294-183.693"/>
  <path class="cls-1" d="M662.506,683.662c-40.975,67-202.93,106.025-269.926,65.05"/>
  <path class="cls-1" d="M662.506,683.662c-21.437-65.21,44.222-195.181,109.432-216.618"/>
  <path class="cls-1" d="M662.506,683.662C488.536,662.539,259.268,369.9,280.391,195.929"/>
  <path class="cls-1" d="M280.391,195.929c72.586,100.27,31.061,359.555-69.209,432.142"/>
  <path class="cls-1" d="M280.391,195.929c123.138,93.423,167.712,418.264,74.29,541.4"/>
  <path class="cls-1" d="M280.391,195.929c82.819-73.883,317.873-60.479,391.756,22.34"/>
  <path class="cls-1" d="M280.391,195.929c19.879-43.17,114.454-78.107,157.624-58.228"/>
  <path class="cls-1" d="M280.391,195.929c48.15,92.516-18.4,303.515-110.917,351.665"/>
  <path class="cls-1" d="M280.391,195.929C392.21,293.623,413.4,607.89,315.705,719.709"/>
  <path class="cls-1" d="M280.391,195.929c23.541,74.637-53.1,221.9-127.74,245.444"/>
  <path class="cls-1" d="M280.391,195.929c5.8-20.327,44.987-42.118,65.314-36.319"/>
  <path class="cls-1" d="M280.391,195.929C440.253,161.469,731.736,349.57,766.2,509.431"/>
  <path class="cls-1" d="M280.391,195.929c36.172,85.444-37.736,267.868-123.18,304.041"/>
  <path class="cls-1" d="M280.391,195.929c166.558-22.269,449.8,194.165,472.068,360.723"/>
  <path class="cls-1" d="M280.391,195.929C414.917,136.22,706.269,248.445,765.978,382.97"/>
  <path class="cls-1" d="M765.978,382.97C754.591,536.1,507.813,748.719,354.681,737.332"/>
  <path class="cls-1" d="M765.978,382.97c7.569,141.312-193.046,364.633-334.358,372.2"/>
  <path class="cls-1" d="M765.978,382.97C679.6,535.2,321.7,633.97,169.475,547.595"/>
  <path class="cls-1" d="M765.978,382.97c-22.707,157.4-292.87,359.446-450.273,336.739"/>
  <path class="cls-1" d="M765.978,382.97C791.48,504.319,647.709,724.6,526.359,750.1"/>
  <path class="cls-1" d="M765.978,382.97c-128.726,39.383-380.89-94.633-420.273-223.36"/>
  <path class="cls-1" d="M765.978,382.97c39.363,65.114.736,221.828-64.378,261.191"/>
  <path class="cls-1" d="M765.978,382.97c-78.023-8.928-181.666-139.353-172.739-217.376"/>
  <path class="cls-1" d="M765.978,382.97C639.657,495.662,281.137,475.217,168.446,348.9"/>
  <path class="cls-1" d="M765.978,382.97c25.336,25.249,25.467,101.125.218,126.461"/>
  <path class="cls-1" d="M765.978,382.97c-98.353,145.153-463.613,215.353-608.766,117"/>
  <path class="cls-1" d="M765.978,382.97c18.007,15.623,21.583,66.067,5.96,84.074"/>
  <path class="cls-1" d="M752.46,556.652C605.781,535.751,417.114,284.38,438.016,137.7"/>
  <path class="cls-1" d="M752.46,556.652C591.7,558.595,347.648,320.37,345.705,159.61"/>
  <path class="cls-1" d="M752.46,556.652c7.33,27.674-23.186,80.179-50.86,87.509"/>
  <path class="cls-1" d="M752.46,556.652C685.022,679.421,399.714,762.417,276.945,694.98"/>
  <path class="cls-1" d="M752.46,556.652C594.106,631.9,243.7,507.25,168.446,348.9"/>
  <path class="cls-1" d="M752.46,556.652c-130.386,107.713-487.535,73.7-595.248-56.682"/>
  <path class="cls-1" d="M752.46,556.652C718.9,667.04,502.968,782.276,392.58,748.712"/>
  <path class="cls-1" d="M752.46,556.652c-14.026-21.817-2.339-75.582,19.478-89.608"/>
  <path class="cls-1" d="M771.938,467.044c-69.713-29.8-129.588-179.062-99.791-248.775"/>
  <path class="cls-1" d="M771.938,467.044C761.5,592.733,557.309,765.61,431.62,755.172"/>
  <path class="cls-1" d="M771.938,467.044c-132.653.916-333.006-196.69-333.922-329.343"/>
  <path class="cls-1" d="M771.938,467.044c-128.991,118.723-500.564,103.321-619.287-25.67"/>
  <path class="cls-1" d="M771.938,467.044C625.2,490.8,369.465,306.344,345.705,159.61"/>
  <path class="cls-1" d="M771.938,467.044C718.527,611.63,421.531,748.391,276.945,694.98"/>
  <path class="cls-1" d="M771.938,467.044c-116.36,129.53-485.2,149.286-614.726,32.926"/>
  <path class="cls-1" d="M771.938,467.044C752.4,599.249,524.785,768.25,392.58,748.712"/>
  <path class="cls-1" d="M392.58,748.712c-60.408,12.151-169.247-60.233-181.4-120.641"/>
  <path class="cls-1" d="M392.58,748.712c-50.175-162,117.565-480.268,279.567-530.443"/>
  <path class="cls-1" d="M392.58,748.712c-113.115-131.289-85.854-497.9,45.435-611.011"/>
  <path class="cls-1" d="M392.58,748.712C283.127,735.23,139.169,550.827,152.651,441.374"/>
  <path class="cls-1" d="M392.58,748.712c27.033-26.479,107.3-25.647,133.779,1.386"/>
  <path class="cls-1" d="M392.58,748.712c-127.2-108.445-155.32-461.906-46.875-589.1"/>
  <path class="cls-1" d="M392.58,748.712c-33.873,12.38-103.254-19.859-115.635-53.732"/>
  <path class="cls-1" d="M392.58,748.712c-96.822-2.675-238.043-151.92-235.369-248.742"/>
  <path class="cls-1" d="M157.212,499.97c46.647-159.327,355.608-328.348,514.936-281.7"/>
  <path class="cls-1" d="M157.212,499.97c-12.631-10.807-15.368-45.965-4.561-58.6"/>
  <path class="cls-1" d="M157.212,499.97C126.838,394.2,239.935,189.984,345.705,159.61"/>
  <path class="cls-1" d="M157.212,499.97c20.33-154.081,281.947-354.707,436.027-334.376"/>
  <path class="cls-1" d="M157.212,499.97C220.16,515.025,292,632.031,276.945,694.98"/>
  <path class="cls-1" d="M157.212,499.97c-27.968-32.462-21.228-123.106,11.234-151.074"/>
  <path class="cls-1" d="M766.2,509.431c-36.723,127.883-283.632,264.623-411.515,227.9"/>
  <path class="cls-1" d="M766.2,509.431C654.485,636.408,296.452,659.306,169.475,547.595"/>
  <path class="cls-1" d="M766.2,509.431c-48.043,132.154-318.337,258.32-450.491,210.278"/>
  <path class="cls-1" d="M766.2,509.431C612.134,523.565,359.839,313.673,345.705,159.61"/>
  <path class="cls-1" d="M766.2,509.431c14.027,39.865-24.731,120.7-64.6,134.73"/>
  <path class="cls-1" d="M766.2,509.431C662.837,475.255,559.063,268.953,593.239,165.594"/>
  <path class="cls-1" d="M766.2,509.431C614.539,596.875,255.889,500.553,168.446,348.9"/>
  <path class="cls-1" d="M168.446,348.9c64.382,47.288,90.024,214.793,42.736,279.175"/>
  <path class="cls-1" d="M168.446,348.9c114.934,40.44,226.676,273.5,186.235,388.436"/>
  <path class="cls-1" d="M168.446,348.9c74.615-126.866,376.836-205.242,503.7-130.627"/>
  <path class="cls-1" d="M168.446,348.9c11.675-96.153,173.417-222.87,269.57-211.195"/>
  <path class="cls-1" d="M168.446,348.9c39.945,39.534,40.563,158.753,1.029,198.7"/>
  <path class="cls-1" d="M168.446,348.9c103.615,44.711,191.97,267.2,147.26,370.813"/>
  <path class="cls-1" d="M168.446,348.9c15.337,21.655,5.86,77.141-15.795,92.478"/>
  <path class="cls-1" d="M168.446,348.9C166.04,275.587,272.4,162.016,345.705,159.61"/>
  <path class="cls-1" d="M276.945,694.98c-26.534-.229-65.993-40.374-65.764-66.909"/>
  <path class="cls-1" d="M276.945,694.98c-16.3-174.382,220.819-460.409,395.2-476.711"/>
  <path class="cls-1" d="M276.945,694.98C197.7,551.31,294.346,216.943,438.016,137.7"/>
  <path class="cls-1" d="M276.945,694.98c-75.58-25.862-150.157-178.026-124.295-253.606"/>
  <path class="cls-1" d="M276.945,694.98c60.906-38.859,210.555-5.788,249.414,55.118"/>
  <path class="cls-1" d="M276.945,694.98c-93.322-120.826-52.066-442.047,68.76-535.369"/>
  <path class="cls-1" d="M593.239,165.594c66.636,162.059-76.5,505.1-238.558,571.738"/>
  <path class="cls-1" d="M593.239,165.594c-36.623,25.466-129.757,8.731-155.223-27.892"/>
  <path class="cls-1" d="M593.239,165.594c-8.353,161.153-262.611,390.354-423.764,382"/>
  <path class="cls-1" d="M593.239,165.594c55.316,166.33-111.2,498.8-277.534,554.116"/>
  <path class="cls-1" d="M593.239,165.594c103.525,130.277,63.4,480.979-66.88,584.5"/>
  <path class="cls-1" d="M593.239,165.594c-50.7,48.31-199.224,44.72-247.534-5.983"/>
  <path class="cls-1" d="M593.239,165.594c117.386,74.041,182.4,361.182,108.361,478.568"/>
  <path class="cls-1" d="M701.6,644.161c-101.3,94.866-395.553,85.212-490.418-16.09"/>
  <path class="cls-1" d="M701.6,644.161c-50.75,88.018-258.9,143.92-346.919,93.171"/>
  <path class="cls-1" d="M701.6,644.161c-91.069-79.288-108.741-334.823-29.453-425.892"/>
  <path class="cls-1" d="M701.6,644.161c-125.738,87.112-445.014,29.172-532.126-96.567"/>
  <path class="cls-1" d="M701.6,644.161c-62.069,92.289-293.606,137.617-385.895,75.548"/>
  <path class="cls-1" d="M701.6,644.161c-150.347,69.232-479.717-52.44-548.949-202.787"/>
  <path class="cls-1" d="M701.6,644.161C687.739,700.4,582.595,763.959,526.359,750.1"/>
  <path class="cls-1" d="M701.6,644.161C533.511,618.43,319.974,327.7,345.705,159.61"/>
  <path class="cls-1" d="M345.705,159.61c66.787,120.6-13.927,401.673-134.523,468.461"/>
  <path class="cls-1" d="M345.705,159.61C463.045,273.36,468.43,619.992,354.681,737.332"/>
  <path class="cls-1" d="M345.705,159.61c77.02-53.557,272.885-18.361,326.442,58.659"/>
  <path class="cls-1" d="M345.705,159.61c14.08-22.844,69.466-35.989,92.31-21.909"/>
  <path class="cls-1" d="M345.705,159.61c42.351,112.843-63.388,345.633-176.231,387.984"/>
  <path class="cls-1" d="M345.705,159.61c106.02,118.02,88.02,454.079-30,560.1"/>
  <path class="cls-1" d="M345.705,159.61c17.742,94.964-98.091,264.022-193.054,281.763"/>
  <path class="cls-1" d="M345.705,159.61C499.934,241.577,608.326,595.87,526.359,750.1"/>
  <path class="cls-1" d="M526.359,750.1c-17.933,19.963-74.776,23.007-94.739,5.074"/>
  <path class="cls-1" d="M152.651,441.374C148.989,323.566,320.208,141.363,438.016,137.7"/>
  <path class="cls-1" d="M315.705,719.709c11.32-4.271,34.705,6.3,38.976,17.622"/>
  <path class="cls-1" d="M315.705,719.709C252.036,714.532,164.3,611.264,169.475,547.595"/>
  <path class="cls-1" d="M169.475,547.595c74.989,0.906,186.113,114.748,185.207,189.737"/>
  <path class="cls-1" d="M438.016,137.7c52.707,143.441-83.393,437.663-226.834,490.37"/>
  <path class="cls-1" d="M438.016,137.7c62.94-30.713,203.419,17.628,234.132,80.568"/>
  <path class="cls-1" d="M431.62,755.172c-69.508,18.667-201.771-57.593-220.438-127.1"/>
  <path class="cls-2" d="M599.994,724.617C436.135,662.473,283.562,323.47,345.705,159.61"/>
  <path class="cls-2" d="M599.994,724.617C467.254,624.27,418.663,274.64,519.01,141.9"/>
  <path class="cls-2" d="M474.374,756.5c-16.385-133.027,158.577-357.146,291.6-373.531"/>
  <path class="cls-2" d="M474.374,756.5C360.381,624.654,387.162,255.893,519.01,141.9"/>
  <path class="cls-2" d="M711.5,261.924c60.607,134.663-50.477,427.568-185.14,488.174"/>
  <path class="cls-2" d="M711.5,261.924C620.283,387.929,294.451,440.112,168.446,348.9"/>
  <path class="cls-2" d="M711.5,261.924c-99.42,73.023-358.085,33.426-431.108-65.994"/>
  <path class="cls-2" d="M207.48,270.625c159.671,32.119,351,319.8,318.88,479.473"/>
  <path class="cls-2" d="M519.01,141.9c45.9-15.353,137.784,30.468,153.137,76.37"/>
  <path class="cls-2" d="M519.01,141.9C505.633,275.066,285.818,454.751,152.651,441.374"/>
  <path class="cls-2" d="M519.01,141.9c-31.119,38.2-135.1,48.83-173.3,17.711"/>
  <path class="cls-2" d="M519.01,141.9C655.98,205.834,765.534,507.191,701.6,644.161"/>
  <path class="cls-2" d="M519.01,141.9C490.3,253.412,279.958,377.61,168.446,348.9"/>
  <path class="cls-2" d="M519.01,141.9c115.615,14.443,267.371,209.53,252.928,325.145"/>
  <path class="cls-2" d="M519.01,141.9C648.651,178.16,788.72,427.012,752.46,556.652"/>
  <path class="cls-2" d="M519.01,141.9C616.618,140.72,764.8,285.362,765.978,382.97"/>
  <path class="cls-2" d="M519.01,141.9c-36.918,58.53-180.089,90.948-238.619,54.03"/>
  <path class="cls-2" d="M519.01,141.9c137.052,79.653,223.149,404.711,143.5,541.763"/>
  <path class="cls-2" d="M662.506,683.662c-101.383,79.147-372.177,45.792-451.324-55.591"/>
  <path class="cls-2" d="M662.506,683.662c-91.15-95.007-85.366-374.243,9.641-465.393"/>
  <path class="cls-2" d="M662.506,683.662C512.077,737.176,206.164,591.8,152.651,441.374"/>
  <path class="cls-2" d="M662.506,683.662c-13.942,40.516-95.63,80.378-136.147,66.435"/>
  <path class="cls-2" d="M662.506,683.662c-7.411-43.393,46.561-119.6,89.954-127.01"/>
  <path class="cls-2" d="M280.391,195.929C440.419,257.569,588,590.071,526.359,750.1"/>
  <path class="cls-2" d="M280.391,195.929C454.279,201.334,707,470.273,701.6,644.161"/>
  <path class="cls-2" d="M280.391,195.929c56.5-68.637,244.211-86.838,312.848-30.336"/>
  <path class="cls-2" d="M765.978,382.97c-61.939,159.979-394.817,307.04-554.8,245.1"/>
  <path class="cls-2" d="M752.46,556.652c-93.972,122.539-418.738,165.391-541.278,71.419"/>
  <path class="cls-2" d="M752.46,556.652c-83.739-51.614-131.927-254.644-80.313-338.383"/>
  <path class="cls-2" d="M752.46,556.652c-143.017,96.906-502.9,27.739-599.809-115.278"/>
  <path class="cls-2" d="M752.46,556.652c-6.531,83.909-142.191,199.977-226.1,193.446"/>
  <path class="cls-2" d="M771.938,467.044C691.992,611.4,355.539,708.017,211.182,628.071"/>
  <path class="cls-2" d="M771.938,467.044C779.433,572.771,632.086,742.6,526.359,750.1"/>
  <path class="cls-2" d="M157.212,499.97c36.414,14.826,68.8,91.687,53.97,128.1"/>
  <path class="cls-2" d="M157.212,499.97C140.919,371.355,309.4,153.994,438.016,137.7"/>
  <path class="cls-2" d="M157.212,499.97c123.855-23.8,345.344,126.273,369.148,250.128"/>
  <path class="cls-2" d="M168.446,348.9c151.823,8.658,366.571,249.379,357.914,401.2"/>
  <path class="cls-2" d="M168.446,348.9C334.13,301.318,654.022,478.477,701.6,644.161"/>
  <path class="cls-2" d="M168.446,348.9c48.3-121.619,303.174-231.6,424.793-183.3"/>
  <path class="cls-2" d="M526.359,750.1c-77.208-135.523,10.265-454.621,145.788-531.829"/>
  <path class="cls-2" d="M526.359,750.1C386.211,645.287,333.205,277.849,438.016,137.7"/>
  <path class="cls-2" d="M526.359,750.1c-136.486,13-360.712-172.238-373.708-308.724"/>
  <path class="cls-2" d="M152.651,441.374c49.046,25.633,84.164,137.652,58.531,186.7"/>
  <path class="cls-2" d="M152.651,441.374c59.278-148.52,370.976-282.383,519.5-223.1"/>
  <path class="cls-2" d="M672.147,218.269C661.915,392.423,385.335,638.3,211.182,628.071"/>
  <path class="cls-3" d="M519.01,141.9c35.669,158.8-149.028,450.5-307.828,486.172"/>
  <path class="cls-3" d="M519.01,141.9c123.11,120.17,127.519,485.089,7.349,608.2"/>
  <path class="cls-3" d="M280.391,195.929c8.2,52.982-58.963,144.762-111.946,152.967"/>
  <path class="cls-3" d="M526.359,750.1c-87.441,38.63-276.547-34.586-315.177-122.027"/>
  <circle class="cls-4" cx="599.994" cy="724.617" r="27.647"/>
  <circle class="cls-4" cx="474.374" cy="756.501" r="13.529"/>
  <circle class="cls-4" cx="711.499" cy="261.924" r="11.765"/>
  <circle class="cls-4" cx="207.48" cy="270.625" r="11.765"/>
  <circle class="cls-4" cx="736.095" cy="300.769" r="13.529"/>
  <circle class="cls-4" cx="519.01" cy="141.899" r="31.176"/>
  <circle class="cls-4" cx="392.58" cy="144.737" r="11.765"/>
  <circle class="cls-4" cx="731.429" cy="601.106" r="11.765"/>
  <circle class="cls-4" cx="662.506" cy="683.662" r="13.529"/>
  <circle class="cls-4" cx="280.391" cy="195.929" r="25.882"/>
  <circle class="cls-4" cx="752.46" cy="556.652" r="15.294"/>
  <circle class="cls-4" cx="771.938" cy="467.044" r="11.765"/>
  <circle class="cls-4" cx="392.58" cy="748.712" r="11.765"/>
  <circle class="cls-4" cx="157.212" cy="499.97" r="17.059"/>
  <circle class="cls-4" cx="766.196" cy="509.431" r="11.765"/>
  <circle class="cls-4" cx="168.446" cy="348.896" r="36.471"/>
  <circle class="cls-4" cx="276.945" cy="694.98" r="11.765"/>
  <circle class="cls-4" cx="593.239" cy="165.594" r="11.765"/>
  <circle class="cls-4" cx="701.6" cy="644.161" r="17.059"/>
  <circle class="cls-4" cx="345.705" cy="159.61" r="15.294"/>
  <circle class="cls-4" cx="526.359" cy="750.098" r="15.294"/>
  <circle class="cls-4" cx="152.651" cy="441.374" r="15.294"/>
  <circle class="cls-4" cx="315.705" cy="719.709" r="13.529"/>
  <circle class="cls-4" cx="169.475" cy="547.595" r="10"/>
  <circle class="cls-4" cx="438.016" cy="137.701" r="13.529"/>
  <circle class="cls-4" cx="431.62" cy="755.172" r="10"/>
  <circle class="cls-4" cx="672.147" cy="218.269" r="20.588"/>
  <circle class="cls-4" cx="354.681" cy="737.332" r="10"/>
  <circle class="cls-4" cx="627.987" cy="184.525" r="10"/>
  <circle class="cls-4" cx="231.991" cy="239.559" r="10"/>
  <circle class="cls-4" cx="211.182" cy="628.071" r="40"/>
  <circle class="cls-4" cx="765.978" cy="382.97" r="34.706"/>
  <text class="cls-5" transform="translate(627.641 749.024)">A<tspan x="8.575" y="0">USTR</tspan><tspan x="41.332" y="0">I</tspan><tspan x="45.536" y="0">A</tspan></text>
  <text class="cls-5" transform="translate(447.267 785.375)">BE<tspan x="15.608" y="0">L</tspan><tspan x="22.331" y="0">GIUM</tspan></text>
  <text class="cls-5" transform="translate(728.264 254.798)">BOSN<tspan x="34.193" y="0">I</tspan><tspan x="38.396" y="0">A AND</tspan><tspan x="0" y="14.4">HERZEG</tspan><tspan x="48.682" y="14.4">O</tspan><tspan x="57.438" y="14.4">VI</tspan><tspan x="69.982" y="14.4">N</tspan><tspan x="79.16" y="14.4">A</tspan></text>
  <text class="cls-5" transform="translate(129.251 271.499)">BU<tspan x="16.757" y="0">L</tspan><tspan x="23.479" y="0">GAR</tspan><tspan x="49.186" y="0">I</tspan><tspan x="53.39" y="0">A</tspan></text>
  <text class="cls-5" transform="translate(754.625 304.96)">CR<tspan x="16.71" y="0">O</tspan><tspan x="25.472" y="0">A</tspan><tspan x="33.443" y="0">T</tspan><tspan x="41.467" y="0">I</tspan><tspan x="45.67" y="0">A</tspan></text>
  <text class="cls-5" transform="translate(547.096 118.759)">CZECH REPUBLIC</text>
  <text class="cls-5" transform="translate(331.992 126.891)">DEN<tspan x="24.821" y="0">M</tspan><tspan x="36.039" y="0">ARK</tspan></text>
  <text class="cls-5" transform="translate(748.194 605.298)">ES<tspan x="15.327" y="0">T</tspan><tspan x="23.187" y="0">ON</tspan><tspan x="41.145" y="0">I</tspan><tspan x="45.348" y="0">A</tspan></text>
  <text class="cls-5" transform="translate(681.036 698.97)">FIN<tspan x="20.345" y="0">L</tspan><tspan x="27.554" y="0">AND</tspan></text>
  <text class="cls-5" transform="translate(202.674 181.091)">FRANCE</text>
  <text class="cls-5" transform="translate(772.754 560.844)">GREECE</text>
  <text class="cls-5" transform="translate(788.34 471.817)">HUNGA<tspan x="44.098" y="0">R</tspan><tspan x="52.075" y="0">Y</tspan></text>
  <text class="cls-5" transform="translate(324.387 761.869)">ICE<tspan x="19.899" y="0">L</tspan><tspan x="27.109" y="0">AND</tspan></text>
  <text class="cls-5" transform="translate(82.691 504.249)">IRE<tspan x="19.706" y="0">L</tspan><tspan x="26.916" y="0">AND</tspan></text>
  <text class="cls-5" transform="translate(782.962 515.711)">ISRAEL</text>
  <text class="cls-5" transform="translate(94.171 353.786)">I<tspan x="3.928" y="0">T</tspan><tspan x="11.249" y="0">A</tspan><tspan class="cls-6" x="19.923" y="0">L</tspan><tspan x="25.386" y="0">Y</tspan></text>
  <text class="cls-5" transform="translate(193.658 702.259)">L<tspan x="7.098" y="0">I</tspan><tspan x="11.026" y="0">TH</tspan><tspan x="28.128" y="0">U</tspan><tspan x="36.498" y="0">AN</tspan><tspan x="54.245" y="0">I</tspan><tspan x="58.448" y="0">A</tspan></text>
  <text class="cls-5" transform="translate(609.976 156.99)">L<tspan x="6.958" y="0">UXEMBOURG</tspan></text>
  <text class="cls-5" transform="translate(723.659 650.44)">N<tspan x="9.073" y="0">E</tspan><tspan x="16.54" y="0">THER</tspan><tspan x="49.25" y="0">L</tspan><tspan x="56.46" y="0">ANDS</tspan></text>
  <text class="cls-5" transform="translate(275.14 149.384)">NOR<tspan x="26.216" y="0">W</tspan><tspan x="37.058" y="0">A</tspan><tspan x="44.854" y="0">Y</tspan></text>
  <text class="cls-5" transform="translate(516.359 779.452)">PO<tspan x="17.226" y="0">L</tspan><tspan x="24.435" y="0">AND</tspan></text>
  <text class="cls-5" transform="translate(66.697 446.248)">PO<tspan x="17.226" y="0">R</tspan><tspan x="25.19" y="0">TUGAL</tspan></text>
  <text class="cls-5" transform="translate(238.791 723.901)">RO<tspan x="17.144" y="0">M</tspan><tspan x="28.36" y="0">AN</tspan><tspan x="46.107" y="0">I</tspan><tspan x="50.311" y="0">A</tspan></text>
  <text class="cls-5" transform="translate(110.353 551.874)">SERB<tspan x="31.843" y="0">I</tspan><tspan x="36.047" y="0">A</tspan></text>
  <text class="cls-5" transform="translate(407.562 119.172)">S<tspan x="7.977" y="0">L</tspan><tspan x="14.7" y="0">O</tspan><tspan x="23.456" y="0">V</tspan><tspan x="31.462" y="0">AK</tspan><tspan x="48.354" y="0">I</tspan><tspan x="52.558" y="0">A</tspan></text>
  <text class="cls-5" transform="translate(381.018 777.785)">S<tspan x="7.977" y="0">L</tspan><tspan x="14.7" y="0">O</tspan><tspan x="23.456" y="0">VEN</tspan><tspan x="48.325" y="0">I</tspan><tspan x="52.528" y="0">A</tspan></text>
  <text class="cls-5" transform="translate(696.812 223.041)">S<tspan x="7.977" y="0">P</tspan><tspan x="15.274" y="0">AIN</tspan></text>
  <text class="cls-5" transform="translate(290.042 748.392)">SWEDEN</text>
  <text class="cls-5" transform="translate(642.988 189.232)">SW<tspan x="19.071" y="0">I</tspan><tspan x="22.999" y="0">TZER</tspan><tspan x="54.503" y="0">L</tspan><tspan x="61.712" y="0">AND</tspan></text>
  <text class="cls-5" transform="translate(169.225 239.45)">TURKEY</text>
  <text class="cls-5" transform="translate(116.51 626.945)">UN<tspan x="17.571" y="0">I</tspan><tspan x="21.499" y="0">TED</tspan><tspan x="-13.286" y="14.4">KINGDOM</tspan></text>
  <text class="cls-5" transform="translate(805.684 387.772)">GER<tspan x="24.382" y="0">M</tspan><tspan x="35.599" y="0">A</tspan><tspan x="44.273" y="0">N</tspan><tspan x="53.182" y="0">Y</tspan></text>
</svg>
