<svg id="original" xmlns="http://www.w3.org/2000/svg" viewBox="0 0 900 900">
  <defs>
    <style>
      .cls-1 {
        opacity: 0.75;
      }

      .cls-2, .cls-3, .cls-4 {
        fill: none;
      }

      .cls-2 {
        stroke: #999;
        stroke-width: 0.5px;
      }

      .cls-3 {
        stroke: #7f7f7f;
        stroke-width: 3px;
      }

      .cls-4 {
        stroke: #4d4c4c;
        stroke-width: 6px;
      }

      .cls-5 {
        fill: #f3bc4c;
      }

      .cls-6 {
        isolation: isolate;
        font-size: 12px;
        fill: #39484d;
        font-family: Roboto;
        font-weight: 700;
      }

      .cls-7 {
        letter-spacing: -1px;
      }
    </style>
  </defs>
  <title>net-ver-2</title>
  <g id="edges" class="cls-1">
    <path class="cls-2" d="M387.528,476.948c51.218-25.906,166.9,12.06,192.81,63.278"/>
    <path class="cls-2" d="M387.528,476.948c-74.322-28.325-143.319-182.3-114.994-256.618"/>
    <path class="cls-2" d="M387.528,476.948c17.382,17.773,16.8,70.507-.978,87.889"/>
    <path class="cls-2" d="M387.528,476.948c34.029,2.227,81.732,56.611,79.505,90.64"/>
    <path class="cls-2" d="M387.528,476.948c-59.623-70.656-43.075-266.074,27.581-325.7"/>
    <path class="cls-2" d="M387.528,476.948c-70.923-49.644-102.84-230.5-53.2-301.418"/>
    <path class="cls-2" d="M387.528,476.948c1.808,35.169-48.234,90.633-83.4,92.441"/>
    <path class="cls-2" d="M387.528,476.948c28.214-15.454,93.716,3.687,109.169,31.9"/>
    <path class="cls-2" d="M387.528,476.948c-44.266-38.6-52.771-162.887-14.175-207.152"/>
    <path class="cls-2" d="M387.528,476.948c-29.976-61.761,17.7-199.366,79.461-229.342"/>
    <path class="cls-2" d="M387.528,476.948c61.516,25.888,114.958,156.993,89.07,218.509"/>
    <path class="cls-2" d="M387.528,476.948c-20.67-19.467-22.475-79.673-3.008-100.344"/>
    <path class="cls-2" d="M387.528,476.948c-39.607-84.9,28.332-271.659,113.231-311.266"/>
    <path class="cls-2" d="M387.528,476.948c50.3,0.644,124.787,77.062,124.143,127.363"/>
    <path class="cls-2" d="M387.528,476.948c51.557,40.759,67.753,179.233,26.994,230.79"/>
    <path class="cls-2" d="M387.528,476.948C454.7,463.914,575.018,545.126,588.052,612.3"/>
    <path class="cls-2" d="M387.528,476.948c36.425,27.6,49.664,123.633,22.066,160.058"/>
    <path class="cls-2" d="M387.528,476.948C402.874,414.507,519.557,343.865,582,359.211"/>
    <path class="cls-2" d="M387.528,476.948c-15-46.1,31.65-137.745,77.749-152.744"/>
    <path class="cls-2" d="M387.528,476.948c-11.075,17.234-53.539,26.472-70.773,15.4"/>
    <path class="cls-2" d="M387.528,476.948c36.259,50.109,15.484,179.66-34.625,215.919"/>
    <path class="cls-2" d="M387.528,476.948c16.8,52.509-36.764,156.471-89.273,173.27"/>
    <path class="cls-2" d="M387.528,476.948c-6.618-71.218,90.282-187.971,161.5-194.589"/>
    <path class="cls-2" d="M549.027,282.36c57.836,45.311,76.622,200.031,31.311,257.867"/>
    <path class="cls-2" d="M549.027,282.36c-67.7,42.893-233.6,5.676-276.493-62.029"/>
    <path class="cls-2" d="M549.027,282.36c41.933-25.412,142.95-.631,168.362,41.3"/>
    <path class="cls-2" d="M549.027,282.36c-53.006.562-133.357-78.1-133.919-131.109"/>
    <path class="cls-2" d="M549.027,282.36c-64.305,21.573-193.122-42.525-214.7-106.83"/>
    <path class="cls-2" d="M549.027,282.36c34.832,55.764,3.434,191.658-52.33,226.489"/>
    <path class="cls-2" d="M549.027,282.36c-27.8,75.489-182.736,147.02-258.224,119.218"/>
    <path class="cls-2" d="M549.027,282.36C511.38,314.982,405.975,307.444,373.352,269.8"/>
    <path class="cls-2" d="M549.027,282.36c-23.359,9.457-72.582-11.4-82.039-34.754"/>
    <path class="cls-2" d="M549.027,282.36C534.975,334.11,436.27,390.657,384.519,376.6"/>
    <path class="cls-2" d="M549.027,282.36c-32.989-13.682-61.95-83.688-48.268-116.677"/>
    <path class="cls-2" d="M549.027,282.36c73.793,58.183,97.208,256.148,39.025,329.941"/>
    <path class="cls-2" d="M549.027,282.36c-8.381,25.119-58.631,50.226-83.751,41.845"/>
    <path class="cls-2" d="M549.027,282.36c79.3,7.9,186.388,138.694,178.488,217.99"/>
    <path class="cls-2" d="M549.027,282.36c43.477,8.531,95.9,86.543,87.366,130.02"/>
    <path class="cls-2" d="M587.125,468.75c12.938,15.653,8.866,58.539-6.787,71.477"/>
    <path class="cls-2" d="M587.125,468.75c-20.9,59.333-141.243,116.986-200.575,96.088"/>
    <path class="cls-2" d="M587.125,468.75c-4.251,43.786-76.306,103.089-120.092,98.838"/>
    <path class="cls-2" d="M587.125,468.75c-36.472,76.728-206.272,137.112-283,100.639"/>
    <path class="cls-2" d="M587.125,468.75C504.58,471.713,376.316,352.341,373.352,269.8"/>
    <path class="cls-2" d="M587.125,468.75c-68.256-20.2-140.338-152.888-120.137-221.144"/>
    <path class="cls-2" d="M587.125,468.75c12.021,42.2-33.251,123.541-75.455,135.562"/>
    <path class="cls-2" d="M587.125,468.75c-1.855,69.158-108.374,170.112-177.532,168.257"/>
    <path class="cls-2" d="M587.125,468.75c-49.355,58.793-211.577,72.951-270.371,23.6"/>
    <path class="cls-2" d="M587.125,468.75c-32.024,8.331-92.556-27.209-100.886-59.233"/>
    <path class="cls-2" d="M587.125,468.75c-1.421-21.128,28.14-54.95,49.268-56.37"/>
    <path class="cls-2" d="M636.393,412.379c14.358,36.78-19.274,113.489-56.055,127.847"/>
    <path class="cls-2" d="M636.393,412.379c-1.544-33.943,47.054-87.174,81-88.718"/>
    <path class="cls-2" d="M636.393,412.379c-2.83,64.914-104.446,158.039-169.36,155.209"/>
    <path class="cls-2" d="M636.393,412.379c-66.836.926-168.478-97.938-169.4-164.773"/>
    <path class="cls-2" d="M636.393,412.379c-57.53,43.22-208.654,21.755-251.873-35.775"/>
    <path class="cls-2" d="M636.393,412.379C649.835,475.71,575,590.87,511.67,604.312"/>
    <path class="cls-2" d="M636.393,412.379c30.316,49.652,1.312,169.606-48.341,199.922"/>
    <path class="cls-2" d="M636.393,412.379c-21.513.245-54.149-31.655-54.395-53.168"/>
    <path class="cls-2" d="M636.393,412.379c-51.858,16.588-154.528-36.317-171.116-88.175"/>
    <path class="cls-2" d="M636.393,412.379c-30.6,29.458-120.7,27.74-150.154-2.863"/>
    <path class="cls-2" d="M636.393,412.379c35.819-.631,90.492,52.152,91.123,87.97"/>
    <path class="cls-2" d="M727.515,500.349c-21.46,37.411-109.766,61.337-147.177,39.877"/>
    <path class="cls-2" d="M727.515,500.349c-37.363-33.312-43.438-139.325-10.126-176.688"/>
    <path class="cls-2" d="M727.515,500.349c-44.464,47.864-182.955,52.963-230.818,8.5"/>
    <path class="cls-2" d="M727.515,500.349c-5.5,50.283-89.18,117.454-139.463,111.952"/>
    <path class="cls-2" d="M727.515,500.349c-57.331.876-144.641-83.807-145.517-141.138"/>
    <path class="cls-2" d="M727.515,500.349c-66.422,30.089-211.188-24.411-241.277-90.833"/>
    <path class="cls-2" d="M486.239,409.516c-80.578,4.9-208.8-108.607-213.7-189.186"/>
    <path class="cls-2" d="M486.239,409.516c29.059-63.4,167.75-114.914,231.151-85.855"/>
    <path class="cls-2" d="M486.239,409.516c27.773,35.455,16.25,130.3-19.206,158.072"/>
    <path class="cls-2" d="M486.239,409.516c-65.879-37.427-108.557-192.386-71.13-258.266"/>
    <path class="cls-2" d="M486.239,409.516C409.06,393.1,317.916,252.709,334.332,175.53"/>
    <path class="cls-2" d="M486.239,409.516c-36.232-28.532-47.783-125.678-19.251-161.91"/>
    <path class="cls-2" d="M486.239,409.516C541.5,468.633,535.714,640.2,476.6,695.457"/>
    <path class="cls-2" d="M486.239,409.516c-45.863-51.671-37.151-197.971,14.52-243.834"/>
    <path class="cls-2" d="M486.239,409.516c44.045,33.873,59.3,150.75,25.432,194.8"/>
    <path class="cls-2" d="M486.239,409.516c45.3,73.988,2.27,252.921-71.717,298.222"/>
    <path class="cls-2" d="M486.239,409.516c30,83.337-50,253.348-133.336,283.351"/>
    <path class="cls-2" d="M486.239,409.516c10.544,85.737-102.247,230.158-187.984,240.7"/>
    <path class="cls-2" d="M298.255,650.218c34.418-78.415,203.668-144.41,282.083-109.992"/>
    <path class="cls-2" d="M298.255,650.218c0.583-34.735,53.56-85.963,88.295-85.38"/>
    <path class="cls-2" d="M298.255,650.218c17.23-50.282,118.5-99.86,168.778-82.63"/>
    <path class="cls-2" d="M298.255,650.218c-14.992-17.34-11.47-65.838,5.87-80.829"/>
    <path class="cls-2" d="M298.255,650.218c11.415-67.962,130.48-152.784,198.442-141.369"/>
    <path class="cls-2" d="M298.255,650.218c-51.218-48.238-55.69-197.422-7.452-248.64"/>
    <path class="cls-2" d="M298.255,650.218c44.716-26.621,151.722.522,178.343,45.239"/>
    <path class="cls-2" d="M298.255,650.218c33.5-51.864,161.551-79.408,213.416-45.907"/>
    <path class="cls-2" d="M298.255,650.218c34.757-11.749,104.517,22.762,116.266,57.52"/>
    <path class="cls-2" d="M298.255,650.218c50.376-65.543,224.254-88.293,289.8-37.917"/>
    <path class="cls-2" d="M298.255,650.218c19.625-24.91,86.428-32.837,111.338-13.212"/>
    <path class="cls-2" d="M298.255,650.218c-27.875-35.275-16.775-130,18.5-157.873"/>
    <path class="cls-2" d="M298.255,650.218c19.459-2.4,52.248,23.19,54.648,42.649"/>
    <path class="cls-2" d="M352.9,692.867c14.959-76.015,151.42-167.6,227.435-152.641"/>
    <path class="cls-2" d="M352.9,692.867c-18.876-32.335,1.312-109.153,33.647-128.029"/>
    <path class="cls-2" d="M352.9,692.867c-2.23-47.882,66.248-123.049,114.13-125.279"/>
    <path class="cls-2" d="M352.9,692.867c-34.451-14.94-63.718-89.027-48.778-123.478"/>
    <path class="cls-2" d="M352.9,692.867C344.858,627.3,431.134,516.894,496.7,508.849"/>
    <path class="cls-2" d="M352.9,692.867c-70.678-45.838-107.938-220.611-62.1-291.289"/>
    <path class="cls-2" d="M352.9,692.867c25.257-24.221,99.474-22.667,123.695,2.59"/>
    <path class="cls-2" d="M352.9,692.867c14.042-49.465,109.3-102.6,158.768-88.555"/>
    <path class="cls-2" d="M352.9,692.867c15.3-9.35,52.269-.427,61.619,14.871"/>
    <path class="cls-2" d="M352.9,692.867c30.917-63.143,172.006-111.483,235.149-80.566"/>
    <path class="cls-2" d="M352.9,692.867c0.166-22.51,34.18-56.027,56.69-55.861"/>
    <path class="cls-2" d="M352.9,692.867c-47.334-32.875-69.023-153.188-36.148-200.522"/>
    <path class="cls-2" d="M316.755,492.345c45.1-15.007,135.271,30.138,150.279,75.243"/>
    <path class="cls-2" d="M316.755,492.345c-23.344-12.963-38.915-67.423-25.952-90.767"/>
    <path class="cls-2" d="M316.755,492.345c-33.19-55.829.768-189.359,56.6-222.549"/>
    <path class="cls-2" d="M316.755,492.345C389.346,501,485.251,622.866,476.6,695.457"/>
    <path class="cls-2" d="M316.755,492.345c-9.6-36.7,31.064-106.146,67.765-115.741"/>
    <path class="cls-2" d="M316.755,492.345c61.376-16.59,178.326,50.59,194.916,111.966"/>
    <path class="cls-2" d="M316.755,492.345c62.632,23.525,121.292,152.761,97.767,215.393"/>
    <path class="cls-2" d="M316.755,492.345c78.251-30.268,241.029,41.705,271.3,119.956"/>
    <path class="cls-2" d="M316.755,492.345c-3.924-63.333,85.19-164.217,148.522-168.141"/>
    <path class="cls-2" d="M465.277,324.2C531.493,344.4,600.53,474.01,580.338,540.226"/>
    <path class="cls-2" d="M465.277,324.2c-59.323,17.774-174.969-44.55-192.743-103.874"/>
    <path class="cls-2" d="M465.277,324.2c32.381,63.872-14.855,208.252-78.727,240.633"/>
    <path class="cls-2" d="M465.277,324.2c49.028,48.325,50.082,194.355,1.756,243.383"/>
    <path class="cls-2" d="M465.277,324.2c-44.624-24.557-74.725-128.329-50.168-172.954"/>
    <path class="cls-2" d="M465.277,324.2c-55.924-3.546-134.491-92.751-130.945-148.674"/>
    <path class="cls-2" d="M465.277,324.2c16.807,81.267-79.885,228.378-161.152,245.184"/>
    <path class="cls-2" d="M465.277,324.2c-19.42,50.37-124.1,96.794-174.474,77.374"/>
    <path class="cls-2" d="M465.277,324.2c-24.608-38.8-3.319-133.914,35.482-158.522"/>
    <path class="cls-2" d="M465.277,324.2c65.3,46.743,93.136,214.807,46.394,280.107"/>
    <path class="cls-2" d="M465.277,324.2c51.424,73.7,18.014,261.378-55.684,312.8"/>
    <path class="cls-2" d="M465.277,324.2c30.346-16.343,100.378,4.661,116.721,35.007"/>
    <path class="cls-2" d="M582,359.211C492.329,393.328,306.651,310,272.534,220.331"/>
    <path class="cls-2" d="M582,359.211c19.968-34.188,101.2-55.518,135.392-35.55"/>
    <path class="cls-2" d="M582,359.211c-74.97-8.214-175.1-132.99-166.89-207.96"/>
    <path class="cls-2" d="M582,359.211c-86.27,12.8-234.869-97.412-247.666-183.681"/>
    <path class="cls-2" d="M582,359.211c12.867,46.988-38.313,136.77-85.3,149.638"/>
    <path class="cls-2" d="M582,359.211c-49.766,66.712-224.483,92.132-291.2,42.367"/>
    <path class="cls-2" d="M582,359.211c-59.612,23.846-184.8-29.8-208.646-89.415"/>
    <path class="cls-2" d="M582,359.211c-45.323.681-114.329-66.282-115.01-111.605"/>
    <path class="cls-2" d="M582,359.211c-36.017,42.974-154.5,53.41-197.479,17.393"/>
    <path class="cls-2" d="M582,359.211c-54.954-22.458-103.7-138.576-81.239-193.529"/>
    <path class="cls-2" d="M582,359.211c34.955,63.086-7.242,210.146-70.328,245.1"/>
    <path class="cls-2" d="M582,359.211c51.829,49.407,55.461,201.261,6.054,253.09"/>
    <path class="cls-2" d="M409.593,637.006c-2.4-25.372,32.068-67.023,57.44-69.419"/>
    <path class="cls-2" d="M409.593,637.006C338.749,613.679,267.475,472.422,290.8,401.578"/>
    <path class="cls-2" d="M409.593,637.006c-80.69-66.194-102.435-286.52-36.241-367.21"/>
    <path class="cls-2" d="M409.593,637.006c25.091-1.711,65.294,33.36,67,58.451"/>
    <path class="cls-2" d="M409.593,637.006c-57.1-47.066-72.139-203.307-25.074-260.4"/>
    <path class="cls-2" d="M409.593,637.006c13.877-26.954,75.123-46.571,102.077-32.695"/>
    <path class="cls-2" d="M409.593,637.006c15.132,13.161,18.089,55.6,4.928,70.732"/>
    <path class="cls-2" d="M409.593,637.006c30.751-40.633,137.826-55.456,178.459-24.705"/>
    <path class="cls-2" d="M588.052,612.3c-49.793,30.808-170.695,2.33-201.5-47.463"/>
    <path class="cls-2" d="M588.052,612.3c-31.861-83.6,45.742-256.779,129.338-288.64"/>
    <path class="cls-2" d="M588.052,612.3c-33.146,15.261-105.758-11.567-121.019-44.713"/>
    <path class="cls-2" d="M588.052,612.3c-65.368,48.2-235.724,22.456-283.927-42.912"/>
    <path class="cls-2" d="M588.052,612.3C486.458,629.606,308.108,503.172,290.8,401.578"/>
    <path class="cls-2" d="M588.052,612.3c-5.66,38.922-72.532,88.816-111.455,83.156"/>
    <path class="cls-2" d="M588.052,612.3c-16.874,13.678-62.7,8.885-76.382-7.989"/>
    <path class="cls-2" d="M588.052,612.3c-15.619,53.794-119.737,111.056-173.531,95.437"/>
    <path class="cls-2" d="M414.521,707.738c-0.339-66.666,99.151-167.173,165.817-167.512"/>
    <path class="cls-2" d="M414.521,707.738c-34.174-22.986-50.957-108.726-27.972-142.9"/>
    <path class="cls-2" d="M414.521,707.738c-17.528-38.532,13.979-122.622,52.512-140.15"/>
    <path class="cls-2" d="M414.521,707.738c-49.749-5.591-115.987-88.6-110.4-138.349"/>
    <path class="cls-2" d="M414.521,707.738c-23.343-56.213,25.963-175.546,82.176-198.889"/>
    <path class="cls-2" d="M414.521,707.738C328.546,671.25,254.314,487.554,290.8,401.578"/>
    <path class="cls-2" d="M414.521,707.738c9.959-14.871,47.2-22.24,62.076-12.281"/>
    <path class="cls-2" d="M414.521,707.738c-1.255-40.115,57.034-102.171,97.149-103.426"/>
    <path class="cls-2" d="M511.67,604.312c-32.919,17.129-107.991-6.555-125.121-39.474"/>
    <path class="cls-2" d="M511.67,604.312c-48.494,34.525-173.021,13.571-207.545-34.923"/>
    <path class="cls-2" d="M511.67,604.312C426.95,607.938,294.43,486.3,290.8,401.578"/>
    <path class="cls-2" d="M511.67,604.312c-80.278-62.4-107.087-276.428-44.682-356.706"/>
    <path class="cls-2" d="M511.67,604.312c11.215,25.244-9.829,79.931-35.073,91.145"/>
    <path class="cls-2" d="M511.67,604.312C440.7,584.2,364.408,447.576,384.519,376.6"/>
    <path class="cls-2" d="M500.759,165.682c-34.715,56.575-171.65,89.364-228.225,54.649"/>
    <path class="cls-2" d="M500.759,165.682c-20.016,14.244-71.407,5.585-85.651-14.431"/>
    <path class="cls-2" d="M500.759,165.682c-31.316,35.255-131.172,41.164-166.427,9.848"/>
    <path class="cls-2" d="M500.759,165.682c5.188,89.17-120.786,230.708-209.956,235.9"/>
    <path class="cls-2" d="M500.759,165.682c-4.659,46.3-81.1,108.772-127.406,104.114"/>
    <path class="cls-2" d="M500.759,165.682c9.631,23.139-10.632,72.293-33.771,81.924"/>
    <path class="cls-2" d="M500.759,165.682C519.7,231.114,449.952,357.668,384.519,376.6"/>
    <path class="cls-2" d="M384.519,376.6c71.888-6.439,189.379,91.734,195.819,163.622"/>
    <path class="cls-2" d="M384.519,376.6c-53.652-8.858-120.843-102.622-111.985-156.274"/>
    <path class="cls-2" d="M384.519,376.6c38.053,37.241,39.271,150.181,2.03,188.233"/>
    <path class="cls-2" d="M384.519,376.6c54.7,21.694,104.208,136.284,82.514,190.983"/>
    <path class="cls-2" d="M384.519,376.6c-38.953-51.188-20.6-186.4,30.589-225.354"/>
    <path class="cls-2" d="M384.519,376.6c-50.252-30.177-80.365-150.822-50.188-201.074"/>
    <path class="cls-2" d="M384.519,376.6C407,431.24,358.761,546.911,304.125,569.389"/>
    <path class="cls-2" d="M384.519,376.6c-13.749,23.738-69.979,38.722-93.717,24.974"/>
    <path class="cls-2" d="M476.6,695.457c-10.3-51.794,51.946-144.933,103.74-155.231"/>
    <path class="cls-2" d="M476.6,695.457c-44.133-8.114-98.162-86.486-90.048-130.619"/>
    <path class="cls-2" d="M476.6,695.457c-27.487-23.661-33.225-100.382-9.564-127.869"/>
    <path class="cls-2" d="M476.6,695.457c-59.708,9.281-163.192-66.36-172.473-126.068"/>
    <path class="cls-2" d="M476.6,695.457c-33.3-41.341-21.242-153.306,20.1-186.608"/>
    <path class="cls-2" d="M476.6,695.457C380.663,673.84,269.186,497.513,290.8,401.578"/>
    <path class="cls-2" d="M466.988,247.606c-44.346,33.436-161.018,17.071-194.454-27.275"/>
    <path class="cls-2" d="M466.988,247.606c64.005,63.987,64.032,255.977.045,319.982"/>
    <path class="cls-2" d="M466.988,247.606c-29.647-8.9-60.775-66.708-51.88-96.355"/>
    <path class="cls-2" d="M466.988,247.606c-40.946,12.116-120.54-31.129-132.657-72.076"/>
    <path class="cls-2" d="M466.988,247.606C525.179,293.913,543,450.659,496.7,508.849"/>
    <path class="cls-2" d="M466.988,247.606C462.546,313.637,356.834,406.021,290.8,401.578"/>
    <path class="cls-2" d="M466.988,247.606c-14.289,23.165-70.471,36.479-93.636,22.19"/>
    <path class="cls-2" d="M373.352,269.8c95.483,12.689,219.675,174.947,206.986,270.43"/>
    <path class="cls-2" d="M373.352,269.8C343.3,280.067,282.8,250.388,272.534,220.331"/>
    <path class="cls-2" d="M373.352,269.8C435,326.165,442.919,503.19,386.55,564.838"/>
    <path class="cls-2" d="M373.352,269.8c-15.358-32.06,9.7-103.187,41.756-118.545"/>
    <path class="cls-2" d="M373.352,269.8c-26.657-11.049-50.07-67.609-39.021-94.266"/>
    <path class="cls-2" d="M373.352,269.8c46.073,73.764,4.537,253.52-69.227,299.593"/>
    <path class="cls-2" d="M373.352,269.8C445.832,292.938,519.839,436.37,496.7,508.849"/>
    <path class="cls-2" d="M373.352,269.8c9.846,42.866-39.683,121.936-82.55,131.782"/>
    <path class="cls-2" d="M290.8,401.578C376.44,371.4,550.161,454.59,580.338,540.226"/>
    <path class="cls-2" d="M290.8,401.578c-39.9-32.6-50.865-141.344-18.269-181.247"/>
    <path class="cls-2" d="M290.8,401.578c51.8,13.5,109.25,111.458,95.747,163.26"/>
    <path class="cls-2" d="M290.8,401.578c68.448-2.044,174.186,97.562,176.23,166.01"/>
    <path class="cls-2" d="M290.8,401.578c-25.2-74.927,49.379-225.123,124.306-250.327"/>
    <path class="cls-2" d="M290.8,401.578c-36.5-53.915-10.386-189.544,43.529-226.048"/>
    <path class="cls-2" d="M290.8,401.578c36.227,30.9,44.22,131.584,13.322,167.811"/>
    <path class="cls-2" d="M290.8,401.578c62.633-19.725,186.17,44.638,205.894,107.271"/>
    <path class="cls-2" d="M496.7,508.849c7.1-81.176,139.517-192.289,220.693-185.188"/>
    <path class="cls-2" d="M304.125,569.389c32.221-32.942,129.966-34.022,162.908-1.8"/>
    <path class="cls-2" d="M334.332,175.53c-3.4,21.32-40.478,48.2-61.8,44.8"/>
    <path class="cls-2" d="M334.332,175.53c11.3-21.011,59.766-35.579,80.777-24.279"/>
    <path class="cls-2" d="M415.108,151.251c-14.7,42.331-100.244,83.779-142.574,69.08"/>
    <path class="cls-2" d="M467.033,567.588c17.189-28.133,85.172-44.55,113.3-27.361"/>
    <path class="cls-2" d="M467.033,567.588c-16.647,15.547-64.937,13.9-80.483-2.75"/>
    <path class="cls-2" d="M717.39,323.661c15.9,70.723-66.328,200.663-137.052,216.565"/>
    <path class="cls-3" d="M387.528,476.948c-34.419,4.271-92.454-40.951-96.725-75.37"/>
    <path class="cls-3" d="M387.528,476.948c6.256-33.229,65.482-73.688,98.711-67.432"/>
    <path class="cls-3" d="M549.027,282.36c21.964,8.776,41.747,54.887,32.971,76.852"/>
    <path class="cls-3" d="M549.027,282.36c12.874,37.989-24.8,114.283-62.788,127.157"/>
    <path class="cls-3" d="M587.125,468.75c-10.066,26.106-64.323,50.165-90.428,40.1"/>
    <path class="cls-3" d="M587.125,468.75c-58.95,22.092-180.514-33.195-202.606-92.145"/>
    <path class="cls-3" d="M587.125,468.75C533.846,464.21,460.737,377.483,465.277,324.2"/>
    <path class="cls-3" d="M636.393,412.379c-8.645,47.233-92.463,105.115-139.7,96.47"/>
    <path class="cls-3" d="M486.239,409.516c11.126,51-48.687,144.195-99.689,155.321"/>
    <path class="cls-3" d="M486.239,409.516c-4.448,68.4-113.717,164.321-182.114,159.872"/>
    <path class="cls-3" d="M486.239,409.516c-40.675,37.5-157.936,32.737-195.436-7.938"/>
    <path class="cls-3" d="M486.239,409.516c-50.521-5.367-118.253-89.2-112.886-139.72"/>
    <path class="cls-3" d="M486.239,409.516c-26.926,13.761-87.958-5.986-101.719-32.912"/>
    <path class="cls-3" d="M486.239,409.516c60.92,20.194,122.008,141.865,101.813,202.785"/>
    <path class="cls-3" d="M486.239,409.516c30.169,60.827-15.818,197.321-76.646,227.49"/>
    <path class="cls-3" d="M486.239,409.516c9.091-29.213,66.546-59.4,95.759-50.305"/>
    <path class="cls-3" d="M486.239,409.516c-21.255-12.87-33.832-64.057-20.962-85.312"/>
    <path class="cls-3" d="M486.239,409.516c-17.331,50.463-119.022,100.16-169.484,82.829"/>
    <path class="cls-3" d="M316.755,492.345c62.293-43.14,220.443-14.412,263.583,47.881"/>
    <path class="cls-3" d="M316.755,492.345c28.458,0.539,70.335,44.035,69.8,72.492"/>
    <path class="cls-3" d="M316.755,492.345c12.883,17.935,5.305,64.161-12.63,77.044"/>
    <path class="cls-3" d="M316.755,492.345c39.289-32.688,147.255-22.785,179.942,16.5"/>
    <path class="cls-3" d="M316.755,492.345c47.5,10.364,103.2,97.161,92.839,144.661"/>
    <path class="cls-3" d="M465.277,324.2c43.213,30.645,62.065,141.432,31.42,184.645"/>
    <path class="cls-3" d="M465.277,324.2c-29.267,7.5-84.421-25.142-91.924-54.408"/>
    <path class="cls-3" d="M465.277,324.2c-14.977-15.662-13.951-61.621,1.711-76.6"/>
    <path class="cls-3" d="M582,359.211c35.871,36.535,34.875,145.144-1.66,181.015"/>
    <path class="cls-3" d="M409.593,637.006c14.793-53.5,117.24-111.573,170.745-96.78"/>
    <path class="cls-3" d="M409.593,637.006c-19.042-9.825-32.868-53.126-23.043-72.169"/>
    <path class="cls-3" d="M409.593,637.006c-34.617,7.57-97.9-33-105.468-67.618"/>
    <path class="cls-3" d="M409.593,637.006c-8.211-43.052,44.051-119.947,87.1-128.157"/>
    <path class="cls-3" d="M588.052,612.3c-15.958-12.872-20.586-56.117-7.714-72.075"/>
    <path class="cls-3" d="M588.052,612.3c-38.961-2.419-93.775-64.491-91.355-103.452"/>
    <path class="cls-3" d="M511.67,604.312c0.916-26.551,42.117-65,68.668-64.085"/>
    <path class="cls-3" d="M511.67,604.312c-16.272,1.583-43.055-20.452-44.637-36.724"/>
    <path class="cls-3" d="M511.67,604.312c-22.087-16.1-31.071-73.375-14.974-95.463"/>
    <path class="cls-3" d="M384.519,376.6C433.4,380.618,500.71,459.965,496.7,508.849"/>
    <path class="cls-3" d="M384.519,376.6c-23.6-19.128-30.3-83.213-11.167-106.808"/>
    <path class="cls-3" d="M384.519,376.6c-9.306-42.293,40.175-119.693,82.469-129"/>
    <path class="cls-3" d="M496.7,508.849c-10.832,33.227-76.92,66.82-110.147,55.989"/>
    <path class="cls-3" d="M496.7,508.849c5.815,17.681-11.983,52.924-29.664,58.739"/>
    <path class="cls-3" d="M496.7,508.849c-26.406,50.622-141.95,86.946-192.572,60.54"/>
    <path class="cls-3" d="M304.125,569.389c49.41-61.075,215.138-78.573,276.213-29.162"/>
    <path class="cls-3" d="M304.125,569.389c15.575-17.4,65.03-20.126,82.425-4.551"/>
    <path class="cls-3" d="M386.55,564.838c33.835-43.68,150.108-58.447,193.788-24.611"/>
    <path class="cls-4" d="M486.239,409.516c44.962,7.322,101.421,85.748,94.1,130.71"/>
    <path class="cls-4" d="M486.239,409.516c21.958,17.775,28.233,77.375,10.458,99.333"/>
    <path class="cls-4" d="M465.277,324.2c-5.671,26.631-54.126,58.071-80.757,52.4"/>
    <path class="cls-4" d="M496.7,508.849c23-10.453,73.188,8.374,83.641,31.377"/>
  </g>
  <g id="nodes">
    <circle class="cls-5" cx="387.528" cy="476.948" r="27.647"/>
    <circle class="cls-5" cx="549.027" cy="282.36" r="13.529"/>
    <circle class="cls-5" cx="587.125" cy="468.75" r="11.765"/>
    <circle class="cls-5" cx="636.393" cy="412.379" r="11.765"/>
    <circle class="cls-5" cx="727.515" cy="500.349" r="13.529"/>
    <circle class="cls-5" cx="486.239" cy="409.516" r="31.176"/>
    <circle class="cls-5" cx="298.255" cy="650.218" r="11.765"/>
    <circle class="cls-5" cx="352.903" cy="692.867" r="11.765"/>
    <circle class="cls-5" cx="316.755" cy="492.345" r="13.529"/>
    <circle class="cls-5" cx="465.277" cy="324.204" r="25.882"/>
    <circle class="cls-5" cx="581.998" cy="359.211" r="34.706"/>
    <circle class="cls-5" cx="409.593" cy="637.006" r="15.294"/>
    <circle class="cls-5" cx="588.052" cy="612.301" r="11.765"/>
    <circle class="cls-5" cx="414.521" cy="707.738" r="11.765"/>
    <circle class="cls-5" cx="511.67" cy="604.312" r="17.059"/>
    <circle class="cls-5" cx="500.759" cy="165.682" r="11.765"/>
    <circle class="cls-5" cx="384.519" cy="376.604" r="36.471"/>
    <circle class="cls-5" cx="476.598" cy="695.457" r="11.765"/>
    <circle class="cls-5" cx="466.988" cy="247.606" r="11.765"/>
    <circle class="cls-5" cx="373.352" cy="269.796" r="17.059"/>
    <circle class="cls-5" cx="290.803" cy="401.578" r="15.294"/>
    <circle class="cls-5" cx="496.697" cy="508.849" r="15.294"/>
    <circle class="cls-5" cx="304.125" cy="569.389" r="15.294"/>
    <circle class="cls-5" cx="334.332" cy="175.53" r="13.529"/>
    <circle class="cls-5" cx="415.108" cy="151.251" r="10"/>
    <circle class="cls-5" cx="467.033" cy="567.588" r="13.529"/>
    <circle class="cls-5" cx="717.39" cy="323.661" r="10"/>
    <circle class="cls-5" cx="386.55" cy="564.838" r="20.588"/>
    <circle class="cls-5" cx="272.534" cy="220.331" r="10"/>
    <circle class="cls-5" cx="194.912" cy="514.427" r="10"/>
    <circle class="cls-5" cx="196.17" cy="337.19" r="10"/>
    <circle class="cls-5" cx="580.338" cy="540.226" r="40"/>
  </g>
  <g id="node-labels">
    <text class="cls-6" transform="translate(361.248 482.14)">A<tspan x="8.274" y="0">USTR</tspan><tspan x="39.832" y="0">I</tspan><tspan x="43.735" y="0">A</tspan></text>
    <text class="cls-6" transform="translate(522.931 287.234)">BE<tspan x="15.008" y="0">L</tspan><tspan x="21.431" y="0">GIUM</tspan></text>
    <text class="cls-6" transform="translate(586.143 467.124)">BOSN<tspan x="32.993" y="0">I</tspan><tspan x="36.896" y="0">A AND</tspan><tspan x="0" y="12.4">HERZEG</tspan><tspan x="46.882" y="12.4">O</tspan><tspan x="55.338" y="12.4">VI</tspan><tspan x="67.282" y="12.4">N</tspan><tspan x="76.16" y="12.4">A</tspan></text>
    <text class="cls-6" transform="translate(606.332 417.253)">BU<tspan x="16.157" y="0">L</tspan><tspan x="22.58" y="0">GAR</tspan><tspan x="47.386" y="0">I</tspan><tspan x="51.29" y="0">A</tspan></text>
    <text class="cls-6" transform="translate(700.801 504.541)">CR<tspan x="16.11" y="0">O</tspan><tspan x="24.572" y="0">A</tspan><tspan x="32.243" y="0">T</tspan><tspan x="39.967" y="0">I</tspan><tspan x="43.87" y="0">A</tspan></text>
    <text class="cls-6" transform="translate(466.63 407.876)">CZECH<tspan x="-9.125" y="12.4">REPUBLIC</tspan></text>
    <text class="cls-6" transform="translate(267.843 654.498)">DEN<tspan x="23.921" y="0">M</tspan><tspan x="34.839" y="0">ARK</tspan></text>
    <text class="cls-6" transform="translate(326.234 697.058)">ES<tspan x="14.727" y="0">T</tspan><tspan x="22.287" y="0">ON</tspan><tspan x="39.645" y="0">I</tspan><tspan x="43.548" y="0">A</tspan></text>
    <text class="cls-6" transform="translate(290.107 496.625)">FIN<tspan x="19.445" y="0">L</tspan><tspan x="26.354" y="0">AND</tspan></text>
    <text class="cls-6" transform="translate(441.289 328.367)">FRANCE</text>
    <text class="cls-6" transform="translate(552.63 364.014)">GER<tspan x="23.482" y="0">M</tspan><tspan x="34.399" y="0">A</tspan><tspan x="42.773" y="0">N</tspan><tspan x="51.382" y="0">Y</tspan></text>
    <text class="cls-6" transform="translate(386.138 640.698)">GREECE</text>
    <text class="cls-6" transform="translate(558.759 617.074)">HUNGA<tspan x="42.598" y="0">R</tspan><tspan x="50.274" y="0">Y</tspan></text>
    <text class="cls-6" transform="translate(388.729 712.517)">ICE<tspan x="19" y="0">L</tspan><tspan x="25.909" y="0">AND</tspan></text>
    <text class="cls-6" transform="translate(484.141 608.591)">IRE<tspan x="18.806" y="0">L</tspan><tspan x="25.716" y="0">AND</tspan></text>
    <text class="cls-6" transform="translate(480.544 169.961)">ISRAEL</text>
    <text class="cls-6" transform="translate(369.067 381.494)">I<tspan x="3.628" y="0">T</tspan><tspan x="10.649" y="0">A</tspan><tspan class="cls-7" x="19.023" y="0">L</tspan><tspan x="24.187" y="0">Y</tspan></text>
    <text class="cls-6" transform="translate(443.985 699.736)">L<tspan x="6.798" y="0">I</tspan><tspan x="10.426" y="0">TH</tspan><tspan x="26.929" y="0">U</tspan><tspan x="34.998" y="0">AN</tspan><tspan x="52.145" y="0">I</tspan><tspan x="56.048" y="0">A</tspan></text>
    <text class="cls-6" transform="translate(426.034 251.48)">L<tspan x="6.657" y="0">UXEMBOURG</tspan></text>
    <text class="cls-6" transform="translate(329.924 274.075)">N<tspan x="8.772" y="0">E</tspan><tspan x="15.94" y="0">THER</tspan><tspan x="47.45" y="0">L</tspan><tspan x="54.36" y="0">ANDS</tspan></text>
    <text class="cls-6" transform="translate(264.07 406.351)">NOR<tspan x="25.316" y="0">W</tspan><tspan x="35.858" y="0">A</tspan><tspan x="43.354" y="0">Y</tspan></text>
    <text class="cls-6" transform="translate(472.374 513.128)">PO<tspan x="16.625" y="0">L</tspan><tspan x="23.535" y="0">AND</tspan></text>
    <text class="cls-6" transform="translate(271.646 573.263)">PO<tspan x="16.625" y="0">R</tspan><tspan x="24.291" y="0">TUGAL</tspan></text>
    <text class="cls-6" transform="translate(304.87 179.721)">RO<tspan x="16.543" y="0">M</tspan><tspan x="27.46" y="0">AN</tspan><tspan x="44.607" y="0">I</tspan><tspan x="48.511" y="0">A</tspan></text>
    <text class="cls-6" transform="translate(392.943 155.53)">SERB<tspan x="30.644" y="0">I</tspan><tspan x="34.547" y="0">A</tspan></text>
    <text class="cls-6" transform="translate(436.487 571.867)">S<tspan x="7.677" y="0">L</tspan><tspan x="14.1" y="0">O</tspan><tspan x="22.556" y="0">V</tspan><tspan x="30.263" y="0">AK</tspan><tspan x="46.554" y="0">I</tspan><tspan x="50.458" y="0">A</tspan></text>
    <text class="cls-6" transform="translate(688.668 327.94)">S<tspan x="7.677" y="0">L</tspan><tspan x="14.1" y="0">O</tspan><tspan x="22.556" y="0">VEN</tspan><tspan x="46.524" y="0">I</tspan><tspan x="50.428" y="0">A</tspan></text>
    <text class="cls-6" transform="translate(367.934 569.609)">S<tspan x="7.677" y="0">P</tspan><tspan x="14.674" y="0">AIN</tspan></text>
    <text class="cls-6" transform="translate(247.342 224.61)">SWEDEN</text>
    <text class="cls-6" transform="translate(152.749 518.706)">SW<tspan x="18.471" y="0">I</tspan><tspan x="22.099" y="0">TZER</tspan><tspan x="52.403" y="0">L</tspan><tspan x="59.312" y="0">AND</tspan></text>
    <text class="cls-6" transform="translate(172.436 342.08)">TURKEY</text>
    <text class="cls-6" transform="translate(558.128 539.1)">UN<tspan x="16.971" y="0">I</tspan><tspan x="20.599" y="0">TED</tspan><tspan x="-6.493" y="12.4">KINGDOM</tspan></text>
  </g>
</svg>
